<?xml version="1.0" encoding="UTF-8" standalone="no"?>
<!-- Created with Inkscape (http://www.inkscape.org/) -->

<svg
   width="230.1875mm"
   height="130.17712mm"
   viewBox="0 0 230.1875 130.17712"
   version="1.1"
   id="svg8"
   inkscape:version="1.3.2 (091e20e, 2023-11-25, custom)"
   sodipodi:docname="values.svg"
   xml:space="preserve"
   xmlns:inkscape="http://www.inkscape.org/namespaces/inkscape"
   xmlns:sodipodi="http://sodipodi.sourceforge.net/DTD/sodipodi-0.dtd"
   xmlns="http://www.w3.org/2000/svg"
   xmlns:svg="http://www.w3.org/2000/svg"
   xmlns:rdf="http://www.w3.org/1999/02/22-rdf-syntax-ns#"
   xmlns:cc="http://creativecommons.org/ns#"
   xmlns:dc="http://purl.org/dc/elements/1.1/"><defs
     id="defs2"><inkscape:path-effect
       effect="envelope"
       id="path-effect4658"
       is_visible="true"
       yy="true"
       xx="true"
       bendpath1="m -199.08406,108.42369 h 7.0057"
       bendpath2="m -192.07836,108.42369 v 6.75242"
       bendpath3="m -199.08406,115.17611 h 7.0057"
       bendpath4="m -199.08406,108.42369 v 6.75242" /><inkscape:path-effect
       effect="bend_path"
       id="path-effect4656"
       is_visible="true"
       bendpath="m -192.00142,114.60623 c 2.12577,-0.53066 4.48261,0.85111 7.0057,0"
       prop_scale="1"
       scale_y_rel="false"
       vertical="false"
       bendpath-nodetypes="cc" /><inkscape:path-effect
       effect="bounding_box"
       id="path-effect4654"
       is_visible="true"
       linkedpath=""
       visualbounds="false" /></defs><sodipodi:namedview
     id="base"
     pagecolor="#ffffff"
     bordercolor="#666666"
     borderopacity="1.0"
     inkscape:pageopacity="0.0"
     inkscape:pageshadow="2"
     inkscape:zoom="1"
     inkscape:cx="414"
     inkscape:cy="212.5"
     inkscape:document-units="mm"
     inkscape:current-layer="layer1"
     showgrid="false"
     fit-margin-top="0"
     fit-margin-left="0"
     fit-margin-right="0"
     fit-margin-bottom="0"
     inkscape:window-width="1856"
     inkscape:window-height="1057"
     inkscape:window-x="56"
     inkscape:window-y="-8"
     inkscape:window-maximized="1"
     showguides="false"
     inkscape:object-nodes="false"
     inkscape:showpageshadow="2"
     inkscape:pagecheckerboard="0"
     inkscape:deskcolor="#d1d1d1" /><metadata
     id="metadata5"><rdf:RDF><cc:Work
         rdf:about=""><dc:format>image/svg+xml</dc:format><dc:type
           rdf:resource="http://purl.org/dc/dcmitype/StillImage" /><dc:title /></cc:Work></rdf:RDF></metadata><g
     inkscape:label="Layer 1"
     inkscape:groupmode="layer"
     id="layer1"
     transform="translate(130.2128,-81.476918)"><rect
       style="opacity:1;fill:#eeeeee;fill-opacity:1;fill-rule:nonzero;stroke:none;stroke-width:0.26458332;stroke-linecap:butt;stroke-linejoin:round;stroke-miterlimit:4;stroke-dasharray:none;stroke-dashoffset:0;stroke-opacity:0.90944878;paint-order:normal"
       id="rect5518"
       width="230.1875"
       height="130.17712"
       x="-130.2128"
       y="81.476921"
       rx="5.2916665"
       ry="5.2916665" /><text
       xml:space="preserve"
       style="font-style:normal;font-variant:normal;font-weight:500;font-stretch:normal;font-size:8.46667px;line-height:4.23333px;font-family:Montserrat;-inkscape-font-specification:'Montserrat Medium';text-align:center;text-anchor:middle;opacity:1;fill:#eeeeee;fill-opacity:1;fill-rule:nonzero;stroke:none;stroke-width:4.23333;stroke-linecap:butt;stroke-linejoin:round;stroke-miterlimit:4;stroke-dasharray:none;stroke-dashoffset:0;stroke-opacity:1;paint-order:stroke fill markers"
       x="-80.312523"
       y="76.881645"
       id="text4627-36-3"><tspan
         sodipodi:role="line"
         id="tspan4625-0-6"
         x="-80.312523"
         y="76.881645"
         style="font-style:normal;font-variant:normal;font-weight:500;font-stretch:normal;font-size:8.46667px;font-family:Montserrat;-inkscape-font-specification:'Montserrat Medium';text-align:center;text-anchor:middle;fill:#eeeeee;fill-opacity:1;stroke-width:4.23333">ORD</tspan></text><text
       xml:space="preserve"
       style="font-style:normal;font-variant:normal;font-weight:500;font-stretch:normal;font-size:8.46667px;line-height:4.23333px;font-family:Montserrat;-inkscape-font-specification:'Montserrat Medium';text-align:center;letter-spacing:0px;text-anchor:middle;opacity:1;fill:#eeeeee;fill-opacity:1;fill-rule:nonzero;stroke:none;stroke-width:4.23333;stroke-linecap:butt;stroke-linejoin:round;stroke-miterlimit:4;stroke-dasharray:none;stroke-dashoffset:0;stroke-opacity:1;paint-order:stroke fill markers"
       x="-107.4626"
       y="73.854813"
       id="text4627-3-2-6"><tspan
         sodipodi:role="line"
         id="tspan4625-6-9-2"
         x="-107.4626"
         y="73.854813"
         style="font-style:normal;font-variant:normal;font-weight:500;font-stretch:normal;font-size:8.46667px;font-family:Montserrat;-inkscape-font-specification:'Montserrat Medium';text-align:center;letter-spacing:0px;text-anchor:middle;fill:#eeeeee;fill-opacity:1;stroke-width:4.23333">TEXT</tspan></text><text
       xml:space="preserve"
       style="font-style:normal;font-variant:normal;font-weight:600;font-stretch:normal;font-size:8.46667px;line-height:4.23333px;font-family:Montserrat;-inkscape-font-specification:'Montserrat Semi-Bold';text-align:center;letter-spacing:0px;text-anchor:middle;fill:#222222;fill-opacity:1;fill-rule:nonzero;stroke:none;stroke-width:4.23333;stroke-linecap:butt;stroke-linejoin:round;stroke-miterlimit:4;stroke-dasharray:none;stroke-dashoffset:0;stroke-opacity:1;paint-order:stroke fill markers"
       x="68.017265"
       y="92.651772"
       id="text4627-3-2-6-3"><tspan
         sodipodi:role="line"
         id="tspan4625-6-9-2-8"
         x="68.017265"
         y="92.651772"
         style="font-style:normal;font-variant:normal;font-weight:600;font-stretch:normal;font-size:8.46667px;font-family:Montserrat;-inkscape-font-specification:'Montserrat Semi-Bold';text-align:center;letter-spacing:0px;text-anchor:middle;fill:#222222;fill-opacity:1;stroke-width:4.23333">CREA</tspan></text><text
       xml:space="preserve"
       style="font-style:normal;font-variant:normal;font-weight:600;font-stretch:normal;font-size:8.46667px;line-height:4.23333px;font-family:Montserrat;-inkscape-font-specification:'Montserrat Semi-Bold';text-align:center;letter-spacing:0px;text-anchor:middle;fill:#222222;fill-opacity:1;fill-rule:nonzero;stroke:none;stroke-width:4.23333;stroke-linecap:butt;stroke-linejoin:round;stroke-miterlimit:4;stroke-dasharray:none;stroke-dashoffset:0;stroke-opacity:1;paint-order:stroke fill markers"
       x="12.724895"
       y="92.651772"
       id="text4627-3-2-6-3-5"><tspan
         sodipodi:role="line"
         id="tspan4625-6-9-2-8-6"
         x="12.724895"
         y="92.651772"
         style="font-style:normal;font-variant:normal;font-weight:600;font-stretch:normal;font-size:8.46667px;font-family:Montserrat;-inkscape-font-specification:'Montserrat Semi-Bold';text-align:center;letter-spacing:0px;text-anchor:middle;fill:#222222;fill-opacity:1;stroke-width:4.23333">ATTITUDE</tspan></text><text
       xml:space="preserve"
       style="font-style:normal;font-variant:normal;font-weight:600;font-stretch:normal;font-size:8.46667px;line-height:4.23333px;font-family:Montserrat;-inkscape-font-specification:'Montserrat Semi-Bold';text-align:center;letter-spacing:0px;text-anchor:middle;fill:#222222;fill-opacity:1;fill-rule:nonzero;stroke:none;stroke-width:4.23333;stroke-linecap:butt;stroke-linejoin:round;stroke-miterlimit:4;stroke-dasharray:none;stroke-dashoffset:0;stroke-opacity:1;paint-order:stroke fill markers"
       x="-43.063217"
       y="92.651772"
       id="text4627-3-2-6-3-4"><tspan
         sodipodi:role="line"
         id="tspan4625-6-9-2-8-8"
         x="-43.063217"
         y="92.651772"
         style="font-style:normal;font-variant:normal;font-weight:600;font-stretch:normal;font-size:8.46667px;font-family:Montserrat;-inkscape-font-specification:'Montserrat Semi-Bold';text-align:center;letter-spacing:0px;text-anchor:middle;fill:#222222;fill-opacity:1;stroke-width:4.23333">STRATEGY</tspan></text><text
       xml:space="preserve"
       style="font-style:normal;font-variant:normal;font-weight:600;font-stretch:normal;font-size:8.46667px;line-height:4.23333px;font-family:Montserrat;-inkscape-font-specification:'Montserrat Semi-Bold';text-align:center;letter-spacing:0px;text-anchor:middle;fill:#222222;fill-opacity:1;fill-rule:nonzero;stroke:none;stroke-width:4.23333;stroke-linecap:butt;stroke-linejoin:round;stroke-miterlimit:4;stroke-dasharray:none;stroke-dashoffset:0;stroke-opacity:1;paint-order:stroke fill markers"
       x="-98.670235"
       y="92.651772"
       id="text4627-3-2-6-3-6"><tspan
         sodipodi:role="line"
         id="tspan4625-6-9-2-8-62"
         x="-98.670235"
         y="92.651772"
         style="font-style:normal;font-variant:normal;font-weight:600;font-stretch:normal;font-size:8.46667px;font-family:Montserrat;-inkscape-font-specification:'Montserrat Semi-Bold';text-align:center;letter-spacing:0px;text-anchor:middle;fill:#222222;fill-opacity:1;stroke-width:4.23333">STYLE</tspan></text><g
       id="g1"
       transform="matrix(0.26458333,0,0,0.26458333,-124.92114,98.024052)"
       style="display:inline"><path
         d="m 0,0 c 66,0 132,0 200,0 0,66 0,132 0,200 -66,0 -132,0 -200,0 C 0,134 0,68 0,0 Z"
         fill="#222121"
         id="path1" /><path
         d="m 0,0 c 54.78,0 109.56,0 166,0 1.98,0.99 3.96,1.98 6,3 0.99,1.485 0.99,1.485 2,3 0,40.92 0,81.84 0,124 -59.4,0 -118.8,0 -180,0 0,-23.76 0,-47.52 0,-72 12.21,0 24.42,0 37,0 0,6.93 0,13.86 0,21 -7.92,0.495 -7.92,0.495 -16,1 -0.33,2.97 -0.66,5.94 -1,9 3.3,0.33 6.6,0.66 10,1 1.98,1.32 3.96,2.64 6,4 8.25,0.66 16.5,1.32 25,2 15.84,0.495 15.84,0.495 32,1 0,-0.66 0,-1.32 0,-2 0.66,0 1.32,0 2,0 0,-0.66 0,-1.32 0,-2 0.66,0 1.32,0 2,0 0,-3.3 0,-6.6 0,-10 -0.33,-0.99 -0.66,-1.98 -1,-3 -3.3,-1.32 -6.6,-2.64 -10,-4 1.32,-1.32 2.64,-2.64 4,-4 1.603873,-1.125419 3.208109,-2.25032 4.8125,-3.375 0.89332,-0.626484 1.786641,-1.252969 2.707031,-1.898438 C 93.332679,65.464498 95.161882,64.225412 97,63 c 1.98,0.33 3.96,0.66 6,1 3.96,1.98 7.92,3.96 12,6 1.98,0 3.96,0 6,0 4.62,-2.31 9.24,-4.62 14,-7 8.91,-0.33 17.82,-0.66 27,-1 0.66,-1.65 1.32,-3.3 2,-5 -6.93,0 -13.86,0 -21,0 -4.95,-0.99 -9.9,-1.98 -15,-3 -2.97,-1.98 -5.94,-3.96 -9,-6 -1.65,0.33 -3.3,0.66 -5,1 -3.63,0.99 -7.26,1.98 -11,3 -0.99,0.99 -1.98,1.98 -3,3 -1.32,0.33 -2.64,0.66 -4,1 -12.375,0.495 -12.375,0.495 -25,1 -0.33,1.32 -0.66,2.64 -1,4 0.66,0.66 1.32,1.32 2,2 -4.29,3.96 -8.58,7.92 -13,12 -0.66,0.66 -1.32,1.32 -2,2 -5.94,0.33 -11.88,0.66 -18,1 0,-6.6 0,-13.2 0,-20 8.58,-0.33 17.16,-0.66 26,-1 0.99,-0.66 1.98,-1.32 3,-2 0,-1.65 0,-3.3 0,-5 C 66.02,49.01 64.04,48.02 62,47 28.34,46.505 28.34,46.505 -6,46 -6,32.8 -6,19.6 -6,6 -4,4 -2,2 0,0 Z"
         fill="#f34235"
         transform="translate(16,10)"
         id="path2" /><path
         d="M 0,0 C 2.31,0 4.62,0 7,0 7.66,0.33 8.32,0.66 9,1 9,2.32 9,3.64 9,5 6.36,5 3.72,5 1,5 c 0.33,0.99 0.66,1.98 1,3 1.98,0.99 3.96,1.98 6,3 0.66,0.66 1.32,1.32 2,2 0,1.98 0,3.96 0,6 -1.65,1.32 -3.3,2.64 -5,4 -2.31,0 -4.62,0 -7,0 -0.99,-0.66 -1.98,-1.32 -3,-2 0,-1.32 0,-2.64 0,-4 2.97,0.33 5.94,0.66 9,1 C 4,17.01 4,16.02 4,15 1.36,13.35 -1.28,11.7 -4,10 -4.33,9.67 -4.66,9.34 -5,9 -4.67,6.69 -4.34,4.38 -4,2 -2.68,1.34 -1.36,0.68 0,0 Z"
         fill="#ffffff"
         transform="translate(64,153)"
         id="path3" /><path
         d="m 0,0 c 2.31,0 4.62,0 7,0 0.99,0.66 1.98,1.32 3,2 0,1.32 0,2.64 0,4 C 7.03,5.67 4.06,5.34 1,5 0.01,6.485 0.01,6.485 -1,8 c 0,2.31 0,4.62 0,7 0.99,1.485 0.99,1.485 2,3 1.98,0 3.96,0 6,0 0.99,-0.33 1.98,-0.66 3,-1 -0.33,1.65 -0.66,3.3 -1,5 -0.66,0.33 -1.32,0.66 -2,1 -2.31,0 -4.62,0 -7,0 -1.65,-0.99 -3.3,-1.98 -5,-3 -0.66,-1.32 -1.32,-2.64 -2,-4 0,-2.64 0,-5.28 0,-8 0.99,-1.65 1.98,-3.3 3,-5 1.32,-0.99 2.64,-1.98 4,-3 z"
         fill="#ffffff"
         transform="translate(83,153)"
         id="path4" /><path
         d="m 0,0 c 4.29,0 8.58,0 13,0 0,1.32 0,2.64 0,4 -2.64,0 -5.28,0 -8,0 0,1.98 0,3.96 0,6 2.31,0 4.62,0 7,0 0,1.32 0,2.64 0,4 -2.31,0 -4.62,0 -7,0 0,2.97 0,5.94 0,9 C 3.35,23 1.7,23 0,23 0,15.41 0,7.82 0,0 Z"
         fill="#ffffff"
         transform="translate(119,153)"
         id="path5" /><path
         d="M 0,0 C 1.65,0 3.3,0 5,0 5,7.59 5,15.18 5,23 3.35,23 1.7,23 0,23 0,15.41 0,7.82 0,0 Z"
         fill="#ffffff"
         transform="translate(136,153)"
         id="path6" /><path
         d="M 0,0 C 1.65,0 3.3,0 5,0 5,7.59 5,15.18 5,23 3.35,23 1.7,23 0,23 0,15.41 0,7.82 0,0 Z"
         fill="#ffffff"
         transform="translate(98,153)"
         id="path7" /><path
         d="M 0,0 C 0.33,0 0.66,0 1,0 1,2.97 1,5.94 1,9 -1.97,9 -4.94,9 -8,9 -6.35,7.68 -4.7,6.36 -3,5 -2.01,3.35 -1.02,1.7 0,0 Z"
         fill="#ffffff"
         transform="translate(199,191)"
         id="path8" /><path
         d="M 0,0 C 1.32,1.65 2.64,3.3 4,5 6.475,6.98 6.475,6.98 9,9 6.03,9 3.06,9 0,9 0,6.03 0,3.06 0,0 Z"
         fill="#ffffff"
         transform="translate(0,191)"
         id="path9" /><path
         d="M 0,0 C 2.97,0 5.94,0 9,0 9,1.32 9,2.64 9,4 6.03,4 3.06,4 0,4 0,2.68 0,1.36 0,0 Z"
         fill="#ffffff"
         transform="translate(106,165)"
         id="path10" /><path
         d="M 0,0 C 2.97,0 5.94,0 9,0 9,2.97 9,5.94 9,9 7.68,7.35 6.36,5.7 5,4 3.35,2.68 1.7,1.36 0,0 Z"
         fill="#ffffff"
         transform="translate(191)"
         id="path11" /><path
         d="M 0,0 C 2.97,0 5.94,0 9,0 7.35,1.32 5.7,2.64 4,4 2.68,5.65 1.36,7.3 0,9 0,6.03 0,3.06 0,0 Z"
         fill="#ffffff"
         id="path12" /></g><g
       id="g2"
       transform="matrix(0.26458333,0,0,0.26458333,-124.92114,153.58655)"
       style="display:inline"><path
         d="m 0,0 c 66,0 132,0 200,0 0,66 0,132 0,200 -66,0 -132,0 -200,0 C 0,134 0,68 0,0 Z"
         fill="#212222"
         id="path1-0" /><path
         d="m 0,0 c 54.78,0 109.56,0 166,0 1.98,0.99 3.96,1.98 6,3 0.99,1.485 0.99,1.485 2,3 0,40.92 0,81.84 0,124 -10.89,0 -21.78,0 -33,0 0,-9.9 0,-19.8 0,-30 0.99,0 1.98,0 3,0 0,-2.97 0,-5.94 0,-9 -0.99,0 -1.98,0 -3,0 -0.33,0.99 -0.66,1.98 -1,3 0,-8.25 0,-16.5 0,-25 -1.65,-3.63 -3.3,-7.26 -5,-11 0,-0.66 0,-1.32 0,-2 -0.66,0 -1.32,0 -2,0 -0.99,2.97 -1.98,5.94 -3,9 -0.33,0.66 -0.66,1.32 -1,2 -0.33,8.91 -0.66,17.82 -1,27 -0.33,-0.99 -0.66,-1.98 -1,-3 -0.99,0 -1.98,0 -3,0 0,2.97 0,5.94 0,9 0.99,0 1.98,0 3,0 0,2.31 0,4.62 0,7 -2.31,0 -4.62,0 -7,0 0,1.32 0,2.64 0,4 -2.64,0 -5.28,0 -8,0 0,-0.99 0,-1.98 0,-3 -0.99,0 -1.98,0 -3,0 0,-7.59 0,-15.18 0,-23 -2.31,0 -4.62,0 -7,0 0,1.32 0,2.64 0,4 -2.31,0 -4.62,0 -7,0 -0.33,-1.32 -0.66,-2.64 -1,-4 0,-10.23 0,-20.46 0,-31 -2.97,-6.93 -5.94,-13.86 -9,-21 0,-3.63 0,-7.26 0,-11 1.32,-0.66 2.64,-1.32 4,-2 3.96,0 7.92,0 12,0 1.32,-0.33 2.64,-0.66 4,-1 3.3,0 6.6,0 10,0 0,-0.99 0,-1.98 0,-3 -9.9,0.495 -9.9,0.495 -20,1 0,-0.66 0,-1.32 0,-2 -3.3,0 -6.6,0 -10,0 -0.33,5.94 -0.66,11.88 -1,18 -2.97,6.93 -5.94,13.86 -9,21 0,10.23 0,20.46 0,31 -0.66,0 -1.32,0 -2,0 0,1.32 0,2.64 0,4 -2.31,0 -4.62,0 -7,0 0,-1.32 0,-2.64 0,-4 -2.64,0 -5.28,0 -8,0 0,7.26 0,14.52 0,22 -0.99,0 -1.98,0 -3,0 0,1.32 0,2.64 0,4 -2.64,0 -5.28,0 -8,0 0,-1.32 0,-2.64 0,-4 -2.31,0 -4.62,0 -7,0 0,-2.31 0,-4.62 0,-7 0.99,0 1.98,0 3,0 0,-2.97 0,-5.94 0,-9 -0.99,0 -1.98,0 -3,0 -0.495,1.485 -0.495,1.485 -1,3 0,-8.25 0,-16.5 0,-25 -1.98,-4.29 -3.96,-8.58 -6,-13 -1.65,3.63 -3.3,7.26 -5,11 -0.33,8.91 -0.66,17.82 -1,27 -0.33,-0.99 -0.66,-1.98 -1,-3 -0.99,0 -1.98,0 -3,0 0,2.97 0,5.94 0,9 0.99,0 1.98,0 3,0 0,9.9 0,19.8 0,30 -10.56,0 -21.12,0 -32,0 C -6,89.08 -6,48.16 -6,6 -4,4 -2,2 0,0 Z"
         fill="#00887a"
         transform="translate(16,10)"
         id="path2-8" /><path
         d="m 0,0 c 2.64,0 5.28,0 8,0 2.475,1.485 2.475,1.485 5,3 0.66,1.32 1.32,2.64 2,4 0,2.64 0,5.28 0,8 -0.99,1.65 -1.98,3.3 -3,5 -1.32,0.99 -2.64,1.98 -4,3 -2.64,0 -5.28,0 -8,0 -1.65,-0.99 -3.3,-1.98 -5,-3 -0.66,-1.32 -1.32,-2.64 -2,-4 0,-2.64 0,-5.28 0,-8 0.99,-1.65 1.98,-3.3 3,-5 1.32,-0.99 2.64,-1.98 4,-3 z"
         fill="#ffffff"
         transform="translate(103,154)"
         id="path3-4" /><path
         d="m 0,0 c 3.96,0 7.92,0 12,0 1.32,1.32 2.64,2.64 4,4 -0.33,2.31 -0.66,4.62 -1,7 -0.66,0.66 -1.32,1.32 -2,2 1.32,2.64 2.64,5.28 4,8 0,0.66 0,1.32 0,2 -1.65,0 -3.3,0 -5,0 C 10.68,20.36 9.36,17.72 8,15 7.01,14.67 6.02,14.34 5,14 5,16.97 5,19.94 5,23 3.35,23 1.7,23 0,23 0,15.41 0,7.82 0,0 Z"
         fill="#ffffff"
         transform="translate(123,154)"
         id="path4-8" /><path
         d="m 0,0 c 1.65,0 3.3,0 5,0 0,2.97 0,5.94 0,9 2.64,0 5.28,0 8,0 0,-2.97 0,-5.94 0,-9 1.65,0 3.3,0 5,0 0,7.59 0,15.18 0,23 -1.65,0 -3.3,0 -5,0 0,-3.3 0,-6.6 0,-10 -2.64,0 -5.28,0 -8,0 0,3.3 0,6.6 0,10 C 3.35,23 1.7,23 0,23 0,15.41 0,7.82 0,0 Z"
         fill="#ffffff"
         transform="translate(31,154)"
         id="path5-5" /><path
         d="M 0,0 C 2.31,0 4.62,0 7,0 7.66,0.33 8.32,0.66 9,1 9,2.32 9,3.64 9,5 6.36,5 3.72,5 1,5 c 0.33,0.99 0.66,1.98 1,3 1.98,0.99 3.96,1.98 6,3 0.66,0.66 1.32,1.32 2,2 0,1.98 0,3.96 0,6 -1.65,1.32 -3.3,2.64 -5,4 -2.31,0 -4.62,0 -7,0 -0.99,-0.66 -1.98,-1.32 -3,-2 0,-1.32 0,-2.64 0,-4 2.97,0.33 5.94,0.66 9,1 C 4,17.01 4,16.02 4,15 1.36,13.35 -1.28,11.7 -4,10 -4.33,9.67 -4.66,9.34 -5,9 -4.67,6.69 -4.34,4.38 -4,2 -2.68,1.34 -1.36,0.68 0,0 Z"
         fill="#ffffff"
         transform="translate(67,154)"
         id="path6-6" /><path
         d="m 0,0 c 2.31,0 4.62,0 7,0 0.99,0.66 1.98,1.32 3,2 0,1.32 0,2.64 0,4 C 7.03,5.67 4.06,5.34 1,5 0.01,6.485 0.01,6.485 -1,8 c 0,2.31 0,4.62 0,7 0.99,1.485 0.99,1.485 2,3 1.98,0 3.96,0 6,0 0.99,-0.33 1.98,-0.66 3,-1 -0.33,1.65 -0.66,3.3 -1,5 -0.66,0.33 -1.32,0.66 -2,1 -2.31,0 -4.62,0 -7,0 -1.65,-0.99 -3.3,-1.98 -5,-3 -0.66,-1.32 -1.32,-2.64 -2,-4 0,-2.64 0,-5.28 0,-8 0.99,-1.65 1.98,-3.3 3,-5 1.32,-0.99 2.64,-1.98 4,-3 z"
         fill="#ffffff"
         transform="translate(159,154)"
         id="path7-3" /><path
         d="m 0,0 c 6.27,0 12.54,0 19,0 0,1.32 0,2.64 0,4 -2.31,0 -4.62,0 -7,0 0,6.27 0,12.54 0,19 -1.65,0 -3.3,0 -5,0 C 7,16.73 7,10.46 7,4 4.69,4 2.38,4 0,4 0,2.68 0,1.36 0,0 Z"
         fill="#ffffff"
         transform="translate(78,154)"
         id="path8-9" /><path
         d="M 0,0 C 1.98,0 3.96,0 6,0 6.99,1.32 7.98,2.64 9,4 9,6.31 9,8.62 9,11 8.01,12.32 7.02,13.64 6,15 4.02,15 2.04,15 0,15 -0.99,13.68 -1.98,12.36 -3,11 -3,8.69 -3,6.38 -3,4 -2.01,2.68 -1.02,1.36 0,0 Z"
         fill="#222222"
         transform="translate(104,158)"
         id="path9-7" /><path
         d="M 0,0 C 1.65,0 3.3,0 5,0 5,7.59 5,15.18 5,23 3.35,23 1.7,23 0,23 0,15.41 0,7.82 0,0 Z"
         fill="#ffffff"
         transform="translate(144,154)"
         id="path10-0" /><path
         d="M 0,0 C 1.65,0 3.3,0 5,0 5,7.59 5,15.18 5,23 3.35,23 1.7,23 0,23 0,15.41 0,7.82 0,0 Z"
         fill="#ffffff"
         transform="translate(54,154)"
         id="path11-2" /><path
         d="M 0,0 C 0.33,0.66 0.66,1.32 1,2 2.98,1.67 4.96,1.34 7,1 c 4.62,0 9.24,0 14,0 0,0.99 0,1.98 0,3 C 16.38,4.66 11.76,5.32 7,6 5.02,6 3.04,6 1,6 0.67,5.67 0.34,5.34 0,5 0,3.35 0,1.7 0,0 Z"
         fill="#1c201c"
         transform="translate(110,25)"
         id="path12-5" /><path
         d="M 0,0 C 2.97,0 5.94,0 9,0 9,1.65 9,3.3 9,5 4.545,5.495 4.545,5.495 0,6 0,4.02 0,2.04 0,0 Z"
         fill="#1e1a17"
         transform="translate(101,25)"
         id="path13" /><path
         d="M 0,0 C 5.61,0.33 11.22,0.66 17,1 16.01,1.66 15.02,2.32 14,3 12.68,3.33 11.36,3.66 10,4 6.7,4 3.4,4 0,4 0,2.68 0,1.36 0,0 Z"
         fill="#192c28"
         transform="translate(49,54)"
         id="path14" /><path
         d="M 0,0 C 5.61,0.33 11.22,0.66 17,1 16.01,1.66 15.02,2.32 14,3 11.69,3.33 9.38,3.66 7,4 4.69,4 2.38,4 0,4 0,2.68 0,1.36 0,0 Z"
         fill="#1c201d"
         transform="translate(150,54)"
         id="path15" /><path
         d="M 0,0 C 0.33,0 0.66,0 1,0 1,2.97 1,5.94 1,9 -1.97,9 -4.94,9 -8,9 -6.35,7.68 -4.7,6.36 -3,5 -2.01,3.35 -1.02,1.7 0,0 Z"
         fill="#ffffff"
         transform="translate(199,191)"
         id="path16" /><path
         d="M 0,0 C 1.32,1.65 2.64,3.3 4,5 6.475,6.98 6.475,6.98 9,9 6.03,9 3.06,9 0,9 0,6.03 0,3.06 0,0 Z"
         fill="#ffffff"
         transform="translate(0,191)"
         id="path17" /><path
         d="M 0,0 C 2.97,0 5.94,0 9,0 9,2.97 9,5.94 9,9 7.68,7.35 6.36,5.7 5,4 3.35,2.68 1.7,1.36 0,0 Z"
         fill="#ffffff"
         transform="translate(191)"
         id="path18" /><path
         d="M 0,0 C 2.97,0 5.94,0 9,0 7.35,1.32 5.7,2.64 4,4 2.68,5.65 1.36,7.3 0,9 0,6.03 0,3.06 0,0 Z"
         fill="#ffffff"
         id="path19" /><path
         d="M 0,0 C 1.65,0 3.3,0 5,0 5.33,1.65 5.66,3.3 6,5 5.67,5.33 5.34,5.66 5,6 3.35,6 1.7,6 0,6 0,4.02 0,2.04 0,0 Z"
         fill="#222222"
         transform="translate(128,158)"
         id="path20" /><path
         d="m 0,0 c 4.62,0 9.24,0 14,0 0,0.99 0,1.98 0,3 C 12.68,3 11.36,3 10,3 10,2.34 10,1.68 10,1 6.7,1 3.4,1 0,1 0,0.67 0,0.34 0,0 Z"
         fill="#0f4f47"
         transform="translate(117,26)"
         id="path21" /><path
         d="M 0,0 C 1.98,0 3.96,0 6,0 6,0.99 6,1.98 6,3 4.02,3.33 2.04,3.66 0,4 0,2.68 0,1.36 0,0 Z"
         fill="#1d1e1a"
         transform="translate(49,54)"
         id="path22" /><path
         d="M 0,0 C 2.64,0 5.28,0 8,0 8,0.99 8,1.98 8,3 5.69,3 3.38,3 1,3 0.67,2.01 0.34,1.02 0,0 Z"
         fill="#076a5f"
         transform="translate(163,54)"
         id="path23" /></g><g
       id="g3"
       transform="matrix(0.26458333,0,0,0.26458333,-69.314118,153.58655)"
       style="display:inline"><path
         d="m 0,0 c 66,0 132,0 200,0 0,66 0,132 0,200 -66,0 -132,0 -200,0 C 0,134 0,68 0,0 Z"
         fill="#04a8f2"
         id="path1-5" /><path
         d="m 0,0 c 66,0 132,0 200,0 0,66 0,132 0,200 -66,0 -132,0 -200,0 C 0,134 0,68 0,0 Z m 16,10 c -1.65,1.65 -3.3,3.3 -5,5 -0.33,0.33 -0.66,0.66 -1,1 0,40.92 0,81.84 0,124 9.9,0 19.8,0 30,0 0.33,-13.53 0.66,-27.06 1,-41 0.66,-5.94 1.32,-11.88 2,-18 3.465,-13.365 3.465,-13.365 7,-27 2.64,-6.6 5.28,-13.2 8,-20 0.66,-0.99 1.32,-1.98 2,-3 0,-1.98 0,-3.96 0,-6 -0.99,-1.32 -1.98,-2.64 -3,-4 10.56,-0.33 21.12,-0.66 32,-1 -4.29,8.58 -8.58,17.16 -13,26 -0.33,0.99 -0.66,1.98 -1,3 -1.32,-1.98 -2.64,-3.96 -4,-6 -0.66,0 -1.32,0 -2,0 -1.32,3.63 -2.64,7.26 -4,11 -0.66,2.97 -1.32,5.94 -2,9 -0.66,3.96 -1.32,7.92 -2,12 0,12.87 0,25.74 0,39 0.99,5.94 1.98,11.88 3,18 0.66,2.64 1.32,5.28 2,8 40.92,0 81.84,0 124,0 0,-40.92 0,-81.84 0,-124 -1.65,-1.65 -3.3,-3.3 -5,-5 -0.33,-0.33 -0.66,-0.66 -1,-1 -55.44,0 -110.88,0 -168,0 z"
         fill="#212121"
         id="path2-89" /><path
         d="m 0,0 c 6.27,2.97 12.54,5.94 19,9 0,0.99 0,1.98 0,3 0.33,1.32 0.66,2.64 1,4 2.64,2.64 5.28,5.28 8,8 4.455,5.445 4.455,5.445 9,11 3.96,5.28 7.92,10.56 12,16 3.449462,6.295267 6.870034,12.604716 10.25,18.9375 0.340957,0.638166 0.681914,1.276333 1.033203,1.933838 C 61.8948,74.895486 63.489058,77.924153 65,81 c 0,0.99 0,1.98 0,3 -7.59,3.63 -15.18,7.26 -23,11 -0.99,0.33 -1.98,0.66 -3,1 C 38.01,88.575 38.01,88.575 37,81 35.68,75.39 34.36,69.78 33,64 29.535,55.585 29.535,55.585 26,47 22.7,41.39 19.4,35.78 16,30 13.69,27.36 11.38,24.72 9,22 7.02,22.99 7.02,22.99 5,24 4.01,24.33 3.02,24.66 2,25 1.34,18.73 0.68,12.46 0,6 0,4.02 0,2.04 0,0 Z"
         fill="#1f2020"
         transform="translate(112,37)"
         id="path3-0" /><path
         d="m 0,0 c 2.64,0 5.28,0 8,0 1.32,3.3 2.64,6.6 4,10 0.66,1.32 1.32,2.64 2,4 1.32,-3.96 2.64,-7.92 4,-12 0.66,-0.66 1.32,-1.32 2,-2 2.31,0 4.62,0 7,0 0,7.59 0,15.18 0,23 -1.65,0 -3.3,0 -5,0 -0.33,-4.95 -0.66,-9.9 -1,-15 -1.65,4.95 -3.3,9.9 -5,15 -1.65,0 -3.3,0 -5,0 C 9.35,18.38 7.7,13.76 6,9 5.67,13.62 5.34,18.24 5,23 3.35,23 1.7,23 0,23 0,15.41 0,7.82 0,0 Z"
         fill="#ffffff"
         transform="translate(12,153)"
         id="path4-0" /><path
         d="m 0,0 c 3.96,0 7.92,0 12,0 1.32,1.32 2.64,2.64 4,4 -0.33,2.31 -0.66,4.62 -1,7 -0.66,0.66 -1.32,1.32 -2,2 1.32,2.64 2.64,5.28 4,8 0,0.66 0,1.32 0,2 -1.65,0 -3.3,0 -5,0 C 10.68,20.36 9.36,17.72 8,15 7.01,14.67 6.02,14.34 5,14 5,16.97 5,19.94 5,23 3.35,23 1.7,23 0,23 0,15.41 0,7.82 0,0 Z"
         fill="#ffffff"
         transform="translate(172,153)"
         id="path5-52" /><path
         d="m 0,0 c 1.98,0 3.96,0 6,0 2.64,6.93 5.28,13.86 8,21 0,0.66 0,1.32 0,2 -1.65,0 -3.3,0 -5,0 C 8.34,21.68 7.68,20.36 7,19 4.03,18.67 1.06,18.34 -2,18 c -0.33,1.65 -0.66,3.3 -1,5 -1.65,0 -3.3,0 -5,0 2.31,-7.26 4.62,-14.52 7,-22 0.33,-0.33 0.66,-0.66 1,-1 z"
         fill="#ffffff"
         transform="translate(49,153)"
         id="path6-1" /><path
         d="m 0,0 c 1.98,0 3.96,0 6,0 2.64,4.95 5.28,9.9 8,15 0.33,-4.95 0.66,-9.9 1,-15 1.32,0 2.64,0 4,0 0,7.59 0,15.18 0,23 -1.65,0 -3.3,0 -5,0 C 11.525,19.04 11.525,19.04 9,15 7.68,12.36 6.36,9.72 5,7 4.67,12.28 4.34,17.56 4,23 2.68,23 1.36,23 0,23 0,15.41 0,7.82 0,0 Z"
         fill="#ffffff"
         transform="translate(66,153)"
         id="path7-38" /><path
         d="m 0,0 c 1.65,0 3.3,0 5,0 0.33,5.61 0.66,11.22 1,17 0.33,0.33 0.66,0.66 1,1 1.65,0 3.3,0 5,0 0.33,-0.33 0.66,-0.66 1,-1 0.33,-5.61 0.66,-11.22 1,-17 1.65,0 3.3,0 5,0 0,5.94 0,11.88 0,18 -1.32,1.32 -2.64,2.64 -4,4 -0.66,0.33 -1.32,0.66 -2,1 -2.31,0 -4.62,0 -7,0 C 4.35,22.01 2.7,21.02 1,20 0.67,19.34 0.34,18.68 0,18 0,12.06 0,6.12 0,0 Z"
         fill="#ffffff"
         transform="translate(108,153)"
         id="path8-8" /><path
         d="m 0,0 c 1.65,0 3.3,0 5,0 0.99,2.64 1.98,5.28 3,8 0.66,2.31 1.32,4.62 2,7 0.66,-1.32 1.32,-2.64 2,-4 0.99,-3.3 1.98,-6.6 3,-10 0.33,-0.33 0.66,-0.66 1,-1 1.65,0 3.3,0 5,0 -0.99,3.63 -1.98,7.26 -3,11 -1.65,3.96 -3.3,7.92 -5,12 -1.98,0 -3.96,0 -6,0 C 4.69,16.07 2.38,9.14 0,2 0,1.34 0,0.68 0,0 Z"
         fill="#ffffff"
         transform="translate(130,153)"
         id="path9-3" /><path
         d="m 0,0 c 4.29,0 8.58,0 13,0 0,1.32 0,2.64 0,4 -2.64,0 -5.28,0 -8,0 0,1.65 0,3.3 0,5 2.31,0 4.62,0 7,0 0,1.32 0,2.64 0,4 -2.31,0 -4.62,0 -7,0 0,1.98 0,3.96 0,6 2.64,0 5.28,0 8,0 0,1.32 0,2.64 0,4 C 8.71,23 4.42,23 0,23 0,15.41 0,7.82 0,0 Z"
         fill="#ffffff"
         transform="translate(154,153)"
         id="path10-2" /><path
         d="m 0,0 c 4.29,0 8.58,0 13,0 0,1.32 0,2.64 0,4 -2.64,0 -5.28,0 -8,0 0,1.65 0,3.3 0,5 2.31,0 4.62,0 7,0 0,1.32 0,2.64 0,4 -2.31,0 -4.62,0 -7,0 0,1.98 0,3.96 0,6 2.64,0 5.28,0 8,0 0,1.32 0,2.64 0,4 C 8.71,23 4.42,23 0,23 0,15.41 0,7.82 0,0 Z"
         fill="#ffffff"
         transform="translate(90,153)"
         id="path11-5" /><path
         d="M 0,0 C 0.33,0 0.66,0 1,0 1,2.97 1,5.94 1,9 -1.97,9 -4.94,9 -8,9 -6.35,7.68 -4.7,6.36 -3,5 -2.01,3.35 -1.02,1.7 0,0 Z"
         fill="#ffffff"
         transform="translate(199,191)"
         id="path12-6" /><path
         d="M 0,0 C 1.32,1.65 2.64,3.3 4,5 6.475,6.98 6.475,6.98 9,9 6.03,9 3.06,9 0,9 0,6.03 0,3.06 0,0 Z"
         fill="#ffffff"
         transform="translate(0,191)"
         id="path13-6" /><path
         d="M 0,0 C 2.97,0 5.94,0 9,0 9,2.97 9,5.94 9,9 7.68,7.35 6.36,5.7 5,4 3.35,2.68 1.7,1.36 0,0 Z"
         fill="#ffffff"
         transform="translate(191)"
         id="path14-0" /><path
         d="M 0,0 C 2.97,0 5.94,0 9,0 7.35,1.32 5.7,2.64 4,4 2.68,5.65 1.36,7.3 0,9 0,6.03 0,3.06 0,0 Z"
         fill="#ffffff"
         id="path15-0" /><path
         d="M 0,0 C 1.65,0 3.3,0 5,0 5.33,1.65 5.66,3.3 6,5 5.67,5.33 5.34,5.66 5,6 3.35,6 1.7,6 0,6 0,4.02 0,2.04 0,0 Z"
         fill="#222222"
         transform="translate(177,157)"
         id="path16-2" /><path
         d="M 0,0 C 0.66,0.99 1.32,1.98 2,3 2.66,5.31 3.32,7.62 4,10 2.02,10 0.04,10 -2,10 -1.34,6.7 -0.68,3.4 0,0 Z"
         fill="#222222"
         transform="translate(51,157)"
         id="path17-3" /><path
         d="M 0,0 C 0.33,0 0.66,0 1,0 1.33,1.98 1.66,3.96 2,6 2.99,6.33 3.98,6.66 5,7 4.01,7.99 3.02,8.98 2,10 1.34,10 0.68,10 0,10 0,6.7 0,3.4 0,0 Z"
         fill="#111517"
         transform="translate(114,52)"
         id="path18-3" /><path
         d="M 0,0 C 0.99,0.33 1.98,0.66 3,1 2.34,1.66 1.68,2.32 1,3 0.67,2.01 0.34,1.02 0,0 Z"
         fill="#282527"
         transform="translate(153,80)"
         id="path19-2" /><path
         d="M 0,0 C 0.99,0.33 1.98,0.66 3,1 2.34,1.66 1.68,2.32 1,3 0.67,2.01 0.34,1.02 0,0 Z"
         fill="#29282b"
         transform="translate(137,60)"
         id="path20-6" /></g><g
       id="g4"
       transform="matrix(0.26458333,0,0,0.26458333,41.766365,153.58655)"
       style="display:inline"><path
         d="m 0,0 c 66,0 132,0 200,0 0,66 0,132 0,200 -66,0 -132,0 -200,0 C 0,134 0,68 0,0 Z"
         fill="#212121"
         id="path1-4" /><path
         d="m 0,0 c 55.44,0 110.88,0 168,0 2,2 4,4 6,6 0,40.92 0,81.84 0,124 -25.41,0 -50.82,0 -77,0 0.99,-0.66 1.98,-1.32 3,-2 4.95,-2.64 9.9,-5.28 15,-8 1.32,-2.31 2.64,-4.62 4,-7 0.33,-2.97 0.66,-5.94 1,-9 -2.64,-1.32 -5.28,-2.64 -8,-4 -11.22,-0.33 -22.44,-0.66 -34,-1 0.99,-1.98 0.99,-1.98 2,-4 0.848525,0.0052 1.697051,0.01047 2.571289,0.01587 C 111.39097,95.166329 140.18806,94.634042 169,94 c 0,-1.32 0,-2.64 0,-4 -0.99,-0.33 -1.98,-0.66 -3,-1 -0.33,-0.66 -0.66,-1.32 -1,-2 -0.66,0 -1.32,0 -2,0 -0.33,0.66 -0.66,1.32 -1,2 -26.4,0 -52.8,0 -80,0 -1.98,-1.65 -3.96,-3.3 -6,-5 -1.98,-0.66 -3.96,-1.32 -6,-2 -5.61,-0.33 -11.22,-0.66 -17,-1 -0.66,-1.32 -1.32,-2.64 -2,-4 -3.96,0 -7.92,0 -12,0 -0.33,0.66 -0.66,1.32 -1,2 -0.66,0 -1.32,0 -2,0 0,-1.32 0,-2.64 0,-4 1.98,-0.495 1.98,-0.495 4,-1 5.94,-0.33 11.88,-0.66 18,-1 0,-0.66 0,-1.32 0,-2 -5.61,-0.33 -11.22,-0.66 -17,-1 -4.29,0 -8.58,0 -13,0 -1.98,0.495 -1.98,0.495 -4,1 0,0.66 0,1.32 0,2 1.98,-0.495 1.98,-0.495 4,-1 0.33,0.99 0.66,1.98 1,3 -5.94,0.495 -5.94,0.495 -12,1 -0.33,0.99 -0.66,1.98 -1,3 C 8.74,79 1.48,79 -6,79 -6,54.91 -6,30.82 -6,6 -4,4 -2,2 0,0 Z"
         fill="#9b26af"
         transform="translate(16,10)"
         id="path2-9" /><path
         d="m 0,0 c 2.64,0 5.28,0 8,0 2.475,1.485 2.475,1.485 5,3 0.66,1.32 1.32,2.64 2,4 0,2.64 0,5.28 0,8 -0.99,1.98 -1.98,3.96 -3,6 1.65,0.66 3.3,1.32 5,2 0,1.32 0,2.64 0,4 -1.65,-0.33 -3.3,-0.66 -5,-1 -0.99,-0.99 -1.98,-1.98 -3,-3 -2.97,0 -5.94,0 -9,0 -1.65,-0.99 -3.3,-1.98 -5,-3 -0.66,-1.32 -1.32,-2.64 -2,-4 0,-2.97 0,-5.94 0,-9 0.99,-1.65 1.98,-3.3 3,-5 1.32,-0.66 2.64,-1.32 4,-2 z"
         fill="#ffffff"
         transform="translate(42,153)"
         id="path3-3" /><path
         d="m 0,0 c 7.92,0 15.84,0 24,0 0.99,2.31 1.98,4.62 3,7 0.66,-0.66 1.32,-1.32 2,-2 0.66,-1.65 1.32,-3.3 2,-5 1.65,0 3.3,0 5,0 -0.33,1.65 -0.66,3.3 -1,5 -1.32,2.64 -2.64,5.28 -4,8 -0.33,3.3 -0.66,6.6 -1,10 -1.65,0 -3.3,0 -5,0 -0.495,-4.95 -0.495,-4.95 -1,-10 -2.475,-4.455 -2.475,-4.455 -5,-9 -2.31,0 -4.62,0 -7,0 0,6.27 0,12.54 0,19 -1.65,0 -3.3,0 -5,0 C 7,16.73 7,10.46 7,4 4.69,4 2.38,4 0,4 0,2.68 0,1.36 0,0 Z"
         fill="#ffffff"
         transform="translate(130,153)"
         id="path4-7" /><path
         d="m 0,0 c 1.98,0 3.96,0 6,0 2.64,6.93 5.28,13.86 8,21 0,0.66 0,1.32 0,2 -1.65,0 -3.3,0 -5,0 C 8.34,21.68 7.68,20.36 7,19 4.03,18.67 1.06,18.34 -2,18 c -0.33,1.65 -0.66,3.3 -1,5 -1.65,0 -3.3,0 -5,0 2.31,-7.26 4.62,-14.52 7,-22 0.33,-0.33 0.66,-0.66 1,-1 z"
         fill="#ffffff"
         transform="translate(90,153)"
         id="path5-8" /><path
         d="m 0,0 c 1.65,0 3.3,0 5,0 0.33,5.61 0.66,11.22 1,17 0.33,0.33 0.66,0.66 1,1 1.65,0 3.3,0 5,0 0.33,-0.33 0.66,-0.66 1,-1 0.33,-5.61 0.66,-11.22 1,-17 1.65,0 3.3,0 5,0 0,5.94 0,11.88 0,18 -1.32,1.32 -2.64,2.64 -4,4 -0.66,0.33 -1.32,0.66 -2,1 -2.31,0 -4.62,0 -7,0 C 4.35,22.01 2.7,21.02 1,20 0.67,19.34 0.34,18.68 0,18 0,12.06 0,6.12 0,0 Z"
         fill="#ffffff"
         transform="translate(62,153)"
         id="path6-2" /><path
         d="M 0,0 C 1.98,0 3.96,0 6,0 6.99,1.32 7.98,2.64 9,4 9,6.31 9,8.62 9,11 8.01,12.32 7.02,13.64 6,15 4.02,15 2.04,15 0,15 -0.99,13.68 -1.98,12.36 -3,11 -3,8.69 -3,6.38 -3,4 -2.01,2.68 -1.02,1.36 0,0 Z"
         fill="#222222"
         transform="translate(43,157)"
         id="path7-2" /><path
         d="m 0,0 c 1.65,0 3.3,0 5,0 0,6.27 0,12.54 0,19 2.64,0 5.28,0 8,0 0,1.32 0,2.64 0,4 C 8.71,23 4.42,23 0,23 0,15.41 0,7.82 0,0 Z"
         fill="#ffffff"
         transform="translate(107,153)"
         id="path8-1" /><path
         d="M 0,0 C 1.65,0 3.3,0 5,0 5,7.59 5,15.18 5,23 3.35,23 1.7,23 0,23 0,15.41 0,7.82 0,0 Z"
         fill="#ffffff"
         transform="translate(123,153)"
         id="path9-9" /><path
         d="m 0,0 c 11.88,0.66 23.76,1.32 36,2 0,0.33 0,0.66 0,1 C 24.12,3 12.24,3 0,3 0,2.01 0,1.02 0,0 Z"
         fill="#9c27b0"
         transform="translate(10,105)"
         id="path10-8" /><path
         d="M 0,0 C 2.31,0 4.62,0 7,0 7.99,1.32 8.98,2.64 10,4 6.04,4 2.08,4 -2,4 -1.34,2.68 -0.68,1.36 0,0 Z"
         fill="#9c27b0"
         transform="translate(96,133)"
         id="path11-9" /><path
         d="M 0,0 C 0.33,0 0.66,0 1,0 1,2.97 1,5.94 1,9 -1.97,9 -4.94,9 -8,9 -6.35,7.68 -4.7,6.36 -3,5 -2.01,3.35 -1.02,1.7 0,0 Z"
         fill="#ffffff"
         transform="translate(199,191)"
         id="path12-7" /><path
         d="M 0,0 C 1.32,1.65 2.64,3.3 4,5 6.475,6.98 6.475,6.98 9,9 6.03,9 3.06,9 0,9 0,6.03 0,3.06 0,0 Z"
         fill="#ffffff"
         transform="translate(0,191)"
         id="path13-5" /><path
         d="M 0,0 C 2.97,0 5.94,0 9,0 9,2.97 9,5.94 9,9 7.68,7.35 6.36,5.7 5,4 3.35,2.68 1.7,1.36 0,0 Z"
         fill="#ffffff"
         transform="translate(191)"
         id="path14-7" /><path
         d="M 0,0 C 2.97,0 5.94,0 9,0 7.35,1.32 5.7,2.64 4,4 2.68,5.65 1.36,7.3 0,9 0,6.03 0,3.06 0,0 Z"
         fill="#ffffff"
         id="path15-7" /><path
         d="M 0,0 C 0.66,0.99 1.32,1.98 2,3 2.66,5.31 3.32,7.62 4,10 2.02,10 0.04,10 -2,10 -1.34,6.7 -0.68,3.4 0,0 Z"
         fill="#222222"
         transform="translate(92,157)"
         id="path16-9" /><path
         d="M 0,0 C 1.32,0.33 2.64,0.66 4,1 4.66,1.99 5.32,2.98 6,4 3.36,4 0.72,4 -2,4 -1.34,2.68 -0.68,1.36 0,0 Z"
         fill="#9c27b0"
         transform="translate(57,133)"
         id="path17-5" /><path
         d="M 0,0 C 1.32,0.33 2.64,0.66 4,1 4.99,1.99 5.98,2.98 7,4 4.03,4 1.06,4 -2,4 -1.34,2.68 -0.68,1.36 0,0 Z"
         fill="#9c27b0"
         transform="translate(76,133)"
         id="path18-0" /><path
         d="M 0,0 C 2.475,0.99 2.475,0.99 5,2 5.33,2.66 5.66,3.32 6,4 3.03,4 0.06,4 -3,4 -2.01,2.68 -1.02,1.36 0,0 Z"
         fill="#9c27b0"
         transform="translate(18,133)"
         id="path19-7" /><path
         d="M 0,0 C 0.99,0 1.98,0 3,0 3.99,1.32 4.98,2.64 6,4 3.36,4 0.72,4 -2,4 -1.34,2.68 -0.68,1.36 0,0 Z"
         fill="#9c27b0"
         transform="translate(37,133)"
         id="path20-0" /></g><g
       id="g5"
       transform="matrix(0.26458333,0,0,0.26458333,41.766365,98.024052)"
       style="display:inline"><path
         d="m 0,0 c 66,0 132,0 200,0 0,66 0,132 0,200 -66,0 -132,0 -200,0 C 0,134 0,68 0,0 Z"
         fill="#222222"
         id="path1-9" /><path
         d="m 0,0 c 54.78,0 109.56,0 166,0 1.98,0.99 3.96,1.98 6,3 0.99,1.485 0.99,1.485 2,3 0,29.04 0,58.08 0,88 -0.99,0 -1.98,0 -3,0 0,0.99 0,1.98 0,3 -0.66,0 -1.32,0 -2,0 0,-0.99 0,-1.98 0,-3 -0.99,0 -1.98,0 -3,0 0,0.99 0,1.98 0,3 -0.66,0 -1.32,0 -2,0 0,-0.99 0,-1.98 0,-3 -0.99,0.33 -1.98,0.66 -3,1 -5.94,0 -11.88,0 -18,0 0,6.6 0,13.2 0,20 -4.62,0 -9.24,0 -14,0 0,1.98 0,3.96 0,6 1.32,0.33 2.64,0.66 4,1 -0.66,0.66 -1.32,1.32 -2,2 0.33,1.98 0.66,3.96 1,6 -8.25,0 -16.5,0 -25,0 0.495,-2.97 0.495,-2.97 1,-6 -0.66,-0.99 -1.32,-1.98 -2,-3 1.32,0 2.64,0 4,0 0,-1.98 0,-3.96 0,-6 -3.63,0 -7.26,0 -11,0 0,-2.31 0,-4.62 0,-7 0.66,0 1.32,0 2,0 0,-0.99 0,-1.98 0,-3 0.66,0 1.32,0 2,0 0,0.99 0,1.98 0,3 0.99,0 1.98,0 3,0 0,-0.99 0,-1.98 0,-3 0.66,0 1.32,0 2,0 0,0.99 0,1.98 0,3 0.99,0 1.98,0 3,0 0,-0.99 0,-1.98 0,-3 0.66,0 1.32,0 2,0 0,0.99 0,1.98 0,3 0.99,0 1.98,0 3,0 0,-0.99 0,-1.98 0,-3 0.66,0 1.32,0 2,0 0,0.99 0,1.98 0,3 0.99,0 1.98,0 3,0 0,-4.62 0,-9.24 0,-14 -0.99,0 -1.98,0 -3,0 0,0.99 0,1.98 0,3 -0.66,0 -1.32,0 -2,0 0,-0.99 0,-1.98 0,-3 -0.99,0 -1.98,0 -3,0 0,0.99 0,1.98 0,3 -0.66,0 -1.32,0 -2,0 0,-0.99 0,-1.98 0,-3 -0.99,0 -1.98,0 -3,0 0,0.99 0,1.98 0,3 -0.66,0 -1.32,0 -2,0 0,-0.99 0,-1.98 0,-3 -0.99,0 -1.98,0 -3,0 0,0.99 0,1.98 0,3 -0.66,0 -1.32,0 -2,0 0,-0.99 0,-1.98 0,-3 -1.485,0.495 -1.485,0.495 -3,1 -5.94,0 -11.88,0 -18,0 0,6.6 0,13.2 0,20 -4.62,0 -9.24,0 -14,0 0,1.98 0,3.96 0,6 1.98,0.495 1.98,0.495 4,1 -0.66,0.66 -1.32,1.32 -2,2 0.33,1.98 0.66,3.96 1,6 -8.25,0 -16.5,0 -25,0 0.495,-2.97 0.495,-2.97 1,-6 -0.66,-0.99 -1.32,-1.98 -2,-3 1.32,0 2.64,0 4,0 0,-1.98 0,-3.96 0,-6 -3.63,0 -7.26,0 -11,0 0,-2.31 0,-4.62 0,-7 0.66,0 1.32,0 2,0 0,-0.99 0,-1.98 0,-3 0.66,0 1.32,0 2,0 0,0.99 0,1.98 0,3 0.99,0 1.98,0 3,0 0,-0.99 0,-1.98 0,-3 0.66,0 1.32,0 2,0 0,0.99 0,1.98 0,3 0.99,0 1.98,0 3,0 0,-0.99 0,-1.98 0,-3 0.66,0 1.32,0 2,0 0,0.99 0,1.98 0,3 0.99,0 1.98,0 3,0 0,-0.99 0,-1.98 0,-3 0.66,0 1.32,0 2,0 0,0.99 0,1.98 0,3 0.99,0 1.98,0 3,0 0,-4.62 0,-9.24 0,-14 -0.99,0 -1.98,0 -3,0 0,0.99 0,1.98 0,3 -0.66,0 -1.32,0 -2,0 0,-0.99 0,-1.98 0,-3 -0.99,0 -1.98,0 -3,0 0,0.99 0,1.98 0,3 -0.66,0 -1.32,0 -2,0 0,-0.99 0,-1.98 0,-3 -0.99,0 -1.98,0 -3,0 0,0.99 0,1.98 0,3 -0.66,0 -1.32,0 -2,0 0,-0.99 0,-1.98 0,-3 -0.99,0 -1.98,0 -3,0 0,0.99 0,1.98 0,3 -0.66,0 -1.32,0 -2,0 0,-0.99 0,-1.98 0,-3 -0.99,0.33 -1.98,0.66 -3,1 -5.94,0 -11.88,0 -18,0 0,6.6 0,13.2 0,20 -4.62,0 -9.24,0 -14,0 0,1.98 0,3.96 0,6 1.32,0.33 2.64,0.66 4,1 -0.99,0.99 -0.99,0.99 -2,2 0.33,1.98 0.66,3.96 1,6 -3.96,0 -7.92,0 -12,0 C -6,89.08 -6,48.16 -6,6 -4,4 -2,2 0,0 Z"
         fill="#8ac249"
         transform="translate(16,10)"
         id="path2-90" /><path
         d="m 0,0 c 2.64,0 5.28,0 8,0 2.475,1.485 2.475,1.485 5,3 0.66,1.32 1.32,2.64 2,4 0,2.64 0,5.28 0,8 -0.99,1.98 -1.98,3.96 -3,6 1.65,0.66 3.3,1.32 5,2 0,1.32 0,2.64 0,4 -1.65,-0.33 -3.3,-0.66 -5,-1 -0.99,-0.99 -1.98,-1.98 -3,-3 -2.97,0 -5.94,0 -9,0 -1.65,-0.99 -3.3,-1.98 -5,-3 -0.66,-1.32 -1.32,-2.64 -2,-4 0,-2.97 0,-5.94 0,-9 0.99,-1.65 1.98,-3.3 3,-5 1.32,-0.66 2.64,-1.32 4,-2 z"
         fill="#ffffff"
         transform="translate(29,153)"
         id="path3-5" /><path
         d="m 0,0 c 7.92,0 15.84,0 24,0 0.99,2.31 1.98,4.62 3,7 0.66,-0.66 1.32,-1.32 2,-2 0.66,-1.65 1.32,-3.3 2,-5 1.65,0 3.3,0 5,0 -0.33,1.65 -0.66,3.3 -1,5 -1.32,2.64 -2.64,5.28 -4,8 -0.33,3.3 -0.66,6.6 -1,10 -1.65,0 -3.3,0 -5,0 -0.495,-4.95 -0.495,-4.95 -1,-10 -2.475,-4.455 -2.475,-4.455 -5,-9 -2.31,0 -4.62,0 -7,0 0,6.27 0,12.54 0,19 -1.65,0 -3.3,0 -5,0 C 7,16.73 7,10.46 7,4 4.69,4 2.38,4 0,4 0,2.68 0,1.36 0,0 Z"
         fill="#ffffff"
         transform="translate(143,153)"
         id="path4-01" /><path
         d="m 0,0 c 1.98,0 3.96,0 6,0 2.64,6.93 5.28,13.86 8,21 0,0.66 0,1.32 0,2 -1.65,0 -3.3,0 -5,0 C 8.34,21.68 7.68,20.36 7,19 4.03,18.67 1.06,18.34 -2,18 c -0.33,1.65 -0.66,3.3 -1,5 -1.65,0 -3.3,0 -5,0 2.31,-7.26 4.62,-14.52 7,-22 0.33,-0.33 0.66,-0.66 1,-1 z"
         fill="#ffffff"
         transform="translate(77,153)"
         id="path5-9" /><path
         d="m 0,0 c 1.98,0 3.96,0 6,0 2.64,4.95 5.28,9.9 8,15 0.33,-4.95 0.66,-9.9 1,-15 1.32,0 2.64,0 4,0 0,7.59 0,15.18 0,23 -1.65,0 -3.3,0 -5,0 C 11.525,19.04 11.525,19.04 9,15 7.68,12.36 6.36,9.72 5,7 4.67,12.28 4.34,17.56 4,23 2.68,23 1.36,23 0,23 0,15.41 0,7.82 0,0 Z"
         fill="#ffffff"
         transform="translate(94,153)"
         id="path6-8" /><path
         d="m 0,0 c 1.65,0 3.3,0 5,0 0.33,5.61 0.66,11.22 1,17 0.33,0.33 0.66,0.66 1,1 1.65,0 3.3,0 5,0 0.33,-0.33 0.66,-0.66 1,-1 0.33,-5.61 0.66,-11.22 1,-17 1.65,0 3.3,0 5,0 0,5.94 0,11.88 0,18 -1.32,1.32 -2.64,2.64 -4,4 -0.66,0.33 -1.32,0.66 -2,1 -2.31,0 -4.62,0 -7,0 C 4.35,22.01 2.7,21.02 1,20 0.67,19.34 0.34,18.68 0,18 0,12.06 0,6.12 0,0 Z"
         fill="#ffffff"
         transform="translate(49,153)"
         id="path7-1" /><path
         d="m 0,0 c 6.27,0 12.54,0 19,0 0,1.32 0,2.64 0,4 -2.31,0 -4.62,0 -7,0 0,6.27 0,12.54 0,19 -1.65,0 -3.3,0 -5,0 C 7,16.73 7,10.46 7,4 4.69,4 2.38,4 0,4 0,2.68 0,1.36 0,0 Z"
         fill="#ffffff"
         transform="translate(115,153)"
         id="path8-4" /><path
         d="M 0,0 C 1.98,0 3.96,0 6,0 6.99,1.32 7.98,2.64 9,4 9,6.31 9,8.62 9,11 8.01,12.32 7.02,13.64 6,15 4.02,15 2.04,15 0,15 -0.99,13.68 -1.98,12.36 -3,11 -3,8.69 -3,6.38 -3,4 -2.01,2.68 -1.02,1.36 0,0 Z"
         fill="#222222"
         transform="translate(30,157)"
         id="path9-72" /><path
         d="M 0,0 C 0.66,0 1.32,0 2,0 2,0.99 2,1.98 2,3 2.99,3 3.98,3 5,3 5,2.01 5,1.02 5,0 c 0.66,0 1.32,0 2,0 0,0.99 0,1.98 0,3 0.99,0 1.98,0 3,0 0,7.26 0,14.52 0,22 C 8.68,24.67 7.36,24.34 6,24 6.33,22.35 6.66,20.7 7,19 6.34,18.01 5.68,17.02 5,16 c 1.32,0 2.64,0 4,0 0,-1.98 0,-3.96 0,-6 -3.63,0 -7.26,0 -11,0 0,-2.31 0,-4.62 0,-7 0.66,0 1.32,0 2,0 C 0,2.01 0,1.02 0,0 Z"
         fill="#8bc34a"
         transform="translate(180,115)"
         id="path10-1" /><path
         d="M 0,0 C 1.65,0 3.3,0 5,0 5,7.59 5,15.18 5,23 3.35,23 1.7,23 0,23 0,15.41 0,7.82 0,0 Z"
         fill="#ffffff"
         transform="translate(136,153)"
         id="path11-4" /><path
         d="m 0,0 c 3.96,0 7.92,0 12,0 -0.99,1.485 -0.99,1.485 -2,3 0.33,1.98 0.66,3.96 1,6 C 7.7,9 4.4,9 1,9 1.33,7.02 1.66,5.04 2,3 1.34,2.01 0.68,1.02 0,0 Z"
         fill="#8bc34a"
         transform="translate(161,131)"
         id="path12-1" /><path
         d="m 0,0 c 3.96,0 7.92,0 12,0 -0.99,1.485 -0.99,1.485 -2,3 0.33,1.98 0.66,3.96 1,6 C 7.7,9 4.4,9 1,9 1.33,7.02 1.66,5.04 2,3 1.34,2.01 0.68,1.02 0,0 Z"
         fill="#8bc34a"
         transform="translate(98,131)"
         id="path13-62" /><path
         d="m 0,0 c 3.96,0 7.92,0 12,0 -0.99,1.485 -0.99,1.485 -2,3 0.33,1.98 0.66,3.96 1,6 C 7.7,9 4.4,9 1,9 1.33,7.02 1.66,5.04 2,3 1.34,2.01 0.68,1.02 0,0 Z"
         fill="#8bc34a"
         transform="translate(35,131)"
         id="path14-75" /><path
         d="M 0,0 C 0.33,0 0.66,0 1,0 1,2.97 1,5.94 1,9 -1.97,9 -4.94,9 -8,9 -6.35,7.68 -4.7,6.36 -3,5 -2.01,3.35 -1.02,1.7 0,0 Z"
         fill="#ffffff"
         transform="translate(199,191)"
         id="path15-5" /><path
         d="M 0,0 C 1.32,1.65 2.64,3.3 4,5 6.475,6.98 6.475,6.98 9,9 6.03,9 3.06,9 0,9 0,6.03 0,3.06 0,0 Z"
         fill="#ffffff"
         transform="translate(0,191)"
         id="path16-5" /><path
         d="M 0,0 C 2.64,0 5.28,0 8,0 7.01,1.485 7.01,1.485 6,3 6.33,4.98 6.66,6.96 7,9 5.02,9 3.04,9 1,9 1.33,7.02 1.66,5.04 2,3 1.34,2.01 0.68,1.02 0,0 Z"
         fill="#8bc34a"
         transform="translate(175,131)"
         id="path17-6" /><path
         d="M 0,0 C 2.64,0 5.28,0 8,0 7.01,1.485 7.01,1.485 6,3 6.33,4.98 6.66,6.96 7,9 5.02,9 3.04,9 1,9 1.33,7.02 1.66,5.04 2,3 1.34,2.01 0.68,1.02 0,0 Z"
         fill="#8bc34a"
         transform="translate(151,131)"
         id="path18-9" /><path
         d="M 0,0 C 2.64,0 5.28,0 8,0 7.01,1.485 7.01,1.485 6,3 6.33,4.98 6.66,6.96 7,9 5.02,9 3.04,9 1,9 1.33,7.02 1.66,5.04 2,3 1.34,2.01 0.68,1.02 0,0 Z"
         fill="#8bc34a"
         transform="translate(112,131)"
         id="path19-0" /><path
         d="M 0,0 C 2.64,0 5.28,0 8,0 7.01,1.485 7.01,1.485 6,3 6.33,4.98 6.66,6.96 7,9 5.02,9 3.04,9 1,9 1.33,7.02 1.66,5.04 2,3 1.34,2.01 0.68,1.02 0,0 Z"
         fill="#8bc34a"
         transform="translate(88,131)"
         id="path20-5" /><path
         d="M 0,0 C 2.64,0 5.28,0 8,0 7.01,1.485 7.01,1.485 6,3 6.33,4.98 6.66,6.96 7,9 5.02,9 3.04,9 1,9 1.33,7.02 1.66,5.04 2,3 1.34,2.01 0.68,1.02 0,0 Z"
         fill="#8bc34a"
         transform="translate(49,131)"
         id="path21-3" /><path
         d="M 0,0 C 2.64,0 5.28,0 8,0 7.01,1.485 7.01,1.485 6,3 6.33,4.98 6.66,6.96 7,9 5.02,9 3.04,9 1,9 1.33,7.02 1.66,5.04 2,3 1.34,2.01 0.68,1.02 0,0 Z"
         fill="#8bc34a"
         transform="translate(25,131)"
         id="path22-9" /><path
         d="M 0,0 C 2.97,0 5.94,0 9,0 9,2.97 9,5.94 9,9 7.68,7.35 6.36,5.7 5,4 3.35,2.68 1.7,1.36 0,0 Z"
         fill="#ffffff"
         transform="translate(191)"
         id="path23-2" /><path
         d="M 0,0 C 2.97,0 5.94,0 9,0 7.35,1.32 5.7,2.64 4,4 2.68,5.65 1.36,7.3 0,9 0,6.03 0,3.06 0,0 Z"
         fill="#ffffff"
         id="path24" /><path
         d="M 0,0 C 0.66,0.99 1.32,1.98 2,3 2.66,5.31 3.32,7.62 4,10 2.02,10 0.04,10 -2,10 -1.34,6.7 -0.68,3.4 0,0 Z"
         fill="#222222"
         transform="translate(79,157)"
         id="path25" /></g><g
       id="g6"
       transform="matrix(0.26458333,0,0,0.26458333,-13.594865,153.72196)"
       style="display:inline"><path
         d="m 0,0 c 66,0 132,0 200,0 0,66 0,132 0,200 -66,0 -132,0 -200,0 C 0,134 0,68 0,0 Z"
         fill="#3f50b4"
         id="path1-94" /><path
         d="m 0,0 c 66,0 132,0 200,0 0,66 0,132 0,200 -66,0 -132,0 -200,0 C 0,134 0,68 0,0 Z m 16,10 c -1.65,1.65 -3.3,3.3 -5,5 -0.33,0.33 -0.66,0.66 -1,1 0,40.92 0,81.84 0,124 59.4,0 118.8,0 180,0 0,-40.92 0,-81.84 0,-124 -1.65,-1.65 -3.3,-3.3 -5,-5 -0.33,-0.33 -0.66,-0.66 -1,-1 -55.44,0 -110.88,0 -168,0 z"
         fill="#212121"
         id="path2-3" /><path
         d="m 0,0 c 3.63,0.99 7.26,1.98 11,3 0.99,0.66 1.98,1.32 3,2 -2.31,3.63 -4.62,7.26 -7,11 0,2.31 0,4.62 0,7 0.66,0.33 1.32,0.66 2,1 2.31,0 4.62,0 7,0 2.64,-1.32 5.28,-2.64 8,-4 1.98,-2.31 3.96,-4.62 6,-7 1.98,-0.33 3.96,-0.66 6,-1 8.91,4.95 8.91,4.95 18,10 5.61,3.96 11.22,7.92 17,12 4.95,4.455 4.95,4.455 10,9 0,1.65 0,3.3 0,5 -0.33,0.33 -0.66,0.66 -1,1 -1.98,0 -3.96,0 -6,0 -9.9,-5.94 -9.9,-5.94 -20,-12 -1.32,0.33 -2.64,0.66 -4,1 0,0.66 0,1.32 0,2 1.65,0.66 3.3,1.32 5,2 5.28,3.3 10.56,6.6 16,10 -0.33,1.65 -0.66,3.3 -1,5 -0.33,0.33 -0.66,0.66 -1,1 -2.31,-0.33 -4.62,-0.66 -7,-1 -4.95,-2.97 -9.9,-5.94 -15,-9 -0.99,-0.33 -1.98,-0.66 -3,-1 0.66,1.65 1.32,3.3 2,5 5.28,2.97 10.56,5.94 16,9 -0.66,1.65 -1.32,3.3 -2,5 -2.31,0 -4.62,0 -7,0 -3.96,-1.98 -7.92,-3.96 -12,-6 -0.99,0 -1.98,0 -3,0 0.33,0.99 0.66,1.98 1,3 3.96,1.98 7.92,3.96 12,6 -0.495,1.485 -0.495,1.485 -1,3 -0.99,0.495 -0.99,0.495 -2,1 -2.97,0 -5.94,0 -9,0 -2.31,-0.66 -4.62,-1.32 -7,-2 0.33,-0.66 0.66,-1.32 1,-2 0,-2.31 0,-4.62 0,-7 -1.65,-1.65 -3.3,-3.3 -5,-5 -0.99,-0.495 -0.99,-0.495 -2,-1 -0.99,-2.31 -1.98,-4.62 -3,-7 -1.98,-0.99 -3.96,-1.98 -6,-3 -0.66,-1.98 -1.32,-3.96 -2,-6 -1.32,-0.99 -2.64,-1.98 -4,-3 -3.465,0.495 -3.465,0.495 -7,1 -0.99,0.66 -1.98,1.32 -3,2 -1.65,-1.32 -3.3,-2.64 -5,-4 -4.455,0.495 -4.455,0.495 -9,1 -1.32,-1.65 -2.64,-3.3 -4,-5 0.66,-1.65 1.32,-3.3 2,-5 4.95,-8.91 9.9,-17.82 15,-27 z"
         fill="#1e1e1e"
         transform="translate(63,52)"
         id="path3-58" /><path
         d="m 0,0 c 6.93,0 13.86,0 21,0 2.64,0.66 5.28,1.32 8,2 3.96,0 7.92,0 12,0 5.827669,9.907037 11.550716,19.879901 17,30 -0.66,1.32 -1.32,2.64 -2,4 -1.32,1.32 -2.64,2.64 -4,4 C 50.35,39.67 48.7,39.34 47,39 41.39,34.71 35.78,30.42 30,26 25.05,23.03 20.1,20.06 15,17 11.7,15.35 8.4,13.7 5,12 c -2.64,0.33 -5.28,0.66 -8,1 -1.65,1.65 -3.3,3.3 -5,5 -1.65,1.32 -3.3,2.64 -5,4 -2.97,0.33 -5.94,0.66 -9,1 0.66,-1.98 1.32,-3.96 2,-6 3.3,-4.62 6.6,-9.24 10,-14 1.32,-0.66 2.64,-1.32 4,-2 1.98,-0.33 3.96,-0.66 6,-1 z"
         fill="#1e1e1e"
         transform="translate(95,49)"
         id="path4-2" /><path
         d="M 0,0 C 1.65,0.66 3.3,1.32 5,2 6.98,3.32 8.96,4.64 11,6 10.652437,6.6352661 10.304873,7.2705322 9.9467773,7.9250488 5.8098839,15.496665 1.7122406,23.088987 -2.375,30.6875 -3.0221071,31.889989 -3.6692423,33.092463 -4.3164062,34.294922 -5.87788,37.196466 -7.4390728,40.098161 -9,43 c -1.32,1.32 -2.64,2.64 -4,4 -2.97,-1.98 -5.94,-3.96 -9,-6 0.99,-2.97 0.99,-2.97 2,-6 C -5.9242343,10.017342 -5.9242343,10.017342 0,0 Z"
         fill="#1d1d1d"
         transform="translate(52,38)"
         id="path5-2" /><path
         d="M 0,0 C 0.99,0.33 1.98,0.66 3,1 3.3519141,1.6537158 3.7038281,2.3074316 4.0664062,2.980957 10.577215,15.065477 17.088057,27.139022 24,39 c -0.66,1.32 -1.32,2.64 -2,4 -3.96,1.98 -3.96,1.98 -8,4 C 6.1369033,33.776508 -1.4643021,20.412404 -9,7 -7.68,5.68 -6.36,4.36 -5,3 -3.35,2.01 -1.7,1.02 0,0 Z"
         fill="#1d1d1d"
         transform="translate(146,38)"
         id="path6-9" /><path
         d="m 0,0 c 2.64,0 5.28,0 8,0 2.475,1.485 2.475,1.485 5,3 0.66,1.32 1.32,2.64 2,4 0,2.64 0,5.28 0,8 -0.99,1.65 -1.98,3.3 -3,5 -1.32,0.99 -2.64,1.98 -4,3 -2.64,0 -5.28,0 -8,0 -1.65,-0.99 -3.3,-1.98 -5,-3 -0.66,-1.32 -1.32,-2.64 -2,-4 0,-2.64 0,-5.28 0,-8 0.99,-1.65 1.98,-3.3 3,-5 1.32,-0.99 2.64,-1.98 4,-3 z"
         fill="#ffffff"
         transform="translate(80,153)"
         id="path7-5" /><path
         d="m 0,0 c 2.64,0 5.28,0 8,0 1.32,3.3 2.64,6.6 4,10 0.66,1.32 1.32,2.64 2,4 1.32,-3.96 2.64,-7.92 4,-12 0.66,-0.66 1.32,-1.32 2,-2 2.31,0 4.62,0 7,0 0,7.59 0,15.18 0,23 -1.65,0 -3.3,0 -5,0 -0.33,-4.95 -0.66,-9.9 -1,-15 -1.65,4.95 -3.3,9.9 -5,15 -1.65,0 -3.3,0 -5,0 C 9.35,18.38 7.7,13.76 6,9 5.67,13.62 5.34,18.24 5,23 3.35,23 1.7,23 0,23 0,15.41 0,7.82 0,0 Z"
         fill="#ffffff"
         transform="translate(100,153)"
         id="path8-2" /><path
         d="m 0,0 c 3.96,0 7.92,0 12,0 1.65,0.99 3.3,1.98 5,3 0.66,1.32 1.32,2.64 2,4 0,2.97 0,5.94 0,9 -0.99,1.65 -1.98,3.3 -3,5 -1.65,0.66 -3.3,1.32 -5,2 C 7.37,23 3.74,23 0,23 0,15.41 0,7.82 0,0 Z"
         fill="#ffffff"
         transform="translate(7,153)"
         id="path9-0" /><path
         d="m 0,0 c 1.98,0 3.96,0 6,0 2.64,6.93 5.28,13.86 8,21 0,0.66 0,1.32 0,2 -1.65,0 -3.3,0 -5,0 C 8.34,21.68 7.68,20.36 7,19 4.03,18.67 1.06,18.34 -2,18 c -0.33,1.65 -0.66,3.3 -1,5 -1.65,0 -3.3,0 -5,0 2.31,-7.26 4.62,-14.52 7,-22 0.33,-0.33 0.66,-0.66 1,-1 z"
         fill="#ffffff"
         transform="translate(137,153)"
         id="path10-81" /><path
         d="m 0,0 c 3.63,0 7.26,0 11,0 1.65,1.32 3.3,2.64 5,4 0,1.98 0,3.96 0,6 -1.65,1.65 -3.3,3.3 -5,5 -1.98,0 -3.96,0 -6,0 0,2.64 0,5.28 0,8 C 3.35,23 1.7,23 0,23 0,15.41 0,7.82 0,0 Z"
         fill="#ffffff"
         transform="translate(40,153)"
         id="path11-7" /><path
         d="m 0,0 c 2.31,0 4.62,0 7,0 0.99,0.66 1.98,1.32 3,2 0,1.32 0,2.64 0,4 C 7.03,5.67 4.06,5.34 1,5 0.01,6.485 0.01,6.485 -1,8 c 0,2.31 0,4.62 0,7 0.99,1.485 0.99,1.485 2,3 1.98,0 3.96,0 6,0 0.99,-0.33 1.98,-0.66 3,-1 -0.33,1.65 -0.66,3.3 -1,5 -0.66,0.33 -1.32,0.66 -2,1 -2.31,0 -4.62,0 -7,0 -1.65,-0.99 -3.3,-1.98 -5,-3 -0.66,-1.32 -1.32,-2.64 -2,-4 0,-2.64 0,-5.28 0,-8 0.99,-1.65 1.98,-3.3 3,-5 1.32,-0.99 2.64,-1.98 4,-3 z"
         fill="#ffffff"
         transform="translate(184,153)"
         id="path12-0" /><path
         d="M 0,0 C 1.65,0 3.3,0 5,0 5.66,0.66 6.32,1.32 7,2 6.67,3.98 6.34,5.96 6,8 3.03,11.96 0.06,15.92 -3,20 -4.98,19.67 -6.96,19.34 -9,19 -9.33,17.35 -9.66,15.7 -10,14 -6.7,9.38 -3.4,4.76 0,0 Z"
         fill="#1b1b1b"
         transform="translate(69,93)"
         id="path13-1" /><path
         d="m 0,0 c 6.27,0 12.54,0 19,0 0,1.32 0,2.64 0,4 -2.31,0 -4.62,0 -7,0 0,6.27 0,12.54 0,19 -1.65,0 -3.3,0 -5,0 C 7,16.73 7,10.46 7,4 4.69,4 2.38,4 0,4 0,2.68 0,1.36 0,0 Z"
         fill="#ffffff"
         transform="translate(148,153)"
         id="path14-9" /><path
         d="M 0,0 C 1.98,0 3.96,0 6,0 6.99,1.32 7.98,2.64 9,4 9,6.31 9,8.62 9,11 8.01,12.32 7.02,13.64 6,15 4.02,15 2.04,15 0,15 -0.99,13.68 -1.98,12.36 -3,11 -3,8.69 -3,6.38 -3,4 -2.01,2.68 -1.02,1.36 0,0 Z"
         fill="#222222"
         transform="translate(81,157)"
         id="path15-06" /><path
         d="m 0,0 c 1.65,0 3.3,0 5,0 0,6.27 0,12.54 0,19 2.64,0 5.28,0 8,0 0,1.32 0,2.64 0,4 C 8.71,23 4.42,23 0,23 0,15.41 0,7.82 0,0 Z"
         fill="#ffffff"
         transform="translate(60,153)"
         id="path16-1" /><path
         d="m 0,0 c 1.65,0.33 3.3,0.66 5,1 0.33,0.33 0.66,0.66 1,1 0,1.65 0,3.3 0,5 -2.64,3.3 -5.28,6.6 -8,10 -1.65,0 -3.3,0 -5,0 -0.33,-0.33 -0.66,-0.66 -1,-1 0,-1.98 0,-3.96 0,-6 2.64,-3.3 5.28,-6.6 8,-10 z"
         fill="#1a1a1a"
         transform="translate(78,103)"
         id="path17-61" /><path
         d="M 0,0 C 2.31,0.33 4.62,0.66 7,1 7.66,1.99 8.32,2.98 9,4 9,6.31 9,8.62 9,11 7.68,12.32 6.36,13.64 5,15 3.35,15 1.7,15 0,15 0,10.05 0,5.1 0,0 Z"
         fill="#222222"
         transform="translate(12,157)"
         id="path18-1" /><path
         d="m 0,0 c 4.62,2.31 9.24,4.62 14,7 -0.33,0.99 -0.66,1.98 -1,3 -0.99,0.495 -0.99,0.495 -2,1 C 8.03,11 5.06,11 2,11 -0.31,10.34 -2.62,9.68 -5,9 -4.01,6.69 -3.02,4.38 -2,2 -1.34,2 -0.68,2 0,2 0,1.34 0,0.68 0,0 Z"
         fill="#181818"
         transform="translate(100,114)"
         id="path19-5" /><path
         d="M 0,0 C 1.65,0 3.3,0 5,0 5,7.59 5,15.18 5,23 3.35,23 1.7,23 0,23 0,15.41 0,7.82 0,0 Z"
         fill="#ffffff"
         transform="translate(169,153)"
         id="path20-65" /><path
         d="M 0,0 C 1.65,0 3.3,0 5,0 5,7.59 5,15.18 5,23 3.35,23 1.7,23 0,23 0,15.41 0,7.82 0,0 Z"
         fill="#ffffff"
         transform="translate(30,153)"
         id="path21-0" /><path
         d="M 0,0 C 1.65,0 3.3,0 5,0 5.66,0.66 6.32,1.32 7,2 6.67,3.98 6.34,5.96 6,8 4.35,9.98 2.7,11.96 1,14 -0.65,13.67 -2.3,13.34 -4,13 -4.33,11.02 -4.66,9.04 -5,7 -3.35,4.69 -1.7,2.38 0,0 Z"
         fill="#191919"
         transform="translate(86,113)"
         id="path22-3" /><path
         d="M 0,0 C 1.32,0.33 2.64,0.66 4,1 4.66,1.66 5.32,2.32 6,3 5.67,4.65 5.34,6.3 5,8 4.01,9.32 3.02,10.64 2,12 0.35,11.67 -1.3,11.34 -3,11 -3.33,10.67 -3.66,10.34 -4,10 -4,8.35 -4,6.7 -4,5 -2.68,3.35 -1.36,1.7 0,0 Z"
         fill="#1a1a1a"
         transform="translate(55,91)"
         id="path23-3" /><path
         d="M 0,0 C 1.65,0 3.3,0 5,0 5.33,1.65 5.66,3.3 6,5 5.34,5.66 4.68,6.32 4,7 2.68,7 1.36,7 0,7 0,4.69 0,2.38 0,0 Z"
         fill="#222222"
         transform="translate(45,157)"
         id="path24-1" /><path
         d="M 0,0 C 0.33,0 0.66,0 1,0 1,2.97 1,5.94 1,9 -1.97,9 -4.94,9 -8,9 -6.35,7.68 -4.7,6.36 -3,5 -2.01,3.35 -1.02,1.7 0,0 Z"
         fill="#ffffff"
         transform="translate(199,191)"
         id="path25-6" /><path
         d="M 0,0 C 1.32,1.65 2.64,3.3 4,5 6.475,6.98 6.475,6.98 9,9 6.03,9 3.06,9 0,9 0,6.03 0,3.06 0,0 Z"
         fill="#ffffff"
         transform="translate(0,191)"
         id="path26" /><path
         d="M 0,0 C 2.97,0 5.94,0 9,0 9,2.97 9,5.94 9,9 7.68,7.35 6.36,5.7 5,4 3.35,2.68 1.7,1.36 0,0 Z"
         fill="#ffffff"
         transform="translate(191)"
         id="path27" /><path
         d="M 0,0 C 2.97,0 5.94,0 9,0 7.35,1.32 5.7,2.64 4,4 2.68,5.65 1.36,7.3 0,9 0,6.03 0,3.06 0,0 Z"
         fill="#ffffff"
         id="path28" /><path
         d="M 0,0 C 0.66,0.99 1.32,1.98 2,3 2.66,5.31 3.32,7.62 4,10 2.02,10 0.04,10 -2,10 -1.34,6.7 -0.68,3.4 0,0 Z"
         fill="#222222"
         transform="translate(139,157)"
         id="path29" /><path
         d="M 0,0 C 1.32,0.66 2.64,1.32 4,2 1.69,3.65 -0.62,5.3 -3,7 -2.34,5.35 -1.68,3.7 -1,2 -0.67,1.34 -0.34,0.68 0,0 Z"
         fill="#0d0d0d"
         transform="translate(63,52)"
         id="path30" /><path
         d="M 0,0 C 0.99,0.33 1.98,0.66 3,1 2.34,1.66 1.68,2.32 1,3 0.67,2.01 0.34,1.02 0,0 Z"
         fill="#242424"
         transform="translate(70,117)"
         id="path31" /></g><g
       id="g7"
       transform="matrix(0.26458333,0,0,0.26458333,-13.594865,98.25902)"
       style="display:inline"><path
         d="m 0,0 c 66,0 132,0 200,0 0,66 0,132 0,200 -66,0 -132,0 -200,0 C 0,134 0,68 0,0 Z"
         fill="#feea3a"
         id="path1-8"
         style="display:inline" /><path
         d="m 0,0 c 66,0 132,0 200,0 0,66 0,132 0,200 -66,0 -132,0 -200,0 C 0,134 0,68 0,0 Z m 16,10 c -1.65,1.65 -3.3,3.3 -5,5 -0.33,0.33 -0.66,0.66 -1,1 0,40.92 0,81.84 0,124 59.4,0 118.8,0 180,0 0,-40.92 0,-81.84 0,-124 -1.65,-1.65 -3.3,-3.3 -5,-5 -0.99,-0.33 -1.98,-0.66 -3,-1 -54.78,0 -109.56,0 -166,0 z"
         fill="#222121"
         id="path2-2" /><path
         d="m 0,0 c 1.65,0.33 3.3,0.66 5,1 2.31,2.64 4.62,5.28 7,8 1.687793,2.145603 3.375238,4.291479 5.0625,6.4375 0.698994,0.888486 0.698994,0.888486 1.412109,1.794922 C 22.333817,22.141753 26.16603,27.07061 30,32 c 33.66,0.33 67.32,0.66 102,1 1.98,1.65 3.96,3.3 6,5 0,0.99 0,1.98 0,3 -2.64,0.99 -5.28,1.98 -8,3 -3.465,0.495 -3.465,0.495 -7,1 -9.9,0 -19.8,0 -30,0 0,0.99 0,1.98 0,3 -8.91,0 -17.82,0 -27,0 0,-0.99 0,-1.98 0,-3 -6.27,0 -12.54,0 -19,0 -15.51,-1.65 -31.02,-3.3 -47,-5 -0.66,-0.66 -1.32,-1.32 -2,-2 0,-1.65 0,-3.3 0,-5 2.97,0 5.94,0 9,0 C 4.69,23.43 2.38,13.86 0,4 0,2.68 0,1.36 0,0 Z"
         fill="#222222"
         transform="translate(32,21)"
         id="path3-2"
         style="display:inline" /><path
         d="m 0,0 c 3.96,0 7.92,0 12,0 1.32,1.32 2.64,2.64 4,4 -0.33,2.31 -0.66,4.62 -1,7 -0.66,0.66 -1.32,1.32 -2,2 1.32,2.64 2.64,5.28 4,8 0,0.66 0,1.32 0,2 -1.65,0 -3.3,0 -5,0 C 10.68,20.36 9.36,17.72 8,15 7.01,14.67 6.02,14.34 5,14 5,16.97 5,19.94 5,23 3.35,23 1.7,23 0,23 0,15.41 0,7.82 0,0 Z"
         fill="#ffffff"
         transform="translate(78,153)"
         id="path4-81"
         style="display:inline" /><path
         d="m 0,0 c 1.98,0 3.96,0 6,0 2.64,6.93 5.28,13.86 8,21 0,0.66 0,1.32 0,2 -1.65,0 -3.3,0 -5,0 C 8.34,21.68 7.68,20.36 7,19 4.03,18.67 1.06,18.34 -2,18 c -0.33,1.65 -0.66,3.3 -1,5 -1.65,0 -3.3,0 -5,0 2.31,-7.26 4.62,-14.52 7,-22 0.33,-0.33 0.66,-0.66 1,-1 z"
         fill="#ffffff"
         transform="translate(13,153)"
         id="path5-7"
         style="display:inline" /><path
         d="m 0,0 c 2.97,0 5.94,0 9,0 0.99,0.66 1.98,1.32 3,2 0,1.32 0,2.64 0,4 C 10.68,5.67 9.36,5.34 8,5 5.69,5 3.38,5 1,5 0.01,6.32 -0.98,7.64 -2,9 c 0,1.98 0,3.96 0,6 0.99,0.99 1.98,1.98 3,3 1.98,0.33 3.96,0.66 6,1 0,-1.65 0,-3.3 0,-5 -1.65,0 -3.3,0 -5,0 0,-1.32 0,-2.64 0,-4 3.3,0 6.6,0 10,0 0,3.96 0,7.92 0,12 -0.99,0.33 -1.98,0.66 -3,1 -2.97,0 -5.94,0 -9,0 -1.65,-0.99 -3.3,-1.98 -5,-3 -0.99,-1.32 -1.98,-2.64 -3,-4 0,-2.64 0,-5.28 0,-8 1.32,-1.98 2.64,-3.96 4,-6 1.32,-0.66 2.64,-1.32 4,-2 z"
         fill="#ffffff"
         transform="translate(60,153)"
         id="path6-84"
         style="display:inline" /><path
         d="m 0,0 c 2.97,0 5.94,0 9,0 0.99,0.66 1.98,1.32 3,2 0,1.32 0,2.64 0,4 C 10.68,5.67 9.36,5.34 8,5 5.69,5 3.38,5 1,5 0.01,6.32 -0.98,7.64 -2,9 c 0,1.98 0,3.96 0,6 0.99,0.99 1.98,1.98 3,3 1.98,0.33 3.96,0.66 6,1 0,-1.65 0,-3.3 0,-5 -1.65,0 -3.3,0 -5,0 0,-1.32 0,-2.64 0,-4 3.3,0 6.6,0 10,0 0,3.96 0,7.92 0,12 -0.99,0.33 -1.98,0.66 -3,1 -2.97,0 -5.94,0 -9,0 -1.65,-0.99 -3.3,-1.98 -5,-3 -0.99,-1.32 -1.98,-2.64 -3,-4 0,-2.64 0,-5.28 0,-8 1.32,-1.98 2.64,-3.96 4,-6 1.32,-0.66 2.64,-1.32 4,-2 z"
         fill="#ffffff"
         transform="translate(36,153)"
         id="path7-8" /><path
         d="m 0,0 c 1.65,0 3.3,0 5,0 0.99,2.64 1.98,5.28 3,8 0.66,2.31 1.32,4.62 2,7 0.66,-1.32 1.32,-2.64 2,-4 0.99,-3.3 1.98,-6.6 3,-10 0.33,-0.33 0.66,-0.66 1,-1 1.65,0 3.3,0 5,0 -0.99,3.63 -1.98,7.26 -3,11 -1.65,3.96 -3.3,7.92 -5,12 -1.98,0 -3.96,0 -6,0 C 4.69,16.07 2.38,9.14 0,2 0,1.34 0,0.68 0,0 Z"
         fill="#ffffff"
         transform="translate(159,153)"
         id="path8-92"
         style="display:inline" /><path
         d="m 0,0 c 4.29,0 8.58,0 13,0 0,1.32 0,2.64 0,4 -2.64,0 -5.28,0 -8,0 0,1.65 0,3.3 0,5 2.31,0 4.62,0 7,0 0,1.32 0,2.64 0,4 -2.31,0 -4.62,0 -7,0 0,1.98 0,3.96 0,6 2.64,0 5.28,0 8,0 0,1.32 0,2.64 0,4 C 8.71,23 4.42,23 0,23 0,15.41 0,7.82 0,0 Z"
         fill="#ffffff"
         transform="translate(183,153)"
         id="path9-8"
         style="display:inline" /><path
         d="m 0,0 c 4.29,0 8.58,0 13,0 0,1.32 0,2.64 0,4 -2.64,0 -5.28,0 -8,0 0,1.65 0,3.3 0,5 2.31,0 4.62,0 7,0 0,1.32 0,2.64 0,4 -2.31,0 -4.62,0 -7,0 0,1.98 0,3.96 0,6 2.64,0 5.28,0 8,0 0,1.32 0,2.64 0,4 C 8.71,23 4.42,23 0,23 0,15.41 0,7.82 0,0 Z"
         fill="#ffffff"
         transform="translate(99,153)"
         id="path10-00" /><path
         d="M 0,0 C 2.31,0 4.62,0 7,0 7.66,0.33 8.32,0.66 9,1 9,2.32 9,3.64 9,5 6.36,5 3.72,5 1,5 c 0.33,0.99 0.66,1.98 1,3 1.98,0.99 3.96,1.98 6,3 0.66,0.66 1.32,1.32 2,2 0,1.98 0,3.96 0,6 -1.65,1.32 -3.3,2.64 -5,4 -2.31,0 -4.62,0 -7,0 -0.99,-0.66 -1.98,-1.32 -3,-2 0,-1.32 0,-2.64 0,-4 2.97,0.33 5.94,0.66 9,1 C 4,17.01 4,16.02 4,15 1.36,13.35 -1.28,11.7 -4,10 -4.33,9.67 -4.66,9.34 -5,9 -4.67,6.69 -4.34,4.38 -4,2 -2.68,1.34 -1.36,0.68 0,0 Z"
         fill="#ffffff"
         transform="translate(137,153)"
         id="path11-20" /><path
         d="M 0,0 C 2.31,0 4.62,0 7,0 7.66,0.33 8.32,0.66 9,1 9,2.32 9,3.64 9,5 6.36,5 3.72,5 1,5 c 0.33,0.99 0.66,1.98 1,3 1.98,0.99 3.96,1.98 6,3 0.66,0.66 1.32,1.32 2,2 0,1.98 0,3.96 0,6 -1.65,1.32 -3.3,2.64 -5,4 -2.31,0 -4.62,0 -7,0 -0.99,-0.66 -1.98,-1.32 -3,-2 0,-1.32 0,-2.64 0,-4 2.97,0.33 5.94,0.66 9,1 C 4,17.01 4,16.02 4,15 1.36,13.35 -1.28,11.7 -4,10 -4.33,9.67 -4.66,9.34 -5,9 -4.67,6.69 -4.34,4.38 -4,2 -2.68,1.34 -1.36,0.68 0,0 Z"
         fill="#ffffff"
         transform="translate(120,153)"
         id="path12-65" /><path
         d="M 0,0 C 1.65,0 3.3,0 5,0 5,7.59 5,15.18 5,23 3.35,23 1.7,23 0,23 0,15.41 0,7.82 0,0 Z"
         fill="#ffffff"
         transform="translate(151,153)"
         id="path13-0" /><path
         d="M 0,0 C 0.33,0 0.66,0 1,0 1,2.97 1,5.94 1,9 -1.97,9 -4.94,9 -8,9 -6.35,7.68 -4.7,6.36 -3,5 -2.01,3.35 -1.02,1.7 0,0 Z"
         fill="#ffffff"
         transform="translate(199,191)"
         id="path14-3" /><path
         d="M 0,0 C 1.32,1.65 2.64,3.3 4,5 6.475,6.98 6.475,6.98 9,9 6.03,9 3.06,9 0,9 0,6.03 0,3.06 0,0 Z"
         fill="#ffffff"
         id="path15-6"
         transform="translate(0,191)" /><path
         d="M 0,0 C 2.97,0 5.94,0 9,0 9,2.97 9,5.94 9,9 7.68,7.35 6.36,5.7 5,4 3.35,2.68 1.7,1.36 0,0 Z"
         fill="#ffffff"
         transform="translate(191)"
         id="path16-25" /><path
         d="M 0,0 C 2.97,0 5.94,0 9,0 7.35,1.32 5.7,2.64 4,4 2.68,5.65 1.36,7.3 0,9 0,6.03 0,3.06 0,0 Z"
         fill="#ffffff"
         id="path17-9" /><path
         d="M 0,0 C 1.65,0 3.3,0 5,0 5.33,1.65 5.66,3.3 6,5 5.67,5.33 5.34,5.66 5,6 3.35,6 1.7,6 0,6 0,4.02 0,2.04 0,0 Z"
         fill="#222222"
         transform="translate(83,157)"
         id="path18-5" /><path
         d="M 0,0 C 0.66,0.99 1.32,1.98 2,3 2.66,5.31 3.32,7.62 4,10 2.02,10 0.04,10 -2,10 -1.34,6.7 -0.68,3.4 0,0 Z"
         fill="#222222"
         transform="translate(15,157)"
         id="path19-78" /><path
         d="m 0,0 c 2.475,0.495 2.475,0.495 5,1 3.465,1.485 3.465,1.485 7,3 0,0.66 0,1.32 0,2 C 8.37,5.01 4.74,4.02 1,3 0.67,2.01 0.34,1.02 0,0 Z"
         fill="#434025"
         transform="translate(100,90)"
         id="path20-1" /><path
         d="M 0,0 C 1.98,0.99 1.98,0.99 4,2 5.32,3.98 6.64,5.96 8,8 8,8.66 8,9.32 8,10 6.68,9.34 5.36,8.68 4,8 2.68,6.02 1.36,4.04 0,2 0,1.34 0,0.68 0,0 Z"
         fill="#423f25"
         transform="translate(87,100)"
         id="path21-01" /><path
         d="M 0,0 C 2.31,1.98 4.62,3.96 7,6 7.99,7.485 7.99,7.485 9,9 8.01,9 7.02,9 6,9 3.69,6.69 1.38,4.38 -1,2 -0.67,1.34 -0.34,0.68 0,0 Z"
         fill="#403d25"
         transform="translate(74,100)"
         id="path22-33" /><path
         d="m 0,0 c 5.94,0.99 5.94,0.99 12,2 0,0.66 0,1.32 0,2 C 8.37,3.67 4.74,3.34 1,3 0.67,2.01 0.34,1.02 0,0 Z"
         fill="#484526"
         transform="translate(102,78)"
         id="path23-5" /><path
         d="m 0,0 c 2.31,0.33 4.62,0.66 7,1 1.65,0.33 3.3,0.66 5,1 0,0.99 0,1.98 0,3 C 6.06,3.515 6.06,3.515 0,2 0,1.34 0,0.68 0,0 Z"
         fill="#393724"
         transform="translate(87,93)"
         id="path24-3" /><path
         d="M 0,0 C 0.66,0 1.32,0 2,0 3.65,3.3 5.3,6.6 7,10 6.01,10 5.02,10 4,10 2.02,6.535 2.02,6.535 0,3 0,2.01 0,1.02 0,0 Z"
         fill="#333123"
         transform="translate(72,114)"
         id="path25-68" /><path
         d="M 0,0 C 1.98,0.99 1.98,0.99 4,2 3.01,3.485 3.01,3.485 2,5 1.34,3.35 0.68,1.7 0,0 Z"
         fill="#4d4926"
         transform="translate(87,100)"
         id="path26-0" /><path
         d="M 0,0 C 2.475,0.495 2.475,0.495 5,1 3.02,1.99 3.02,1.99 1,3 0.67,2.01 0.34,1.02 0,0 Z"
         fill="#666029"
         transform="translate(100,90)"
         id="path27-6" /><path
         d="M 0,0 C 0.66,0 1.32,0 2,0 2,0.99 2,1.98 2,3 0.35,2.67 -1.3,2.34 -3,2 -2.01,1.34 -1.02,0.68 0,0 Z"
         fill="#6e672a"
         transform="translate(97,95)"
         id="path28-4" /><path
         d="M 0,0 C 0.66,0 1.32,0 2,0 2.33,0.99 2.66,1.98 3,3 2.01,3 1.02,3 0,3 0,2.01 0,1.02 0,0 Z"
         fill="#555027"
         transform="translate(76,121)"
         id="path29-8" /><path
         d="M 0,0 C 0.66,0 1.32,0 2,0 2.33,0.99 2.66,1.98 3,3 2.01,3 1.02,3 0,3 0,2.01 0,1.02 0,0 Z"
         fill="#434025"
         transform="translate(72,114)"
         id="path30-3" /><path
         d="M 0,0 C 0.66,0.66 1.32,1.32 2,2 1.01,2 0.02,2 -1,2 -0.67,1.34 -0.34,0.68 0,0 Z"
         fill="#504b26"
         transform="translate(74,100)"
         id="path31-3"
         style="display:inline" /></g><g
       id="g8"
       transform="matrix(0.26458333,0,0,0.26458333,-69.314118,98.024052)"
       style="display:inline"><path
         d="m 0,0 c 66,0 132,0 200,0 0,66 0,132 0,200 -66,0 -132,0 -200,0 C 0,134 0,68 0,0 Z"
         fill="#fe9700"
         id="path1-6" /><path
         d="m 0,0 c 66,0 132,0 200,0 0,66 0,132 0,200 -66,0 -132,0 -200,0 C 0,134 0,68 0,0 Z m 16,10 c -1.65,1.65 -3.3,3.3 -5,5 -0.33,0.33 -0.66,0.66 -1,1 0,34.65 0,69.3 0,105 0.495,-0.99 0.495,-0.99 1,-2 3.3,0 6.6,0 10,0 17.16,-1.98 34.32,-3.96 52,-6 1.485,-0.99 1.485,-0.99 3,-2 -0.33,-0.99 -0.66,-1.98 -1,-3 -0.99,0 -1.98,0 -3,0 0,-0.99 0,-1.98 0,-3 1.98,0.33 3.96,0.66 6,1 -0.33,-1.32 -0.66,-2.64 -1,-4 -1.65,-0.66 -3.3,-1.32 -5,-2 -0.33,-1.98 -0.66,-3.96 -1,-6 0.99,0 1.98,0 3,0 0.33,-0.66 0.66,-1.32 1,-2 2.31,-0.99 4.62,-1.98 7,-3 -0.66,-1.32 -1.32,-2.64 -2,-4 -0.66,0 -1.32,0 -2,0 0,-0.99 0,-1.98 0,-3 1.98,1.98 3.96,3.96 6,6 1.32,-0.33 2.64,-0.66 4,-1 5.61,-1.98 11.22,-3.96 17,-6 1.98,-0.33 3.96,-0.66 6,-1 0,0.99 0,1.98 0,3 5.445,-0.99 5.445,-0.99 11,-2 3.63,-0.99 7.26,-1.98 11,-3 0.33,-0.66 0.66,-1.32 1,-2 7.92,-2.31 15.84,-4.62 24,-7 3.96,-1.65 7.92,-3.3 12,-5 0.99,0 1.98,0 3,0 0.33,0.99 0.66,1.98 1,3 -3.465,0.495 -3.465,0.495 -7,1 0,0.66 0,1.32 0,2 -3.465,0.495 -3.465,0.495 -7,1 -3.96,0.99 -7.92,1.98 -12,3 -3.96,1.485 -3.96,1.485 -8,3 0,0.66 0,1.32 0,2 -5.445,0.99 -5.445,0.99 -11,2 -3.96,0.99 -3.96,0.99 -8,2 0,0.66 0,1.32 0,2 -1.65,0.33 -3.3,0.66 -5,1 0,0.66 0,1.32 0,2 0.99,0 1.98,0 3,0 0,0.99 0,1.98 0,3 -2.64,0.33 -5.28,0.66 -8,1 0,0.66 0,1.32 0,2 -5.445,0.99 -5.445,0.99 -11,2 -0.99,0.66 -1.98,1.32 -3,2 0.66,1.32 1.32,2.64 2,4 1.65,1.32 3.3,2.64 5,4 0.33,0.66 0.66,1.32 1,2 0.495,5.94 0.495,5.94 1,12 -0.66,0 -1.32,0 -2,0 -1.32,1.98 -2.64,3.96 -4,6 0,0.66 0,1.32 0,2 -5.28,0 -10.56,0 -16,0 -0.66,-1.32 -1.32,-2.64 -2,-4 -1.65,-1.65 -3.3,-3.3 -5,-5 -4.95,0.33 -9.9,0.66 -15,1 0,0.66 0,1.32 0,2 -3.3,0 -6.6,0 -10,0 -10.89,0.99 -21.78,1.98 -33,3 -4.455,0.99 -4.455,0.99 -9,2 0,4.29 0,8.58 0,13 59.4,0 118.8,0 180,0 0,-40.92 0,-81.84 0,-124 -1.65,-1.65 -3.3,-3.3 -5,-5 -0.99,-0.33 -1.98,-0.66 -3,-1 -54.78,0 -109.56,0 -166,0 z"
         fill="#212121"
         id="path2-1" /><path
         d="m 0,0 c 1.98,0.495 1.98,0.495 4,1 0,0.99 0,1.98 0,3 -2.31,0.33 -4.62,0.66 -7,1 0,0.66 0,1.32 0,2 -6.27,1.65 -12.54,3.3 -19,5 -1.32,0.66 -2.64,1.32 -4,2 -1.32,0 -2.64,0 -4,0 0,0.66 0,1.32 0,2 -4.62,1.32 -9.24,2.64 -14,4 -1.65,0 -3.3,0 -5,0 0,0.66 0,1.32 0,2 -1.65,0.33 -3.3,0.66 -5,1 0,0.66 0,1.32 0,2 0.99,0 1.98,0 3,0 0,0.99 0,1.98 0,3 -3.96,0.495 -3.96,0.495 -8,1 0,0.66 0,1.32 0,2 -3.63,0.99 -7.26,1.98 -11,3 -1.485,0.495 -1.485,0.495 -3,1 1.65,1.65 3.3,3.3 5,5 1.32,1.65 2.64,3.3 4,5 0,3.96 0,7.92 0,12 -0.66,0 -1.32,0 -2,0 -0.66,1.65 -1.32,3.3 -2,5 -0.66,0.99 -1.32,1.98 -2,3 -1.65,0.33 -3.3,0.66 -5,1 -2.31,0 -4.62,0 -7,0 -1.32,-0.33 -2.64,-0.66 -4,-1 -1.98,-2.64 -3.96,-5.28 -6,-8 0,-0.66 0,-1.32 0,-2 -2.64,0.33 -5.28,0.66 -8,1 -3.63,0 -7.26,0 -11,0 0,0.66 0,1.32 0,2 -9.405,0.99 -9.405,0.99 -19,2 -3.3,0 -6.6,0 -10,0 0,-0.66 0,-1.32 0,-2 -1.98,0 -3.96,0 -6,0 0,-0.33 0,-0.66 0,-1 2.31,-0.66 4.62,-1.32 7,-2 2.64,0 5.28,0 8,0 0,-0.66 0,-1.32 0,-2 16.83,-1.98 16.83,-1.98 34,-4 0.99,-0.33 1.98,-0.66 3,-1 -0.33,-0.66 -0.66,-1.32 -1,-2 -0.99,-0.33 -1.98,-0.66 -3,-1 0,-0.99 0,-1.98 0,-3 2.97,0.495 2.97,0.495 6,1 -0.33,-0.99 -0.66,-1.98 -1,-3 -1.65,-0.66 -3.3,-1.32 -5,-2 -0.33,-0.33 -0.66,-0.66 -1,-1 0,-1.98 0,-3.96 0,-6 0.99,0 1.98,0 3,0 0.495,-1.485 0.495,-1.485 1,-3 1.98,-0.99 3.96,-1.98 6,-3 -1.32,-1.65 -2.64,-3.3 -4,-5 0.33,-0.66 0.66,-1.32 1,-2 1.98,1.98 3.96,3.96 6,6 1.32,-0.33 2.64,-0.66 4,-1 5.61,-1.98 11.22,-3.96 17,-6 1.98,0 3.96,0 6,0 0,0.99 0,1.98 0,3 6.27,-1.65 12.54,-3.3 19,-5 0.99,0 1.98,0 3,0 0.33,-0.99 0.66,-1.98 1,-3 7.92,-2.31 15.84,-4.62 24,-7 3.96,-1.65 7.92,-3.3 12,-5 z"
         fill="#232322"
         transform="translate(170,63)"
         id="path3-7" /><path
         d="m 0,0 c 2.64,0 5.28,0 8,0 2.475,1.485 2.475,1.485 5,3 0.66,1.32 1.32,2.64 2,4 0,2.64 0,5.28 0,8 -0.99,1.65 -1.98,3.3 -3,5 -1.32,0.99 -2.64,1.98 -4,3 -2.64,0 -5.28,0 -8,0 -1.65,-0.99 -3.3,-1.98 -5,-3 -0.66,-1.32 -1.32,-2.64 -2,-4 0,-2.64 0,-5.28 0,-8 0.99,-1.65 1.98,-3.3 3,-5 1.32,-0.99 2.64,-1.98 4,-3 z"
         fill="#ffffff"
         transform="translate(142,153)"
         id="path4-08" /><path
         d="m 0,0 c 12.21,0 24.42,0 37,0 0,1.32 0,2.64 0,4 -2.31,0 -4.62,0 -7,0 0,6.27 0,12.54 0,19 -1.65,0 -3.3,0 -5,0 0,-6.27 0,-12.54 0,-19 -4.29,0 -8.58,0 -13,0 0,6.27 0,12.54 0,19 -1.65,0 -3.3,0 -5,0 C 7,16.73 7,10.46 7,4 4.69,4 2.38,4 0,4 0,2.68 0,1.36 0,0 Z"
         fill="#ffffff"
         transform="translate(39,153)"
         id="path5-0" /><path
         d="m 0,0 c 3.96,0 7.92,0 12,0 1.32,1.32 2.64,2.64 4,4 -0.33,2.31 -0.66,4.62 -1,7 -0.66,0.66 -1.32,1.32 -2,2 1.32,2.64 2.64,5.28 4,8 0,0.66 0,1.32 0,2 -1.65,0 -3.3,0 -5,0 C 10.68,20.36 9.36,17.72 8,15 7.01,14.67 6.02,14.34 5,14 5,16.97 5,19.94 5,23 3.35,23 1.7,23 0,23 0,15.41 0,7.82 0,0 Z"
         fill="#ffffff"
         transform="translate(78,153)"
         id="path6-4" /><path
         d="m 0,0 c 1.98,0 3.96,0 6,0 2.64,6.93 5.28,13.86 8,21 0,0.66 0,1.32 0,2 -1.65,0 -3.3,0 -5,0 C 8.34,21.68 7.68,20.36 7,19 4.03,18.67 1.06,18.34 -2,18 c -0.33,1.65 -0.66,3.3 -1,5 -1.65,0 -3.3,0 -5,0 2.31,-7.26 4.62,-14.52 7,-22 0.33,-0.33 0.66,-0.66 1,-1 z"
         fill="#ffffff"
         transform="translate(28,153)"
         id="path7-6" /><path
         d="m 0,0 c 1.98,0 3.96,0 6,0 2.64,4.95 5.28,9.9 8,15 0.33,-4.95 0.66,-9.9 1,-15 1.32,0 2.64,0 4,0 0,7.59 0,15.18 0,23 -1.65,0 -3.3,0 -5,0 C 11.525,19.04 11.525,19.04 9,15 7.68,12.36 6.36,9.72 5,7 4.67,12.28 4.34,17.56 4,23 2.68,23 1.36,23 0,23 0,15.41 0,7.82 0,0 Z"
         fill="#ffffff"
         transform="translate(162,153)"
         id="path8-7" /><path
         d="m 0,0 c 6.27,0 12.54,0 19,0 0,1.32 0,2.64 0,4 -2.31,0 -4.62,0 -7,0 0,6.27 0,12.54 0,19 -1.65,0 -3.3,0 -5,0 C 7,16.73 7,10.46 7,4 4.69,4 2.38,4 0,4 0,2.68 0,1.36 0,0 Z"
         fill="#ffffff"
         transform="translate(106,153)"
         id="path9-5" /><path
         d="M 0,0 C 1.98,0 3.96,0 6,0 6.99,1.32 7.98,2.64 9,4 9,6.31 9,8.62 9,11 8.01,12.32 7.02,13.64 6,15 4.02,15 2.04,15 0,15 -0.99,13.68 -1.98,12.36 -3,11 -3,8.69 -3,6.38 -3,4 -2.01,2.68 -1.02,1.36 0,0 Z"
         fill="#222222"
         transform="translate(143,157)"
         id="path10-12" /><path
         d="m 0,0 c 1.32,0.33 2.64,0.66 4,1 0,0.99 0,1.98 0,3 -2.31,0.33 -4.62,0.66 -7,1 0,0.66 0,1.32 0,2 -6.27,1.65 -12.54,3.3 -19,5 -1.98,0.99 -1.98,0.99 -4,2 -1.32,0 -2.64,0 -4,0 0,0.66 0,1.32 0,2 -0.99,0 -1.98,0 -3,0 0,-0.99 0,-1.98 0,-3 -1.32,0.33 -2.64,0.66 -4,1 0.33,-0.66 0.66,-1.32 1,-2 7.92,-2.31 15.84,-4.62 24,-7 3.96,-1.65 7.92,-3.3 12,-5 z"
         fill="#3e301d"
         transform="translate(170,63)"
         id="path11-8" /><path
         d="m 0,0 c 0.33,0.66 0.66,1.32 1,2 -3.3,0.66 -6.6,1.32 -10,2 0.33,0.99 0.66,1.98 1,3 6.93,-0.66 13.86,-1.32 21,-2 2.64,0 5.28,0 8,0 0,-0.66 0,-1.32 0,-2 6.27,-0.33 12.54,-0.66 19,-1 -0.33,0.66 -0.66,1.32 -1,2 -4.95,0 -9.9,0 -15,0 0,0.66 0,1.32 0,2 -10.23,0.99 -20.46,1.98 -31,3 -3.96,0 -7.92,0 -12,0 0.99,-0.66 1.98,-1.32 3,-2 0,-0.66 0,-1.32 0,-2 -3.63,0 -7.26,0 -11,0 0,-0.66 0,-1.32 0,-2 8.91,-0.99 17.82,-1.98 27,-3 z"
         fill="#5e4522"
         transform="translate(38,116)"
         id="path12-9" /><path
         d="M 0,0 C 1.65,0 3.3,0 5,0 5,7.59 5,15.18 5,23 3.35,23 1.7,23 0,23 0,15.41 0,7.82 0,0 Z"
         fill="#ffffff"
         transform="translate(127,153)"
         id="path13-54" /><path
         d="M 0,0 C 1.65,0 3.3,0 5,0 5,7.59 5,15.18 5,23 3.35,23 1.7,23 0,23 0,15.41 0,7.82 0,0 Z"
         fill="#ffffff"
         transform="translate(99,153)"
         id="path14-8" /><path
         d="M 0,0 C 2.31,0 4.62,0 7,0 7.66,0.66 8.32,1.32 9,2 6.36,2.33 3.72,2.66 1,3 4.3,3.66 7.6,4.32 11,5 11,5.33 11,5.66 11,6 7.7,6.33 4.4,6.66 1,7 -2.3,7 -5.6,7 -9,7 c 0,-0.66 0,-1.32 0,-2 -1.98,0 -3.96,0 -6,0 0,-0.33 0,-0.66 0,-1 2.31,-0.66 4.62,-1.32 7,-2 2.64,0 5.28,0 8,0 C 0,1.34 0,0.68 0,0 Z"
         fill="#161920"
         transform="translate(39,116)"
         id="path15-8" /><path
         d="M 0,0 C 3.465,1.485 3.465,1.485 7,3 7,3.99 7,4.98 7,6 4.03,5.505 4.03,5.505 1,5 c 0,0.99 0,1.98 0,3 1.32,0.33 2.64,0.66 4,1 0,0.66 0,1.32 0,2 -0.99,0.66 -1.98,1.32 -3,2 -9.405,0.99 -9.405,0.99 -19,2 0,-0.66 0,-1.32 0,-2 8.91,-0.99 8.91,-0.99 18,-2 C 0.67,10.67 0.34,10.34 0,10 0,6.7 0,3.4 0,0 Z"
         fill="#be7a1d"
         transform="translate(71,100)"
         id="path16-29" /><path
         d="M 0,0 C 2.64,0 5.28,0 8,0 7.67,0.66 7.34,1.32 7,2 2.05,2 -2.9,2 -8,2 c 0,0.66 0,1.32 0,2 -10.395,0.99 -10.395,0.99 -21,2 -3.3,0 -6.6,0 -10,0 0,-0.33 0,-0.66 0,-1 6.6,-0.66 13.2,-1.32 20,-2 2.64,0 5.28,0 8,0 0,-0.66 0,-1.32 0,-2 3.63,-0.33 7.26,-0.66 11,-1 z"
         fill="#9d6927"
         transform="translate(70,118)"
         id="path17-0" /><path
         d="m 0,0 c 0.33,0.66 0.66,1.32 1,2 -0.99,1.485 -0.99,1.485 -2,3 -2.31,0.33 -4.62,0.66 -7,1 0,0.66 0,1.32 0,2 -0.99,0 -1.98,0 -3,0 0,-0.99 0,-1.98 0,-3 -1.32,0.33 -2.64,0.66 -4,1 0.33,-0.66 0.66,-1.32 1,-2 4.62,-1.32 9.24,-2.64 14,-4 z"
         fill="#212421"
         transform="translate(148,71)"
         id="path18-7" /><path
         d="m 0,0 c 0.66,0 1.32,0 2,0 0,1.32 0,2.64 0,4 -5.445,1.485 -5.445,1.485 -11,3 -1.65,0 -3.3,0 -5,0 0.66,-0.33 1.32,-0.66 2,-1 0,-0.66 0,-1.32 0,-2 3.96,-1.32 7.92,-2.64 12,-4 z"
         fill="#1d1e20"
         transform="translate(135,76)"
         id="path19-23" /><path
         d="M 0,0 C 0.33,0.66 0.66,1.32 1,2 0.34,2 -0.32,2 -1,2 -1,2.99 -1,3.98 -1,5 -2.65,5.33 -4.3,5.66 -6,6 -6.33,6.66 -6.66,7.32 -7,8 -7.33,7.34 -7.66,6.68 -8,6 -9.32,5.67 -10.64,5.34 -12,5 -11.67,4.01 -11.34,3.02 -11,2 -5.555,1.01 -5.555,1.01 0,0 Z"
         fill="#483923"
         transform="translate(122,80)"
         id="path20-8" /><path
         d="M 0,0 C 0.33,0 0.66,0 1,0 1,2.97 1,5.94 1,9 -1.97,9 -4.94,9 -8,9 -6.35,7.68 -4.7,6.36 -3,5 -2.01,3.35 -1.02,1.7 0,0 Z"
         fill="#ffffff"
         transform="translate(199,191)"
         id="path21-7" /><path
         d="M 0,0 C 1.32,1.65 2.64,3.3 4,5 6.475,6.98 6.475,6.98 9,9 6.03,9 3.06,9 0,9 0,6.03 0,3.06 0,0 Z"
         fill="#ffffff"
         transform="translate(0,191)"
         id="path22-6" /><path
         d="M 0,0 C 2.97,0 5.94,0 9,0 9,2.97 9,5.94 9,9 7.68,7.35 6.36,5.7 5,4 3.35,2.68 1.7,1.36 0,0 Z"
         fill="#ffffff"
         transform="translate(191)"
         id="path23-24" /><path
         d="M 0,0 C 2.97,0 5.94,0 9,0 7.35,1.32 5.7,2.64 4,4 2.68,5.65 1.36,7.3 0,9 0,6.03 0,3.06 0,0 Z"
         fill="#ffffff"
         id="path24-8" /><path
         d="M 0,0 C 1.65,0 3.3,0 5,0 5.33,1.65 5.66,3.3 6,5 5.67,5.33 5.34,5.66 5,6 3.35,6 1.7,6 0,6 0,4.02 0,2.04 0,0 Z"
         fill="#222222"
         transform="translate(83,157)"
         id="path25-66" /><path
         d="M 0,0 C 0.66,0.99 1.32,1.98 2,3 2.66,5.31 3.32,7.62 4,10 2.02,10 0.04,10 -2,10 -1.34,6.7 -0.68,3.4 0,0 Z"
         fill="#222222"
         transform="translate(30,157)"
         id="path26-6" /><path
         d="M 0,0 C 1.65,0.33 3.3,0.66 5,1 5,1.66 5,2.32 5,3 2.69,3.66 0.38,4.32 -2,5 -3.32,4.67 -4.64,4.34 -6,4 -5.67,3.34 -5.34,2.68 -5,2 -3.35,1.34 -1.7,0.68 0,0 Z"
         fill="#121821"
         transform="translate(154,69)"
         id="path27-3" /><path
         d="M 0,0 C 1.32,0.33 2.64,0.66 4,1 2.35,1.33 0.7,1.66 -1,2 -0.67,3.32 -0.34,4.64 0,6 -0.99,6 -1.98,6 -3,6 -3,5.01 -3,4.02 -3,3 -4.32,3.33 -5.64,3.66 -7,4 -6.67,3.34 -6.34,2.68 -6,2 -4.02,1.34 -2.04,0.68 0,0 Z"
         fill="#6f4d21"
         transform="translate(140,73)"
         id="path28-7" /><path
         d="M 0,0 C 0.99,0 1.98,0 3,0 3,0.66 3,1.32 3,2 4.32,2.33 5.64,2.66 7,3 4.36,3.66 1.72,4.32 -1,5 -1.33,3.68 -1.66,2.36 -2,1 -1.34,0.67 -0.68,0.34 0,0 Z"
         fill="#3f311f"
         transform="translate(160,67)"
         id="path29-3" /><path
         d="M 0,0 C 1.65,0 3.3,0 5,0 5,0.66 5,1.32 5,2 4.01,2 3.02,2 2,2 2,2.66 2,3.32 2,4 0.68,4 -0.64,4 -2,4 -2,3.01 -2,2.02 -2,1 -1.34,0.67 -0.68,0.34 0,0 Z"
         fill="#212322"
         transform="translate(165,65)"
         id="path30-9" /><path
         d="M 0,0 C 1.65,0 3.3,0 5,0 3.515,1.485 3.515,1.485 2,3 0.68,3 -0.64,3 -2,3 -2,3.66 -2,4.32 -2,5 -2.99,5 -3.98,5 -5,5 -5,4.34 -5,3.68 -5,3 -3.35,2.67 -1.7,2.34 0,2 0,1.34 0,0.68 0,0 Z"
         fill="#b27829"
         transform="translate(121,83)"
         id="path31-6" /><path
         d="M 0,0 C 0.66,0 1.32,0 2,0 2,0.99 2,1.98 2,3 0.02,3 -1.96,3 -4,3 -2.68,2.01 -1.36,1.02 0,0 Z"
         fill="#070f22"
         transform="translate(135,76)"
         id="path32" /></g></g></svg>
