<?xml version="1.0" encoding="UTF-8"?>
<svg version="1.1" xmlns="http://www.w3.org/2000/svg" width="200" height="200">
<path d="M0 0 C66 0 132 0 200 0 C200 66 200 132 200 200 C134 200 68 200 0 200 C0 134 0 68 0 0 Z " fill="#FE9700" transform="translate(0,0)"/>
<path d="M0 0 C66 0 132 0 200 0 C200 66 200 132 200 200 C134 200 68 200 0 200 C0 134 0 68 0 0 Z M16 10 C14.35 11.65 12.7 13.3 11 15 C10.67 15.33 10.34 15.66 10 16 C10 50.65 10 85.3 10 121 C10.495 120.01 10.495 120.01 11 119 C14.3 119 17.6 119 21 119 C38.16 117.02 55.32 115.04 73 113 C74.485 112.01 74.485 112.01 76 111 C75.67 110.01 75.34 109.02 75 108 C74.01 108 73.02 108 72 108 C72 107.01 72 106.02 72 105 C73.98 105.33 75.96 105.66 78 106 C77.67 104.68 77.34 103.36 77 102 C75.35 101.34 73.7 100.68 72 100 C71.67 98.02 71.34 96.04 71 94 C71.99 94 72.98 94 74 94 C74.33 93.34 74.66 92.68 75 92 C77.31 91.01 79.62 90.02 82 89 C81.34 87.68 80.68 86.36 80 85 C79.34 85 78.68 85 78 85 C78 84.01 78 83.02 78 82 C79.98 83.98 81.96 85.96 84 88 C85.32 87.67 86.64 87.34 88 87 C93.61 85.02 99.22 83.04 105 81 C106.98 80.67 108.96 80.34 111 80 C111 80.99 111 81.98 111 83 C116.445 82.01 116.445 82.01 122 81 C125.63 80.01 129.26 79.02 133 78 C133.33 77.34 133.66 76.68 134 76 C141.92 73.69 149.84 71.38 158 69 C161.96 67.35 165.92 65.7 170 64 C170.99 64 171.98 64 173 64 C173.33 64.99 173.66 65.98 174 67 C170.535 67.495 170.535 67.495 167 68 C167 68.66 167 69.32 167 70 C163.535 70.495 163.535 70.495 160 71 C156.04 71.99 152.08 72.98 148 74 C144.04 75.485 144.04 75.485 140 77 C140 77.66 140 78.32 140 79 C134.555 79.99 134.555 79.99 129 81 C125.04 81.99 125.04 81.99 121 83 C121 83.66 121 84.32 121 85 C119.35 85.33 117.7 85.66 116 86 C116 86.66 116 87.32 116 88 C116.99 88 117.98 88 119 88 C119 88.99 119 89.98 119 91 C116.36 91.33 113.72 91.66 111 92 C111 92.66 111 93.32 111 94 C105.555 94.99 105.555 94.99 100 96 C99.01 96.66 98.02 97.32 97 98 C97.66 99.32 98.32 100.64 99 102 C100.65 103.32 102.3 104.64 104 106 C104.33 106.66 104.66 107.32 105 108 C105.495 113.94 105.495 113.94 106 120 C105.34 120 104.68 120 104 120 C102.68 121.98 101.36 123.96 100 126 C100 126.66 100 127.32 100 128 C94.72 128 89.44 128 84 128 C83.34 126.68 82.68 125.36 82 124 C80.35 122.35 78.7 120.7 77 119 C72.05 119.33 67.1 119.66 62 120 C62 120.66 62 121.32 62 122 C58.7 122 55.4 122 52 122 C41.11 122.99 30.22 123.98 19 125 C14.545 125.99 14.545 125.99 10 127 C10 131.29 10 135.58 10 140 C69.4 140 128.8 140 190 140 C190 99.08 190 58.16 190 16 C188.35 14.35 186.7 12.7 185 11 C184.01 10.67 183.02 10.34 182 10 C127.22 10 72.44 10 16 10 Z " fill="#212121" transform="translate(0,0)"/>
<path d="M0 0 C1.98 0.495 1.98 0.495 4 1 C4 1.99 4 2.98 4 4 C1.69 4.33 -0.62 4.66 -3 5 C-3 5.66 -3 6.32 -3 7 C-9.27 8.65 -15.54 10.3 -22 12 C-23.32 12.66 -24.64 13.32 -26 14 C-27.32 14 -28.64 14 -30 14 C-30 14.66 -30 15.32 -30 16 C-34.62 17.32 -39.24 18.64 -44 20 C-45.65 20 -47.3 20 -49 20 C-49 20.66 -49 21.32 -49 22 C-50.65 22.33 -52.3 22.66 -54 23 C-54 23.66 -54 24.32 -54 25 C-53.01 25 -52.02 25 -51 25 C-51 25.99 -51 26.98 -51 28 C-54.96 28.495 -54.96 28.495 -59 29 C-59 29.66 -59 30.32 -59 31 C-62.63 31.99 -66.26 32.98 -70 34 C-71.485 34.495 -71.485 34.495 -73 35 C-71.35 36.65 -69.7 38.3 -68 40 C-66.68 41.65 -65.36 43.3 -64 45 C-64 48.96 -64 52.92 -64 57 C-64.66 57 -65.32 57 -66 57 C-66.66 58.65 -67.32 60.3 -68 62 C-68.66 62.99 -69.32 63.98 -70 65 C-71.65 65.33 -73.3 65.66 -75 66 C-77.31 66 -79.62 66 -82 66 C-83.32 65.67 -84.64 65.34 -86 65 C-87.98 62.36 -89.96 59.72 -92 57 C-92 56.34 -92 55.68 -92 55 C-94.64 55.33 -97.28 55.66 -100 56 C-103.63 56 -107.26 56 -111 56 C-111 56.66 -111 57.32 -111 58 C-120.405 58.99 -120.405 58.99 -130 60 C-133.3 60 -136.6 60 -140 60 C-140 59.34 -140 58.68 -140 58 C-141.98 58 -143.96 58 -146 58 C-146 57.67 -146 57.34 -146 57 C-143.69 56.34 -141.38 55.68 -139 55 C-136.36 55 -133.72 55 -131 55 C-131 54.34 -131 53.68 -131 53 C-114.17 51.02 -114.17 51.02 -97 49 C-96.01 48.67 -95.02 48.34 -94 48 C-94.33 47.34 -94.66 46.68 -95 46 C-95.99 45.67 -96.98 45.34 -98 45 C-98 44.01 -98 43.02 -98 42 C-95.03 42.495 -95.03 42.495 -92 43 C-92.33 42.01 -92.66 41.02 -93 40 C-94.65 39.34 -96.3 38.68 -98 38 C-98.33 37.67 -98.66 37.34 -99 37 C-99 35.02 -99 33.04 -99 31 C-98.01 31 -97.02 31 -96 31 C-95.505 29.515 -95.505 29.515 -95 28 C-93.02 27.01 -91.04 26.02 -89 25 C-90.32 23.35 -91.64 21.7 -93 20 C-92.67 19.34 -92.34 18.68 -92 18 C-90.02 19.98 -88.04 21.96 -86 24 C-84.68 23.67 -83.36 23.34 -82 23 C-76.39 21.02 -70.78 19.04 -65 17 C-63.02 17 -61.04 17 -59 17 C-59 17.99 -59 18.98 -59 20 C-52.73 18.35 -46.46 16.7 -40 15 C-39.01 15 -38.02 15 -37 15 C-36.67 14.01 -36.34 13.02 -36 12 C-28.08 9.69 -20.16 7.38 -12 5 C-8.04 3.35 -4.08 1.7 0 0 Z " fill="#232322" transform="translate(170,63)"/>
<path d="M0 0 C2.64 0 5.28 0 8 0 C10.475 1.485 10.475 1.485 13 3 C13.66 4.32 14.32 5.64 15 7 C15 9.64 15 12.28 15 15 C14.01 16.65 13.02 18.3 12 20 C10.68 20.99 9.36 21.98 8 23 C5.36 23 2.72 23 0 23 C-1.65 22.01 -3.3 21.02 -5 20 C-5.66 18.68 -6.32 17.36 -7 16 C-7 13.36 -7 10.72 -7 8 C-6.01 6.35 -5.02 4.7 -4 3 C-2.68 2.01 -1.36 1.02 0 0 Z " fill="#FFFFFF" transform="translate(142,153)"/>
<path d="M0 0 C12.21 0 24.42 0 37 0 C37 1.32 37 2.64 37 4 C34.69 4 32.38 4 30 4 C30 10.27 30 16.54 30 23 C28.35 23 26.7 23 25 23 C25 16.73 25 10.46 25 4 C20.71 4 16.42 4 12 4 C12 10.27 12 16.54 12 23 C10.35 23 8.7 23 7 23 C7 16.73 7 10.46 7 4 C4.69 4 2.38 4 0 4 C0 2.68 0 1.36 0 0 Z " fill="#FFFFFF" transform="translate(39,153)"/>
<path d="M0 0 C3.96 0 7.92 0 12 0 C13.32 1.32 14.64 2.64 16 4 C15.67 6.31 15.34 8.62 15 11 C14.34 11.66 13.68 12.32 13 13 C14.32 15.64 15.64 18.28 17 21 C17 21.66 17 22.32 17 23 C15.35 23 13.7 23 12 23 C10.68 20.36 9.36 17.72 8 15 C7.01 14.67 6.02 14.34 5 14 C5 16.97 5 19.94 5 23 C3.35 23 1.7 23 0 23 C0 15.41 0 7.82 0 0 Z " fill="#FFFFFF" transform="translate(78,153)"/>
<path d="M0 0 C1.98 0 3.96 0 6 0 C8.64 6.93 11.28 13.86 14 21 C14 21.66 14 22.32 14 23 C12.35 23 10.7 23 9 23 C8.34 21.68 7.68 20.36 7 19 C4.03 18.67 1.06 18.34 -2 18 C-2.33 19.65 -2.66 21.3 -3 23 C-4.65 23 -6.3 23 -8 23 C-5.69 15.74 -3.38 8.48 -1 1 C-0.67 0.67 -0.34 0.34 0 0 Z " fill="#FFFFFF" transform="translate(28,153)"/>
<path d="M0 0 C1.98 0 3.96 0 6 0 C8.64 4.95 11.28 9.9 14 15 C14.33 10.05 14.66 5.1 15 0 C16.32 0 17.64 0 19 0 C19 7.59 19 15.18 19 23 C17.35 23 15.7 23 14 23 C11.525 19.04 11.525 19.04 9 15 C7.68 12.36 6.36 9.72 5 7 C4.67 12.28 4.34 17.56 4 23 C2.68 23 1.36 23 0 23 C0 15.41 0 7.82 0 0 Z " fill="#FFFFFF" transform="translate(162,153)"/>
<path d="M0 0 C6.27 0 12.54 0 19 0 C19 1.32 19 2.64 19 4 C16.69 4 14.38 4 12 4 C12 10.27 12 16.54 12 23 C10.35 23 8.7 23 7 23 C7 16.73 7 10.46 7 4 C4.69 4 2.38 4 0 4 C0 2.68 0 1.36 0 0 Z " fill="#FFFFFF" transform="translate(106,153)"/>
<path d="M0 0 C1.98 0 3.96 0 6 0 C6.99 1.32 7.98 2.64 9 4 C9 6.31 9 8.62 9 11 C8.01 12.32 7.02 13.64 6 15 C4.02 15 2.04 15 0 15 C-0.99 13.68 -1.98 12.36 -3 11 C-3 8.69 -3 6.38 -3 4 C-2.01 2.68 -1.02 1.36 0 0 Z " fill="#222222" transform="translate(143,157)"/>
<path d="M0 0 C1.32 0.33 2.64 0.66 4 1 C4 1.99 4 2.98 4 4 C1.69 4.33 -0.62 4.66 -3 5 C-3 5.66 -3 6.32 -3 7 C-9.27 8.65 -15.54 10.3 -22 12 C-23.98 12.99 -23.98 12.99 -26 14 C-27.32 14 -28.64 14 -30 14 C-30 14.66 -30 15.32 -30 16 C-30.99 16 -31.98 16 -33 16 C-33 15.01 -33 14.02 -33 13 C-34.32 13.33 -35.64 13.66 -37 14 C-36.67 13.34 -36.34 12.68 -36 12 C-28.08 9.69 -20.16 7.38 -12 5 C-8.04 3.35 -4.08 1.7 0 0 Z " fill="#3E301D" transform="translate(170,63)"/>
<path d="M0 0 C0.33 0.66 0.66 1.32 1 2 C-2.3 2.66 -5.6 3.32 -9 4 C-8.67 4.99 -8.34 5.98 -8 7 C-1.07 6.34 5.86 5.68 13 5 C15.64 5 18.28 5 21 5 C21 4.34 21 3.68 21 3 C27.27 2.67 33.54 2.34 40 2 C39.67 2.66 39.34 3.32 39 4 C34.05 4 29.1 4 24 4 C24 4.66 24 5.32 24 6 C13.77 6.99 3.54 7.98 -7 9 C-10.96 9 -14.92 9 -19 9 C-18.01 8.34 -17.02 7.68 -16 7 C-16 6.34 -16 5.68 -16 5 C-19.63 5 -23.26 5 -27 5 C-27 4.34 -27 3.68 -27 3 C-18.09 2.01 -9.18 1.02 0 0 Z " fill="#5E4522" transform="translate(38,116)"/>
<path d="M0 0 C1.65 0 3.3 0 5 0 C5 7.59 5 15.18 5 23 C3.35 23 1.7 23 0 23 C0 15.41 0 7.82 0 0 Z " fill="#FFFFFF" transform="translate(127,153)"/>
<path d="M0 0 C1.65 0 3.3 0 5 0 C5 7.59 5 15.18 5 23 C3.35 23 1.7 23 0 23 C0 15.41 0 7.82 0 0 Z " fill="#FFFFFF" transform="translate(99,153)"/>
<path d="M0 0 C2.31 0 4.62 0 7 0 C7.66 0.66 8.32 1.32 9 2 C6.36 2.33 3.72 2.66 1 3 C4.3 3.66 7.6 4.32 11 5 C11 5.33 11 5.66 11 6 C7.7 6.33 4.4 6.66 1 7 C-2.3 7 -5.6 7 -9 7 C-9 6.34 -9 5.68 -9 5 C-10.98 5 -12.96 5 -15 5 C-15 4.67 -15 4.34 -15 4 C-12.69 3.34 -10.38 2.68 -8 2 C-5.36 2 -2.72 2 0 2 C0 1.34 0 0.68 0 0 Z " fill="#161920" transform="translate(39,116)"/>
<path d="M0 0 C3.465 1.485 3.465 1.485 7 3 C7 3.99 7 4.98 7 6 C4.03 5.505 4.03 5.505 1 5 C1 5.99 1 6.98 1 8 C2.32 8.33 3.64 8.66 5 9 C5 9.66 5 10.32 5 11 C4.01 11.66 3.02 12.32 2 13 C-7.405 13.99 -7.405 13.99 -17 15 C-17 14.34 -17 13.68 -17 13 C-8.09 12.01 -8.09 12.01 1 11 C0.67 10.67 0.34 10.34 0 10 C0 6.7 0 3.4 0 0 Z " fill="#BE7A1D" transform="translate(71,100)"/>
<path d="M0 0 C2.64 0 5.28 0 8 0 C7.67 0.66 7.34 1.32 7 2 C2.05 2 -2.9 2 -8 2 C-8 2.66 -8 3.32 -8 4 C-18.395 4.99 -18.395 4.99 -29 6 C-32.3 6 -35.6 6 -39 6 C-39 5.67 -39 5.34 -39 5 C-32.4 4.34 -25.8 3.68 -19 3 C-16.36 3 -13.72 3 -11 3 C-11 2.34 -11 1.68 -11 1 C-7.37 0.67 -3.74 0.34 0 0 Z " fill="#9D6927" transform="translate(70,118)"/>
<path d="M0 0 C0.33 0.66 0.66 1.32 1 2 C0.01 3.485 0.01 3.485 -1 5 C-3.31 5.33 -5.62 5.66 -8 6 C-8 6.66 -8 7.32 -8 8 C-8.99 8 -9.98 8 -11 8 C-11 7.01 -11 6.02 -11 5 C-12.32 5.33 -13.64 5.66 -15 6 C-14.67 5.34 -14.34 4.68 -14 4 C-9.38 2.68 -4.76 1.36 0 0 Z " fill="#212421" transform="translate(148,71)"/>
<path d="M0 0 C0.66 0 1.32 0 2 0 C2 1.32 2 2.64 2 4 C-3.445 5.485 -3.445 5.485 -9 7 C-10.65 7 -12.3 7 -14 7 C-13.34 6.67 -12.68 6.34 -12 6 C-12 5.34 -12 4.68 -12 4 C-8.04 2.68 -4.08 1.36 0 0 Z " fill="#1D1E20" transform="translate(135,76)"/>
<path d="M0 0 C0.33 0.66 0.66 1.32 1 2 C0.34 2 -0.32 2 -1 2 C-1 2.99 -1 3.98 -1 5 C-2.65 5.33 -4.3 5.66 -6 6 C-6.33 6.66 -6.66 7.32 -7 8 C-7.33 7.34 -7.66 6.68 -8 6 C-9.32 5.67 -10.64 5.34 -12 5 C-11.67 4.01 -11.34 3.02 -11 2 C-5.555 1.01 -5.555 1.01 0 0 Z " fill="#483923" transform="translate(122,80)"/>
<path d="M0 0 C0.33 0 0.66 0 1 0 C1 2.97 1 5.94 1 9 C-1.97 9 -4.94 9 -8 9 C-6.35 7.68 -4.7 6.36 -3 5 C-2.01 3.35 -1.02 1.7 0 0 Z " fill="#FFFFFF" transform="translate(199,191)"/>
<path d="M0 0 C1.32 1.65 2.64 3.3 4 5 C6.475 6.98 6.475 6.98 9 9 C6.03 9 3.06 9 0 9 C0 6.03 0 3.06 0 0 Z " fill="#FFFFFF" transform="translate(0,191)"/>
<path d="M0 0 C2.97 0 5.94 0 9 0 C9 2.97 9 5.94 9 9 C7.68 7.35 6.36 5.7 5 4 C3.35 2.68 1.7 1.36 0 0 Z " fill="#FFFFFF" transform="translate(191,0)"/>
<path d="M0 0 C2.97 0 5.94 0 9 0 C7.35 1.32 5.7 2.64 4 4 C2.68 5.65 1.36 7.3 0 9 C0 6.03 0 3.06 0 0 Z " fill="#FFFFFF" transform="translate(0,0)"/>
<path d="M0 0 C1.65 0 3.3 0 5 0 C5.33 1.65 5.66 3.3 6 5 C5.67 5.33 5.34 5.66 5 6 C3.35 6 1.7 6 0 6 C0 4.02 0 2.04 0 0 Z " fill="#222222" transform="translate(83,157)"/>
<path d="M0 0 C0.66 0.99 1.32 1.98 2 3 C2.66 5.31 3.32 7.62 4 10 C2.02 10 0.04 10 -2 10 C-1.34 6.7 -0.68 3.4 0 0 Z " fill="#222222" transform="translate(30,157)"/>
<path d="M0 0 C1.65 0.33 3.3 0.66 5 1 C5 1.66 5 2.32 5 3 C2.69 3.66 0.38 4.32 -2 5 C-3.32 4.67 -4.64 4.34 -6 4 C-5.67 3.34 -5.34 2.68 -5 2 C-3.35 1.34 -1.7 0.68 0 0 Z " fill="#121821" transform="translate(154,69)"/>
<path d="M0 0 C1.32 0.33 2.64 0.66 4 1 C2.35 1.33 0.7 1.66 -1 2 C-0.67 3.32 -0.34 4.64 0 6 C-0.99 6 -1.98 6 -3 6 C-3 5.01 -3 4.02 -3 3 C-4.32 3.33 -5.64 3.66 -7 4 C-6.67 3.34 -6.34 2.68 -6 2 C-4.02 1.34 -2.04 0.68 0 0 Z " fill="#6F4D21" transform="translate(140,73)"/>
<path d="M0 0 C0.99 0 1.98 0 3 0 C3 0.66 3 1.32 3 2 C4.32 2.33 5.64 2.66 7 3 C4.36 3.66 1.72 4.32 -1 5 C-1.33 3.68 -1.66 2.36 -2 1 C-1.34 0.67 -0.68 0.34 0 0 Z " fill="#3F311F" transform="translate(160,67)"/>
<path d="M0 0 C1.65 0 3.3 0 5 0 C5 0.66 5 1.32 5 2 C4.01 2 3.02 2 2 2 C2 2.66 2 3.32 2 4 C0.68 4 -0.64 4 -2 4 C-2 3.01 -2 2.02 -2 1 C-1.34 0.67 -0.68 0.34 0 0 Z " fill="#212322" transform="translate(165,65)"/>
<path d="M0 0 C1.65 0 3.3 0 5 0 C3.515 1.485 3.515 1.485 2 3 C0.68 3 -0.64 3 -2 3 C-2 3.66 -2 4.32 -2 5 C-2.99 5 -3.98 5 -5 5 C-5 4.34 -5 3.68 -5 3 C-3.35 2.67 -1.7 2.34 0 2 C0 1.34 0 0.68 0 0 Z " fill="#B27829" transform="translate(121,83)"/>
<path d="M0 0 C0.66 0 1.32 0 2 0 C2 0.99 2 1.98 2 3 C0.02 3 -1.96 3 -4 3 C-2.68 2.01 -1.36 1.02 0 0 Z " fill="#070F22" transform="translate(135,76)"/>
</svg>

  