<?xml version="1.0" encoding="UTF-8"?>
<svg version="1.1" xmlns="http://www.w3.org/2000/svg" width="200" height="200">
<path d="M0 0 C66 0 132 0 200 0 C200 66 200 132 200 200 C134 200 68 200 0 200 C0 134 0 68 0 0 Z " fill="#3F50B4" transform="translate(0,0)"/>
<path d="M0 0 C66 0 132 0 200 0 C200 66 200 132 200 200 C134 200 68 200 0 200 C0 134 0 68 0 0 Z M16 10 C14.35 11.65 12.7 13.3 11 15 C10.67 15.33 10.34 15.66 10 16 C10 56.92 10 97.84 10 140 C69.4 140 128.8 140 190 140 C190 99.08 190 58.16 190 16 C188.35 14.35 186.7 12.7 185 11 C184.67 10.67 184.34 10.34 184 10 C128.56 10 73.12 10 16 10 Z " fill="#212121" transform="translate(0,0)"/>
<path d="M0 0 C3.63 0.99 7.26 1.98 11 3 C11.99 3.66 12.98 4.32 14 5 C11.69 8.63 9.38 12.26 7 16 C7 18.31 7 20.62 7 23 C7.66 23.33 8.32 23.66 9 24 C11.31 24 13.62 24 16 24 C18.64 22.68 21.28 21.36 24 20 C25.98 17.69 27.96 15.38 30 13 C31.98 12.67 33.96 12.34 36 12 C44.91 16.95 44.91 16.95 54 22 C59.61 25.96 65.22 29.92 71 34 C75.95 38.455 75.95 38.455 81 43 C81 44.65 81 46.3 81 48 C80.67 48.33 80.34 48.66 80 49 C78.02 49 76.04 49 74 49 C64.1 43.06 64.1 43.06 54 37 C52.68 37.33 51.36 37.66 50 38 C50 38.66 50 39.32 50 40 C51.65 40.66 53.3 41.32 55 42 C60.28 45.3 65.56 48.6 71 52 C70.67 53.65 70.34 55.3 70 57 C69.67 57.33 69.34 57.66 69 58 C66.69 57.67 64.38 57.34 62 57 C57.05 54.03 52.1 51.06 47 48 C46.01 47.67 45.02 47.34 44 47 C44.66 48.65 45.32 50.3 46 52 C51.28 54.97 56.56 57.94 62 61 C61.34 62.65 60.68 64.3 60 66 C57.69 66 55.38 66 53 66 C49.04 64.02 45.08 62.04 41 60 C40.01 60 39.02 60 38 60 C38.33 60.99 38.66 61.98 39 63 C42.96 64.98 46.92 66.96 51 69 C50.505 70.485 50.505 70.485 50 72 C49.01 72.495 49.01 72.495 48 73 C45.03 73 42.06 73 39 73 C36.69 72.34 34.38 71.68 32 71 C32.33 70.34 32.66 69.68 33 69 C33 66.69 33 64.38 33 62 C31.35 60.35 29.7 58.7 28 57 C27.01 56.505 27.01 56.505 26 56 C25.01 53.69 24.02 51.38 23 49 C21.02 48.01 19.04 47.02 17 46 C16.34 44.02 15.68 42.04 15 40 C13.68 39.01 12.36 38.02 11 37 C7.535 37.495 7.535 37.495 4 38 C3.01 38.66 2.02 39.32 1 40 C-0.65 38.68 -2.3 37.36 -4 36 C-8.455 36.495 -8.455 36.495 -13 37 C-14.32 35.35 -15.64 33.7 -17 32 C-16.34 30.35 -15.68 28.7 -15 27 C-10.05 18.09 -5.1 9.18 0 0 Z " fill="#1E1E1E" transform="translate(63,52)"/>
<path d="M0 0 C6.93 0 13.86 0 21 0 C23.64 0.66 26.28 1.32 29 2 C32.96 2 36.92 2 41 2 C46.82766894 11.90703719 52.55071571 21.8799006 58 32 C57.34 33.32 56.68 34.64 56 36 C54.68 37.32 53.36 38.64 52 40 C50.35 39.67 48.7 39.34 47 39 C41.39 34.71 35.78 30.42 30 26 C25.05 23.03 20.1 20.06 15 17 C11.7 15.35 8.4 13.7 5 12 C2.36 12.33 -0.28 12.66 -3 13 C-4.65 14.65 -6.3 16.3 -8 18 C-9.65 19.32 -11.3 20.64 -13 22 C-15.97 22.33 -18.94 22.66 -22 23 C-21.34 21.02 -20.68 19.04 -20 17 C-16.7 12.38 -13.4 7.76 -10 3 C-8.68 2.34 -7.36 1.68 -6 1 C-4.02 0.67 -2.04 0.34 0 0 Z " fill="#1E1E1E" transform="translate(95,49)"/>
<path d="M0 0 C1.65 0.66 3.3 1.32 5 2 C6.98 3.32 8.96 4.64 11 6 C10.65243652 6.63526611 10.30487305 7.27053223 9.94677734 7.92504883 C5.80988386 15.49666508 1.71224061 23.08898693 -2.375 30.6875 C-3.02210706 31.88998922 -3.66924233 33.09246325 -4.31640625 34.29492188 C-5.87787997 37.19646633 -7.43907285 40.09816149 -9 43 C-10.32 44.32 -11.64 45.64 -13 47 C-15.97 45.02 -18.94 43.04 -22 41 C-21.01 38.03 -21.01 38.03 -20 35 C-5.92423428 10.01734161 -5.92423428 10.01734161 0 0 Z " fill="#1D1D1D" transform="translate(52,38)"/>
<path d="M0 0 C0.99 0.33 1.98 0.66 3 1 C3.35191406 1.65371582 3.70382813 2.30743164 4.06640625 2.98095703 C10.57721504 15.06547714 17.08805704 27.13902235 24 39 C23.34 40.32 22.68 41.64 22 43 C18.04 44.98 18.04 44.98 14 47 C6.13690326 33.77650773 -1.46430214 20.41240419 -9 7 C-7.68 5.68 -6.36 4.36 -5 3 C-3.35 2.01 -1.7 1.02 0 0 Z " fill="#1D1D1D" transform="translate(146,38)"/>
<path d="M0 0 C2.64 0 5.28 0 8 0 C10.475 1.485 10.475 1.485 13 3 C13.66 4.32 14.32 5.64 15 7 C15 9.64 15 12.28 15 15 C14.01 16.65 13.02 18.3 12 20 C10.68 20.99 9.36 21.98 8 23 C5.36 23 2.72 23 0 23 C-1.65 22.01 -3.3 21.02 -5 20 C-5.66 18.68 -6.32 17.36 -7 16 C-7 13.36 -7 10.72 -7 8 C-6.01 6.35 -5.02 4.7 -4 3 C-2.68 2.01 -1.36 1.02 0 0 Z " fill="#FFFFFF" transform="translate(80,153)"/>
<path d="M0 0 C2.64 0 5.28 0 8 0 C9.32 3.3 10.64 6.6 12 10 C12.66 11.32 13.32 12.64 14 14 C15.32 10.04 16.64 6.08 18 2 C18.66 1.34 19.32 0.68 20 0 C22.31 0 24.62 0 27 0 C27 7.59 27 15.18 27 23 C25.35 23 23.7 23 22 23 C21.67 18.05 21.34 13.1 21 8 C19.35 12.95 17.7 17.9 16 23 C14.35 23 12.7 23 11 23 C9.35 18.38 7.7 13.76 6 9 C5.67 13.62 5.34 18.24 5 23 C3.35 23 1.7 23 0 23 C0 15.41 0 7.82 0 0 Z " fill="#FFFFFF" transform="translate(100,153)"/>
<path d="M0 0 C3.96 0 7.92 0 12 0 C13.65 0.99 15.3 1.98 17 3 C17.66 4.32 18.32 5.64 19 7 C19 9.97 19 12.94 19 16 C18.01 17.65 17.02 19.3 16 21 C14.35 21.66 12.7 22.32 11 23 C7.37 23 3.74 23 0 23 C0 15.41 0 7.82 0 0 Z " fill="#FFFFFF" transform="translate(7,153)"/>
<path d="M0 0 C1.98 0 3.96 0 6 0 C8.64 6.93 11.28 13.86 14 21 C14 21.66 14 22.32 14 23 C12.35 23 10.7 23 9 23 C8.34 21.68 7.68 20.36 7 19 C4.03 18.67 1.06 18.34 -2 18 C-2.33 19.65 -2.66 21.3 -3 23 C-4.65 23 -6.3 23 -8 23 C-5.69 15.74 -3.38 8.48 -1 1 C-0.67 0.67 -0.34 0.34 0 0 Z " fill="#FFFFFF" transform="translate(137,153)"/>
<path d="M0 0 C3.63 0 7.26 0 11 0 C12.65 1.32 14.3 2.64 16 4 C16 5.98 16 7.96 16 10 C14.35 11.65 12.7 13.3 11 15 C9.02 15 7.04 15 5 15 C5 17.64 5 20.28 5 23 C3.35 23 1.7 23 0 23 C0 15.41 0 7.82 0 0 Z " fill="#FFFFFF" transform="translate(40,153)"/>
<path d="M0 0 C2.31 0 4.62 0 7 0 C7.99 0.66 8.98 1.32 10 2 C10 3.32 10 4.64 10 6 C7.03 5.67 4.06 5.34 1 5 C0.01 6.485 0.01 6.485 -1 8 C-1 10.31 -1 12.62 -1 15 C-0.01 16.485 -0.01 16.485 1 18 C2.98 18 4.96 18 7 18 C7.99 17.67 8.98 17.34 10 17 C9.67 18.65 9.34 20.3 9 22 C8.34 22.33 7.68 22.66 7 23 C4.69 23 2.38 23 0 23 C-1.65 22.01 -3.3 21.02 -5 20 C-5.66 18.68 -6.32 17.36 -7 16 C-7 13.36 -7 10.72 -7 8 C-6.01 6.35 -5.02 4.7 -4 3 C-2.68 2.01 -1.36 1.02 0 0 Z " fill="#FFFFFF" transform="translate(184,153)"/>
<path d="M0 0 C1.65 0 3.3 0 5 0 C5.66 0.66 6.32 1.32 7 2 C6.67 3.98 6.34 5.96 6 8 C3.03 11.96 0.06 15.92 -3 20 C-4.98 19.67 -6.96 19.34 -9 19 C-9.33 17.35 -9.66 15.7 -10 14 C-6.7 9.38 -3.4 4.76 0 0 Z " fill="#1B1B1B" transform="translate(69,93)"/>
<path d="M0 0 C6.27 0 12.54 0 19 0 C19 1.32 19 2.64 19 4 C16.69 4 14.38 4 12 4 C12 10.27 12 16.54 12 23 C10.35 23 8.7 23 7 23 C7 16.73 7 10.46 7 4 C4.69 4 2.38 4 0 4 C0 2.68 0 1.36 0 0 Z " fill="#FFFFFF" transform="translate(148,153)"/>
<path d="M0 0 C1.98 0 3.96 0 6 0 C6.99 1.32 7.98 2.64 9 4 C9 6.31 9 8.62 9 11 C8.01 12.32 7.02 13.64 6 15 C4.02 15 2.04 15 0 15 C-0.99 13.68 -1.98 12.36 -3 11 C-3 8.69 -3 6.38 -3 4 C-2.01 2.68 -1.02 1.36 0 0 Z " fill="#222222" transform="translate(81,157)"/>
<path d="M0 0 C1.65 0 3.3 0 5 0 C5 6.27 5 12.54 5 19 C7.64 19 10.28 19 13 19 C13 20.32 13 21.64 13 23 C8.71 23 4.42 23 0 23 C0 15.41 0 7.82 0 0 Z " fill="#FFFFFF" transform="translate(60,153)"/>
<path d="M0 0 C1.65 0.33 3.3 0.66 5 1 C5.33 1.33 5.66 1.66 6 2 C6 3.65 6 5.3 6 7 C3.36 10.3 0.72 13.6 -2 17 C-3.65 17 -5.3 17 -7 17 C-7.33 16.67 -7.66 16.34 -8 16 C-8 14.02 -8 12.04 -8 10 C-5.36 6.7 -2.72 3.4 0 0 Z " fill="#1A1A1A" transform="translate(78,103)"/>
<path d="M0 0 C2.31 0.33 4.62 0.66 7 1 C7.66 1.99 8.32 2.98 9 4 C9 6.31 9 8.62 9 11 C7.68 12.32 6.36 13.64 5 15 C3.35 15 1.7 15 0 15 C0 10.05 0 5.1 0 0 Z " fill="#222222" transform="translate(12,157)"/>
<path d="M0 0 C4.62 2.31 9.24 4.62 14 7 C13.67 7.99 13.34 8.98 13 10 C12.01 10.495 12.01 10.495 11 11 C8.03 11 5.06 11 2 11 C-0.31 10.34 -2.62 9.68 -5 9 C-4.01 6.69 -3.02 4.38 -2 2 C-1.34 2 -0.68 2 0 2 C0 1.34 0 0.68 0 0 Z " fill="#181818" transform="translate(100,114)"/>
<path d="M0 0 C1.65 0 3.3 0 5 0 C5 7.59 5 15.18 5 23 C3.35 23 1.7 23 0 23 C0 15.41 0 7.82 0 0 Z " fill="#FFFFFF" transform="translate(169,153)"/>
<path d="M0 0 C1.65 0 3.3 0 5 0 C5 7.59 5 15.18 5 23 C3.35 23 1.7 23 0 23 C0 15.41 0 7.82 0 0 Z " fill="#FFFFFF" transform="translate(30,153)"/>
<path d="M0 0 C1.65 0 3.3 0 5 0 C5.66 0.66 6.32 1.32 7 2 C6.67 3.98 6.34 5.96 6 8 C4.35 9.98 2.7 11.96 1 14 C-0.65 13.67 -2.3 13.34 -4 13 C-4.33 11.02 -4.66 9.04 -5 7 C-3.35 4.69 -1.7 2.38 0 0 Z " fill="#191919" transform="translate(86,113)"/>
<path d="M0 0 C1.32 0.33 2.64 0.66 4 1 C4.66 1.66 5.32 2.32 6 3 C5.67 4.65 5.34 6.3 5 8 C4.01 9.32 3.02 10.64 2 12 C0.35 11.67 -1.3 11.34 -3 11 C-3.33 10.67 -3.66 10.34 -4 10 C-4 8.35 -4 6.7 -4 5 C-2.68 3.35 -1.36 1.7 0 0 Z " fill="#1A1A1A" transform="translate(55,91)"/>
<path d="M0 0 C1.65 0 3.3 0 5 0 C5.33 1.65 5.66 3.3 6 5 C5.34 5.66 4.68 6.32 4 7 C2.68 7 1.36 7 0 7 C0 4.69 0 2.38 0 0 Z " fill="#222222" transform="translate(45,157)"/>
<path d="M0 0 C0.33 0 0.66 0 1 0 C1 2.97 1 5.94 1 9 C-1.97 9 -4.94 9 -8 9 C-6.35 7.68 -4.7 6.36 -3 5 C-2.01 3.35 -1.02 1.7 0 0 Z " fill="#FFFFFF" transform="translate(199,191)"/>
<path d="M0 0 C1.32 1.65 2.64 3.3 4 5 C6.475 6.98 6.475 6.98 9 9 C6.03 9 3.06 9 0 9 C0 6.03 0 3.06 0 0 Z " fill="#FFFFFF" transform="translate(0,191)"/>
<path d="M0 0 C2.97 0 5.94 0 9 0 C9 2.97 9 5.94 9 9 C7.68 7.35 6.36 5.7 5 4 C3.35 2.68 1.7 1.36 0 0 Z " fill="#FFFFFF" transform="translate(191,0)"/>
<path d="M0 0 C2.97 0 5.94 0 9 0 C7.35 1.32 5.7 2.64 4 4 C2.68 5.65 1.36 7.3 0 9 C0 6.03 0 3.06 0 0 Z " fill="#FFFFFF" transform="translate(0,0)"/>
<path d="M0 0 C0.66 0.99 1.32 1.98 2 3 C2.66 5.31 3.32 7.62 4 10 C2.02 10 0.04 10 -2 10 C-1.34 6.7 -0.68 3.4 0 0 Z " fill="#222222" transform="translate(139,157)"/>
<path d="M0 0 C1.32 0.66 2.64 1.32 4 2 C1.69 3.65 -0.62 5.3 -3 7 C-2.34 5.35 -1.68 3.7 -1 2 C-0.67 1.34 -0.34 0.68 0 0 Z " fill="#0D0D0D" transform="translate(63,52)"/>
<path d="M0 0 C0.99 0.33 1.98 0.66 3 1 C2.34 1.66 1.68 2.32 1 3 C0.67 2.01 0.34 1.02 0 0 Z " fill="#242424" transform="translate(70,117)"/>
</svg>
