<?xml version="1.0" encoding="UTF-8"?>
<svg version="1.1" xmlns="http://www.w3.org/2000/svg" width="200" height="200">
<path d="M0 0 C66 0 132 0 200 0 C200 66 200 132 200 200 C134 200 68 200 0 200 C0 134 0 68 0 0 Z " fill="#222121" transform="translate(0,0)"/>
<path d="M0 0 C54.78 0 109.56 0 166 0 C167.98 0.99 169.96 1.98 172 3 C172.99 4.485 172.99 4.485 174 6 C174 46.92 174 87.84 174 130 C114.6 130 55.2 130 -6 130 C-6 106.24 -6 82.48 -6 58 C6.21 58 18.42 58 31 58 C31 64.93 31 71.86 31 79 C23.08 79.495 23.08 79.495 15 80 C14.67 82.97 14.34 85.94 14 89 C17.3 89.33 20.6 89.66 24 90 C25.98 91.32 27.96 92.64 30 94 C38.25 94.66 46.5 95.32 55 96 C70.84 96.495 70.84 96.495 87 97 C87 96.34 87 95.68 87 95 C87.66 95 88.32 95 89 95 C89 94.34 89 93.68 89 93 C89.66 93 90.32 93 91 93 C91 89.7 91 86.4 91 83 C90.67 82.01 90.34 81.02 90 80 C86.7 78.68 83.4 77.36 80 76 C81.32 74.68 82.64 73.36 84 72 C85.60387267 70.8745809 87.20810916 69.74968028 88.8125 68.625 C89.70582031 67.99851562 90.59914063 67.37203125 91.51953125 66.7265625 C93.33267878 65.46449761 95.16188211 64.22541192 97 63 C98.98 63.33 100.96 63.66 103 64 C106.96 65.98 110.92 67.96 115 70 C116.98 70 118.96 70 121 70 C125.62 67.69 130.24 65.38 135 63 C143.91 62.67 152.82 62.34 162 62 C162.66 60.35 163.32 58.7 164 57 C157.07 57 150.14 57 143 57 C138.05 56.01 133.1 55.02 128 54 C125.03 52.02 122.06 50.04 119 48 C117.35 48.33 115.7 48.66 114 49 C110.37 49.99 106.74 50.98 103 52 C102.01 52.99 101.02 53.98 100 55 C98.68 55.33 97.36 55.66 96 56 C83.625 56.495 83.625 56.495 71 57 C70.67 58.32 70.34 59.64 70 61 C70.66 61.66 71.32 62.32 72 63 C67.71 66.96 63.42 70.92 59 75 C58.34 75.66 57.68 76.32 57 77 C51.06 77.33 45.12 77.66 39 78 C39 71.4 39 64.8 39 58 C47.58 57.67 56.16 57.34 65 57 C65.99 56.34 66.98 55.68 68 55 C68 53.35 68 51.7 68 50 C66.02 49.01 64.04 48.02 62 47 C28.34 46.505 28.34 46.505 -6 46 C-6 32.8 -6 19.6 -6 6 C-4 4 -2 2 0 0 Z " fill="#F34235" transform="translate(16,10)"/>
<path d="M0 0 C2.31 0 4.62 0 7 0 C7.66 0.33 8.32 0.66 9 1 C9 2.32 9 3.64 9 5 C6.36 5 3.72 5 1 5 C1.33 5.99 1.66 6.98 2 8 C3.98 8.99 5.96 9.98 8 11 C8.66 11.66 9.32 12.32 10 13 C10 14.98 10 16.96 10 19 C8.35 20.32 6.7 21.64 5 23 C2.69 23 0.38 23 -2 23 C-2.99 22.34 -3.98 21.68 -5 21 C-5 19.68 -5 18.36 -5 17 C-2.03 17.33 0.94 17.66 4 18 C4 17.01 4 16.02 4 15 C1.36 13.35 -1.28 11.7 -4 10 C-4.33 9.67 -4.66 9.34 -5 9 C-4.67 6.69 -4.34 4.38 -4 2 C-2.68 1.34 -1.36 0.68 0 0 Z " fill="#FFFFFF" transform="translate(64,153)"/>
<path d="M0 0 C2.31 0 4.62 0 7 0 C7.99 0.66 8.98 1.32 10 2 C10 3.32 10 4.64 10 6 C7.03 5.67 4.06 5.34 1 5 C0.01 6.485 0.01 6.485 -1 8 C-1 10.31 -1 12.62 -1 15 C-0.01 16.485 -0.01 16.485 1 18 C2.98 18 4.96 18 7 18 C7.99 17.67 8.98 17.34 10 17 C9.67 18.65 9.34 20.3 9 22 C8.34 22.33 7.68 22.66 7 23 C4.69 23 2.38 23 0 23 C-1.65 22.01 -3.3 21.02 -5 20 C-5.66 18.68 -6.32 17.36 -7 16 C-7 13.36 -7 10.72 -7 8 C-6.01 6.35 -5.02 4.7 -4 3 C-2.68 2.01 -1.36 1.02 0 0 Z " fill="#FFFFFF" transform="translate(83,153)"/>
<path d="M0 0 C4.29 0 8.58 0 13 0 C13 1.32 13 2.64 13 4 C10.36 4 7.72 4 5 4 C5 5.98 5 7.96 5 10 C7.31 10 9.62 10 12 10 C12 11.32 12 12.64 12 14 C9.69 14 7.38 14 5 14 C5 16.97 5 19.94 5 23 C3.35 23 1.7 23 0 23 C0 15.41 0 7.82 0 0 Z " fill="#FFFFFF" transform="translate(119,153)"/>
<path d="M0 0 C1.65 0 3.3 0 5 0 C5 7.59 5 15.18 5 23 C3.35 23 1.7 23 0 23 C0 15.41 0 7.82 0 0 Z " fill="#FFFFFF" transform="translate(136,153)"/>
<path d="M0 0 C1.65 0 3.3 0 5 0 C5 7.59 5 15.18 5 23 C3.35 23 1.7 23 0 23 C0 15.41 0 7.82 0 0 Z " fill="#FFFFFF" transform="translate(98,153)"/>
<path d="M0 0 C0.33 0 0.66 0 1 0 C1 2.97 1 5.94 1 9 C-1.97 9 -4.94 9 -8 9 C-6.35 7.68 -4.7 6.36 -3 5 C-2.01 3.35 -1.02 1.7 0 0 Z " fill="#FFFFFF" transform="translate(199,191)"/>
<path d="M0 0 C1.32 1.65 2.64 3.3 4 5 C6.475 6.98 6.475 6.98 9 9 C6.03 9 3.06 9 0 9 C0 6.03 0 3.06 0 0 Z " fill="#FFFFFF" transform="translate(0,191)"/>
<path d="M0 0 C2.97 0 5.94 0 9 0 C9 1.32 9 2.64 9 4 C6.03 4 3.06 4 0 4 C0 2.68 0 1.36 0 0 Z " fill="#FFFFFF" transform="translate(106,165)"/>
<path d="M0 0 C2.97 0 5.94 0 9 0 C9 2.97 9 5.94 9 9 C7.68 7.35 6.36 5.7 5 4 C3.35 2.68 1.7 1.36 0 0 Z " fill="#FFFFFF" transform="translate(191,0)"/>
<path d="M0 0 C2.97 0 5.94 0 9 0 C7.35 1.32 5.7 2.64 4 4 C2.68 5.65 1.36 7.3 0 9 C0 6.03 0 3.06 0 0 Z " fill="#FFFFFF" transform="translate(0,0)"/>
</svg>
