<?xml version="1.0" encoding="UTF-8"?>
<svg version="1.1" xmlns="http://www.w3.org/2000/svg" width="200" height="200">
<path d="M0 0 C66 0 132 0 200 0 C200 66 200 132 200 200 C134 200 68 200 0 200 C0 134 0 68 0 0 Z " fill="#FEEA3A" transform="translate(0,0)"/>
<path d="M0 0 C66 0 132 0 200 0 C200 66 200 132 200 200 C134 200 68 200 0 200 C0 134 0 68 0 0 Z M16 10 C14.35 11.65 12.7 13.3 11 15 C10.67 15.33 10.34 15.66 10 16 C10 56.92 10 97.84 10 140 C69.4 140 128.8 140 190 140 C190 99.08 190 58.16 190 16 C188.35 14.35 186.7 12.7 185 11 C184.01 10.67 183.02 10.34 182 10 C127.22 10 72.44 10 16 10 Z " fill="#222121" transform="translate(0,0)"/>
<path d="M0 0 C1.65 0.33 3.3 0.66 5 1 C7.31 3.64 9.62 6.28 12 9 C13.68779318 11.14560326 15.37523795 13.29147912 17.0625 15.4375 C17.76149414 16.32598633 17.76149414 16.32598633 18.47460938 17.23242188 C22.33381658 22.14175349 26.16603019 27.07061025 30 32 C63.66 32.33 97.32 32.66 132 33 C133.98 34.65 135.96 36.3 138 38 C138 38.99 138 39.98 138 41 C135.36 41.99 132.72 42.98 130 44 C126.535 44.495 126.535 44.495 123 45 C113.1 45 103.2 45 93 45 C93 45.99 93 46.98 93 48 C84.09 48 75.18 48 66 48 C66 47.01 66 46.02 66 45 C59.73 45 53.46 45 47 45 C31.49 43.35 15.98 41.7 0 40 C-0.66 39.34 -1.32 38.68 -2 38 C-2 36.35 -2 34.7 -2 33 C0.97 33 3.94 33 7 33 C4.69 23.43 2.38 13.86 0 4 C0 2.68 0 1.36 0 0 Z " fill="#222222" transform="translate(32,21)"/>
<path d="M0 0 C3.96 0 7.92 0 12 0 C13.32 1.32 14.64 2.64 16 4 C15.67 6.31 15.34 8.62 15 11 C14.34 11.66 13.68 12.32 13 13 C14.32 15.64 15.64 18.28 17 21 C17 21.66 17 22.32 17 23 C15.35 23 13.7 23 12 23 C10.68 20.36 9.36 17.72 8 15 C7.01 14.67 6.02 14.34 5 14 C5 16.97 5 19.94 5 23 C3.35 23 1.7 23 0 23 C0 15.41 0 7.82 0 0 Z " fill="#FFFFFF" transform="translate(78,153)"/>
<path d="M0 0 C1.98 0 3.96 0 6 0 C8.64 6.93 11.28 13.86 14 21 C14 21.66 14 22.32 14 23 C12.35 23 10.7 23 9 23 C8.34 21.68 7.68 20.36 7 19 C4.03 18.67 1.06 18.34 -2 18 C-2.33 19.65 -2.66 21.3 -3 23 C-4.65 23 -6.3 23 -8 23 C-5.69 15.74 -3.38 8.48 -1 1 C-0.67 0.67 -0.34 0.34 0 0 Z " fill="#FFFFFF" transform="translate(13,153)"/>
<path d="M0 0 C2.97 0 5.94 0 9 0 C9.99 0.66 10.98 1.32 12 2 C12 3.32 12 4.64 12 6 C10.68 5.67 9.36 5.34 8 5 C5.69 5 3.38 5 1 5 C0.01 6.32 -0.98 7.64 -2 9 C-2 10.98 -2 12.96 -2 15 C-1.01 15.99 -0.02 16.98 1 18 C2.98 18.33 4.96 18.66 7 19 C7 17.35 7 15.7 7 14 C5.35 14 3.7 14 2 14 C2 12.68 2 11.36 2 10 C5.3 10 8.6 10 12 10 C12 13.96 12 17.92 12 22 C11.01 22.33 10.02 22.66 9 23 C6.03 23 3.06 23 0 23 C-1.65 22.01 -3.3 21.02 -5 20 C-5.99 18.68 -6.98 17.36 -8 16 C-8 13.36 -8 10.72 -8 8 C-6.68 6.02 -5.36 4.04 -4 2 C-2.68 1.34 -1.36 0.68 0 0 Z " fill="#FFFFFF" transform="translate(60,153)"/>
<path d="M0 0 C2.97 0 5.94 0 9 0 C9.99 0.66 10.98 1.32 12 2 C12 3.32 12 4.64 12 6 C10.68 5.67 9.36 5.34 8 5 C5.69 5 3.38 5 1 5 C0.01 6.32 -0.98 7.64 -2 9 C-2 10.98 -2 12.96 -2 15 C-1.01 15.99 -0.02 16.98 1 18 C2.98 18.33 4.96 18.66 7 19 C7 17.35 7 15.7 7 14 C5.35 14 3.7 14 2 14 C2 12.68 2 11.36 2 10 C5.3 10 8.6 10 12 10 C12 13.96 12 17.92 12 22 C11.01 22.33 10.02 22.66 9 23 C6.03 23 3.06 23 0 23 C-1.65 22.01 -3.3 21.02 -5 20 C-5.99 18.68 -6.98 17.36 -8 16 C-8 13.36 -8 10.72 -8 8 C-6.68 6.02 -5.36 4.04 -4 2 C-2.68 1.34 -1.36 0.68 0 0 Z " fill="#FFFFFF" transform="translate(36,153)"/>
<path d="M0 0 C1.65 0 3.3 0 5 0 C5.99 2.64 6.98 5.28 8 8 C8.66 10.31 9.32 12.62 10 15 C10.66 13.68 11.32 12.36 12 11 C12.99 7.7 13.98 4.4 15 1 C15.33 0.67 15.66 0.34 16 0 C17.65 0 19.3 0 21 0 C20.01 3.63 19.02 7.26 18 11 C16.35 14.96 14.7 18.92 13 23 C11.02 23 9.04 23 7 23 C4.69 16.07 2.38 9.14 0 2 C0 1.34 0 0.68 0 0 Z " fill="#FFFFFF" transform="translate(159,153)"/>
<path d="M0 0 C4.29 0 8.58 0 13 0 C13 1.32 13 2.64 13 4 C10.36 4 7.72 4 5 4 C5 5.65 5 7.3 5 9 C7.31 9 9.62 9 12 9 C12 10.32 12 11.64 12 13 C9.69 13 7.38 13 5 13 C5 14.98 5 16.96 5 19 C7.64 19 10.28 19 13 19 C13 20.32 13 21.64 13 23 C8.71 23 4.42 23 0 23 C0 15.41 0 7.82 0 0 Z " fill="#FFFFFF" transform="translate(183,153)"/>
<path d="M0 0 C4.29 0 8.58 0 13 0 C13 1.32 13 2.64 13 4 C10.36 4 7.72 4 5 4 C5 5.65 5 7.3 5 9 C7.31 9 9.62 9 12 9 C12 10.32 12 11.64 12 13 C9.69 13 7.38 13 5 13 C5 14.98 5 16.96 5 19 C7.64 19 10.28 19 13 19 C13 20.32 13 21.64 13 23 C8.71 23 4.42 23 0 23 C0 15.41 0 7.82 0 0 Z " fill="#FFFFFF" transform="translate(99,153)"/>
<path d="M0 0 C2.31 0 4.62 0 7 0 C7.66 0.33 8.32 0.66 9 1 C9 2.32 9 3.64 9 5 C6.36 5 3.72 5 1 5 C1.33 5.99 1.66 6.98 2 8 C3.98 8.99 5.96 9.98 8 11 C8.66 11.66 9.32 12.32 10 13 C10 14.98 10 16.96 10 19 C8.35 20.32 6.7 21.64 5 23 C2.69 23 0.38 23 -2 23 C-2.99 22.34 -3.98 21.68 -5 21 C-5 19.68 -5 18.36 -5 17 C-2.03 17.33 0.94 17.66 4 18 C4 17.01 4 16.02 4 15 C1.36 13.35 -1.28 11.7 -4 10 C-4.33 9.67 -4.66 9.34 -5 9 C-4.67 6.69 -4.34 4.38 -4 2 C-2.68 1.34 -1.36 0.68 0 0 Z " fill="#FFFFFF" transform="translate(137,153)"/>
<path d="M0 0 C2.31 0 4.62 0 7 0 C7.66 0.33 8.32 0.66 9 1 C9 2.32 9 3.64 9 5 C6.36 5 3.72 5 1 5 C1.33 5.99 1.66 6.98 2 8 C3.98 8.99 5.96 9.98 8 11 C8.66 11.66 9.32 12.32 10 13 C10 14.98 10 16.96 10 19 C8.35 20.32 6.7 21.64 5 23 C2.69 23 0.38 23 -2 23 C-2.99 22.34 -3.98 21.68 -5 21 C-5 19.68 -5 18.36 -5 17 C-2.03 17.33 0.94 17.66 4 18 C4 17.01 4 16.02 4 15 C1.36 13.35 -1.28 11.7 -4 10 C-4.33 9.67 -4.66 9.34 -5 9 C-4.67 6.69 -4.34 4.38 -4 2 C-2.68 1.34 -1.36 0.68 0 0 Z " fill="#FFFFFF" transform="translate(120,153)"/>
<path d="M0 0 C1.65 0 3.3 0 5 0 C5 7.59 5 15.18 5 23 C3.35 23 1.7 23 0 23 C0 15.41 0 7.82 0 0 Z " fill="#FFFFFF" transform="translate(151,153)"/>
<path d="M0 0 C0.33 0 0.66 0 1 0 C1 2.97 1 5.94 1 9 C-1.97 9 -4.94 9 -8 9 C-6.35 7.68 -4.7 6.36 -3 5 C-2.01 3.35 -1.02 1.7 0 0 Z " fill="#FFFFFF" transform="translate(199,191)"/>
<path d="M0 0 C1.32 1.65 2.64 3.3 4 5 C6.475 6.98 6.475 6.98 9 9 C6.03 9 3.06 9 0 9 C0 6.03 0 3.06 0 0 Z " fill="#FFFFFF" transform="translate(0,191)"/>
<path d="M0 0 C2.97 0 5.94 0 9 0 C9 2.97 9 5.94 9 9 C7.68 7.35 6.36 5.7 5 4 C3.35 2.68 1.7 1.36 0 0 Z " fill="#FFFFFF" transform="translate(191,0)"/>
<path d="M0 0 C2.97 0 5.94 0 9 0 C7.35 1.32 5.7 2.64 4 4 C2.68 5.65 1.36 7.3 0 9 C0 6.03 0 3.06 0 0 Z " fill="#FFFFFF" transform="translate(0,0)"/>
<path d="M0 0 C1.65 0 3.3 0 5 0 C5.33 1.65 5.66 3.3 6 5 C5.67 5.33 5.34 5.66 5 6 C3.35 6 1.7 6 0 6 C0 4.02 0 2.04 0 0 Z " fill="#222222" transform="translate(83,157)"/>
<path d="M0 0 C0.66 0.99 1.32 1.98 2 3 C2.66 5.31 3.32 7.62 4 10 C2.02 10 0.04 10 -2 10 C-1.34 6.7 -0.68 3.4 0 0 Z " fill="#222222" transform="translate(15,157)"/>
<path d="M0 0 C2.475 0.495 2.475 0.495 5 1 C8.465 2.485 8.465 2.485 12 4 C12 4.66 12 5.32 12 6 C8.37 5.01 4.74 4.02 1 3 C0.67 2.01 0.34 1.02 0 0 Z " fill="#434025" transform="translate(100,90)"/>
<path d="M0 0 C1.98 0.99 1.98 0.99 4 2 C5.32 3.98 6.64 5.96 8 8 C8 8.66 8 9.32 8 10 C6.68 9.34 5.36 8.68 4 8 C2.68 6.02 1.36 4.04 0 2 C0 1.34 0 0.68 0 0 Z " fill="#423F25" transform="translate(87,100)"/>
<path d="M0 0 C2.31 1.98 4.62 3.96 7 6 C7.99 7.485 7.99 7.485 9 9 C8.01 9 7.02 9 6 9 C3.69 6.69 1.38 4.38 -1 2 C-0.67 1.34 -0.34 0.68 0 0 Z " fill="#403D25" transform="translate(74,100)"/>
<path d="M0 0 C5.94 0.99 5.94 0.99 12 2 C12 2.66 12 3.32 12 4 C8.37 3.67 4.74 3.34 1 3 C0.67 2.01 0.34 1.02 0 0 Z " fill="#484526" transform="translate(102,78)"/>
<path d="M0 0 C2.31 0.33 4.62 0.66 7 1 C8.65 1.33 10.3 1.66 12 2 C12 2.99 12 3.98 12 5 C6.06 3.515 6.06 3.515 0 2 C0 1.34 0 0.68 0 0 Z " fill="#393724" transform="translate(87,93)"/>
<path d="M0 0 C0.66 0 1.32 0 2 0 C3.65 3.3 5.3 6.6 7 10 C6.01 10 5.02 10 4 10 C2.02 6.535 2.02 6.535 0 3 C0 2.01 0 1.02 0 0 Z " fill="#333123" transform="translate(72,114)"/>
<path d="M0 0 C1.98 0.99 1.98 0.99 4 2 C3.01 3.485 3.01 3.485 2 5 C1.34 3.35 0.68 1.7 0 0 Z " fill="#4D4926" transform="translate(87,100)"/>
<path d="M0 0 C2.475 0.495 2.475 0.495 5 1 C3.02 1.99 3.02 1.99 1 3 C0.67 2.01 0.34 1.02 0 0 Z " fill="#666029" transform="translate(100,90)"/>
<path d="M0 0 C0.66 0 1.32 0 2 0 C2 0.99 2 1.98 2 3 C0.35 2.67 -1.3 2.34 -3 2 C-2.01 1.34 -1.02 0.68 0 0 Z " fill="#6E672A" transform="translate(97,95)"/>
<path d="M0 0 C0.66 0 1.32 0 2 0 C2.33 0.99 2.66 1.98 3 3 C2.01 3 1.02 3 0 3 C0 2.01 0 1.02 0 0 Z " fill="#555027" transform="translate(76,121)"/>
<path d="M0 0 C0.66 0 1.32 0 2 0 C2.33 0.99 2.66 1.98 3 3 C2.01 3 1.02 3 0 3 C0 2.01 0 1.02 0 0 Z " fill="#434025" transform="translate(72,114)"/>
<path d="M0 0 C0.66 0.66 1.32 1.32 2 2 C1.01 2 0.02 2 -1 2 C-0.67 1.34 -0.34 0.68 0 0 Z " fill="#504B26" transform="translate(74,100)"/>
</svg>
