<?xml version="1.0" encoding="UTF-8"?>
<svg version="1.1" xmlns="http://www.w3.org/2000/svg" width="200" height="200">
<path d="M0 0 C66 0 132 0 200 0 C200 66 200 132 200 200 C134 200 68 200 0 200 C0 134 0 68 0 0 Z " fill="#04A8F2" transform="translate(0,0)"/>
<path d="M0 0 C66 0 132 0 200 0 C200 66 200 132 200 200 C134 200 68 200 0 200 C0 134 0 68 0 0 Z M16 10 C14.35 11.65 12.7 13.3 11 15 C10.67 15.33 10.34 15.66 10 16 C10 56.92 10 97.84 10 140 C19.9 140 29.8 140 40 140 C40.33 126.47 40.66 112.94 41 99 C41.66 93.06 42.32 87.12 43 81 C46.465 67.635 46.465 67.635 50 54 C52.64 47.4 55.28 40.8 58 34 C58.66 33.01 59.32 32.02 60 31 C60 29.02 60 27.04 60 25 C59.01 23.68 58.02 22.36 57 21 C67.56 20.67 78.12 20.34 89 20 C84.71 28.58 80.42 37.16 76 46 C75.67 46.99 75.34 47.98 75 49 C73.68 47.02 72.36 45.04 71 43 C70.34 43 69.68 43 69 43 C67.68 46.63 66.36 50.26 65 54 C64.34 56.97 63.68 59.94 63 63 C62.34 66.96 61.68 70.92 61 75 C61 87.87 61 100.74 61 114 C61.99 119.94 62.98 125.88 64 132 C64.66 134.64 65.32 137.28 66 140 C106.92 140 147.84 140 190 140 C190 99.08 190 58.16 190 16 C188.35 14.35 186.7 12.7 185 11 C184.67 10.67 184.34 10.34 184 10 C128.56 10 73.12 10 16 10 Z " fill="#212121" transform="translate(0,0)"/>
<path d="M0 0 C6.27 2.97 12.54 5.94 19 9 C19 9.99 19 10.98 19 12 C19.33 13.32 19.66 14.64 20 16 C22.64 18.64 25.28 21.28 28 24 C32.455 29.445 32.455 29.445 37 35 C40.96 40.28 44.92 45.56 49 51 C52.44946156 57.29526735 55.8700343 63.60471564 59.25 69.9375 C59.59095703 70.5756665 59.93191406 71.21383301 60.28320312 71.87133789 C61.89480045 74.89548586 63.4890578 77.92415337 65 81 C65 81.99 65 82.98 65 84 C57.41 87.63 49.82 91.26 42 95 C41.01 95.33 40.02 95.66 39 96 C38.01 88.575 38.01 88.575 37 81 C35.68 75.39 34.36 69.78 33 64 C29.535 55.585 29.535 55.585 26 47 C22.7 41.39 19.4 35.78 16 30 C13.69 27.36 11.38 24.72 9 22 C7.02 22.99 7.02 22.99 5 24 C4.01 24.33 3.02 24.66 2 25 C1.34 18.73 0.68 12.46 0 6 C0 4.02 0 2.04 0 0 Z " fill="#1F2020" transform="translate(112,37)"/>
<path d="M0 0 C2.64 0 5.28 0 8 0 C9.32 3.3 10.64 6.6 12 10 C12.66 11.32 13.32 12.64 14 14 C15.32 10.04 16.64 6.08 18 2 C18.66 1.34 19.32 0.68 20 0 C22.31 0 24.62 0 27 0 C27 7.59 27 15.18 27 23 C25.35 23 23.7 23 22 23 C21.67 18.05 21.34 13.1 21 8 C19.35 12.95 17.7 17.9 16 23 C14.35 23 12.7 23 11 23 C9.35 18.38 7.7 13.76 6 9 C5.67 13.62 5.34 18.24 5 23 C3.35 23 1.7 23 0 23 C0 15.41 0 7.82 0 0 Z " fill="#FFFFFF" transform="translate(12,153)"/>
<path d="M0 0 C3.96 0 7.92 0 12 0 C13.32 1.32 14.64 2.64 16 4 C15.67 6.31 15.34 8.62 15 11 C14.34 11.66 13.68 12.32 13 13 C14.32 15.64 15.64 18.28 17 21 C17 21.66 17 22.32 17 23 C15.35 23 13.7 23 12 23 C10.68 20.36 9.36 17.72 8 15 C7.01 14.67 6.02 14.34 5 14 C5 16.97 5 19.94 5 23 C3.35 23 1.7 23 0 23 C0 15.41 0 7.82 0 0 Z " fill="#FFFFFF" transform="translate(172,153)"/>
<path d="M0 0 C1.98 0 3.96 0 6 0 C8.64 6.93 11.28 13.86 14 21 C14 21.66 14 22.32 14 23 C12.35 23 10.7 23 9 23 C8.34 21.68 7.68 20.36 7 19 C4.03 18.67 1.06 18.34 -2 18 C-2.33 19.65 -2.66 21.3 -3 23 C-4.65 23 -6.3 23 -8 23 C-5.69 15.74 -3.38 8.48 -1 1 C-0.67 0.67 -0.34 0.34 0 0 Z " fill="#FFFFFF" transform="translate(49,153)"/>
<path d="M0 0 C1.98 0 3.96 0 6 0 C8.64 4.95 11.28 9.9 14 15 C14.33 10.05 14.66 5.1 15 0 C16.32 0 17.64 0 19 0 C19 7.59 19 15.18 19 23 C17.35 23 15.7 23 14 23 C11.525 19.04 11.525 19.04 9 15 C7.68 12.36 6.36 9.72 5 7 C4.67 12.28 4.34 17.56 4 23 C2.68 23 1.36 23 0 23 C0 15.41 0 7.82 0 0 Z " fill="#FFFFFF" transform="translate(66,153)"/>
<path d="M0 0 C1.65 0 3.3 0 5 0 C5.33 5.61 5.66 11.22 6 17 C6.33 17.33 6.66 17.66 7 18 C8.65 18 10.3 18 12 18 C12.33 17.67 12.66 17.34 13 17 C13.33 11.39 13.66 5.78 14 0 C15.65 0 17.3 0 19 0 C19 5.94 19 11.88 19 18 C17.68 19.32 16.36 20.64 15 22 C14.34 22.33 13.68 22.66 13 23 C10.69 23 8.38 23 6 23 C4.35 22.01 2.7 21.02 1 20 C0.67 19.34 0.34 18.68 0 18 C0 12.06 0 6.12 0 0 Z " fill="#FFFFFF" transform="translate(108,153)"/>
<path d="M0 0 C1.65 0 3.3 0 5 0 C5.99 2.64 6.98 5.28 8 8 C8.66 10.31 9.32 12.62 10 15 C10.66 13.68 11.32 12.36 12 11 C12.99 7.7 13.98 4.4 15 1 C15.33 0.67 15.66 0.34 16 0 C17.65 0 19.3 0 21 0 C20.01 3.63 19.02 7.26 18 11 C16.35 14.96 14.7 18.92 13 23 C11.02 23 9.04 23 7 23 C4.69 16.07 2.38 9.14 0 2 C0 1.34 0 0.68 0 0 Z " fill="#FFFFFF" transform="translate(130,153)"/>
<path d="M0 0 C4.29 0 8.58 0 13 0 C13 1.32 13 2.64 13 4 C10.36 4 7.72 4 5 4 C5 5.65 5 7.3 5 9 C7.31 9 9.62 9 12 9 C12 10.32 12 11.64 12 13 C9.69 13 7.38 13 5 13 C5 14.98 5 16.96 5 19 C7.64 19 10.28 19 13 19 C13 20.32 13 21.64 13 23 C8.71 23 4.42 23 0 23 C0 15.41 0 7.82 0 0 Z " fill="#FFFFFF" transform="translate(154,153)"/>
<path d="M0 0 C4.29 0 8.58 0 13 0 C13 1.32 13 2.64 13 4 C10.36 4 7.72 4 5 4 C5 5.65 5 7.3 5 9 C7.31 9 9.62 9 12 9 C12 10.32 12 11.64 12 13 C9.69 13 7.38 13 5 13 C5 14.98 5 16.96 5 19 C7.64 19 10.28 19 13 19 C13 20.32 13 21.64 13 23 C8.71 23 4.42 23 0 23 C0 15.41 0 7.82 0 0 Z " fill="#FFFFFF" transform="translate(90,153)"/>
<path d="M0 0 C0.33 0 0.66 0 1 0 C1 2.97 1 5.94 1 9 C-1.97 9 -4.94 9 -8 9 C-6.35 7.68 -4.7 6.36 -3 5 C-2.01 3.35 -1.02 1.7 0 0 Z " fill="#FFFFFF" transform="translate(199,191)"/>
<path d="M0 0 C1.32 1.65 2.64 3.3 4 5 C6.475 6.98 6.475 6.98 9 9 C6.03 9 3.06 9 0 9 C0 6.03 0 3.06 0 0 Z " fill="#FFFFFF" transform="translate(0,191)"/>
<path d="M0 0 C2.97 0 5.94 0 9 0 C9 2.97 9 5.94 9 9 C7.68 7.35 6.36 5.7 5 4 C3.35 2.68 1.7 1.36 0 0 Z " fill="#FFFFFF" transform="translate(191,0)"/>
<path d="M0 0 C2.97 0 5.94 0 9 0 C7.35 1.32 5.7 2.64 4 4 C2.68 5.65 1.36 7.3 0 9 C0 6.03 0 3.06 0 0 Z " fill="#FFFFFF" transform="translate(0,0)"/>
<path d="M0 0 C1.65 0 3.3 0 5 0 C5.33 1.65 5.66 3.3 6 5 C5.67 5.33 5.34 5.66 5 6 C3.35 6 1.7 6 0 6 C0 4.02 0 2.04 0 0 Z " fill="#222222" transform="translate(177,157)"/>
<path d="M0 0 C0.66 0.99 1.32 1.98 2 3 C2.66 5.31 3.32 7.62 4 10 C2.02 10 0.04 10 -2 10 C-1.34 6.7 -0.68 3.4 0 0 Z " fill="#222222" transform="translate(51,157)"/>
<path d="M0 0 C0.33 0 0.66 0 1 0 C1.33 1.98 1.66 3.96 2 6 C2.99 6.33 3.98 6.66 5 7 C4.01 7.99 3.02 8.98 2 10 C1.34 10 0.68 10 0 10 C0 6.7 0 3.4 0 0 Z " fill="#111517" transform="translate(114,52)"/>
<path d="M0 0 C0.99 0.33 1.98 0.66 3 1 C2.34 1.66 1.68 2.32 1 3 C0.67 2.01 0.34 1.02 0 0 Z " fill="#282527" transform="translate(153,80)"/>
<path d="M0 0 C0.99 0.33 1.98 0.66 3 1 C2.34 1.66 1.68 2.32 1 3 C0.67 2.01 0.34 1.02 0 0 Z " fill="#29282B" transform="translate(137,60)"/>
</svg>
