<?xml version="1.0" encoding="UTF-8"?>
<svg version="1.1" xmlns="http://www.w3.org/2000/svg" width="200" height="200">
<path d="M0 0 C66 0 132 0 200 0 C200 66 200 132 200 200 C134 200 68 200 0 200 C0 134 0 68 0 0 Z " fill="#212121" transform="translate(0,0)"/>
<path d="M0 0 C55.44 0 110.88 0 168 0 C170 2 172 4 174 6 C174 46.92 174 87.84 174 130 C148.59 130 123.18 130 97 130 C97.99 129.34 98.98 128.68 100 128 C104.95 125.36 109.9 122.72 115 120 C116.32 117.69 117.64 115.38 119 113 C119.33 110.03 119.66 107.06 120 104 C117.36 102.68 114.72 101.36 112 100 C100.78 99.67 89.56 99.34 78 99 C78.99 97.02 78.99 97.02 80 95 C80.84852539 95.00523682 81.69705078 95.01047363 82.57128906 95.01586914 C111.39096709 95.16632873 140.18805591 94.63404167 169 94 C169 92.68 169 91.36 169 90 C168.01 89.67 167.02 89.34 166 89 C165.67 88.34 165.34 87.68 165 87 C164.34 87 163.68 87 163 87 C162.67 87.66 162.34 88.32 162 89 C135.6 89 109.2 89 82 89 C80.02 87.35 78.04 85.7 76 84 C74.02 83.34 72.04 82.68 70 82 C64.39 81.67 58.78 81.34 53 81 C52.34 79.68 51.68 78.36 51 77 C47.04 77 43.08 77 39 77 C38.67 77.66 38.34 78.32 38 79 C37.34 79 36.68 79 36 79 C36 77.68 36 76.36 36 75 C37.98 74.505 37.98 74.505 40 74 C45.94 73.67 51.88 73.34 58 73 C58 72.34 58 71.68 58 71 C52.39 70.67 46.78 70.34 41 70 C36.71 70 32.42 70 28 70 C26.02 70.495 26.02 70.495 24 71 C24 71.66 24 72.32 24 73 C25.98 72.505 25.98 72.505 28 72 C28.33 72.99 28.66 73.98 29 75 C23.06 75.495 23.06 75.495 17 76 C16.67 76.99 16.34 77.98 16 79 C8.74 79 1.48 79 -6 79 C-6 54.91 -6 30.82 -6 6 C-4 4 -2 2 0 0 Z " fill="#9B26AF" transform="translate(16,10)"/>
<path d="M0 0 C2.64 0 5.28 0 8 0 C10.475 1.485 10.475 1.485 13 3 C13.66 4.32 14.32 5.64 15 7 C15 9.64 15 12.28 15 15 C14.01 16.98 13.02 18.96 12 21 C13.65 21.66 15.3 22.32 17 23 C17 24.32 17 25.64 17 27 C15.35 26.67 13.7 26.34 12 26 C11.01 25.01 10.02 24.02 9 23 C6.03 23 3.06 23 0 23 C-1.65 22.01 -3.3 21.02 -5 20 C-5.66 18.68 -6.32 17.36 -7 16 C-7 13.03 -7 10.06 -7 7 C-6.01 5.35 -5.02 3.7 -4 2 C-2.68 1.34 -1.36 0.68 0 0 Z " fill="#FFFFFF" transform="translate(42,153)"/>
<path d="M0 0 C7.92 0 15.84 0 24 0 C24.99 2.31 25.98 4.62 27 7 C27.66 6.34 28.32 5.68 29 5 C29.66 3.35 30.32 1.7 31 0 C32.65 0 34.3 0 36 0 C35.67 1.65 35.34 3.3 35 5 C33.68 7.64 32.36 10.28 31 13 C30.67 16.3 30.34 19.6 30 23 C28.35 23 26.7 23 25 23 C24.505 18.05 24.505 18.05 24 13 C21.525 8.545 21.525 8.545 19 4 C16.69 4 14.38 4 12 4 C12 10.27 12 16.54 12 23 C10.35 23 8.7 23 7 23 C7 16.73 7 10.46 7 4 C4.69 4 2.38 4 0 4 C0 2.68 0 1.36 0 0 Z " fill="#FFFFFF" transform="translate(130,153)"/>
<path d="M0 0 C1.98 0 3.96 0 6 0 C8.64 6.93 11.28 13.86 14 21 C14 21.66 14 22.32 14 23 C12.35 23 10.7 23 9 23 C8.34 21.68 7.68 20.36 7 19 C4.03 18.67 1.06 18.34 -2 18 C-2.33 19.65 -2.66 21.3 -3 23 C-4.65 23 -6.3 23 -8 23 C-5.69 15.74 -3.38 8.48 -1 1 C-0.67 0.67 -0.34 0.34 0 0 Z " fill="#FFFFFF" transform="translate(90,153)"/>
<path d="M0 0 C1.65 0 3.3 0 5 0 C5.33 5.61 5.66 11.22 6 17 C6.33 17.33 6.66 17.66 7 18 C8.65 18 10.3 18 12 18 C12.33 17.67 12.66 17.34 13 17 C13.33 11.39 13.66 5.78 14 0 C15.65 0 17.3 0 19 0 C19 5.94 19 11.88 19 18 C17.68 19.32 16.36 20.64 15 22 C14.34 22.33 13.68 22.66 13 23 C10.69 23 8.38 23 6 23 C4.35 22.01 2.7 21.02 1 20 C0.67 19.34 0.34 18.68 0 18 C0 12.06 0 6.12 0 0 Z " fill="#FFFFFF" transform="translate(62,153)"/>
<path d="M0 0 C1.98 0 3.96 0 6 0 C6.99 1.32 7.98 2.64 9 4 C9 6.31 9 8.62 9 11 C8.01 12.32 7.02 13.64 6 15 C4.02 15 2.04 15 0 15 C-0.99 13.68 -1.98 12.36 -3 11 C-3 8.69 -3 6.38 -3 4 C-2.01 2.68 -1.02 1.36 0 0 Z " fill="#222222" transform="translate(43,157)"/>
<path d="M0 0 C1.65 0 3.3 0 5 0 C5 6.27 5 12.54 5 19 C7.64 19 10.28 19 13 19 C13 20.32 13 21.64 13 23 C8.71 23 4.42 23 0 23 C0 15.41 0 7.82 0 0 Z " fill="#FFFFFF" transform="translate(107,153)"/>
<path d="M0 0 C1.65 0 3.3 0 5 0 C5 7.59 5 15.18 5 23 C3.35 23 1.7 23 0 23 C0 15.41 0 7.82 0 0 Z " fill="#FFFFFF" transform="translate(123,153)"/>
<path d="M0 0 C11.88 0.66 23.76 1.32 36 2 C36 2.33 36 2.66 36 3 C24.12 3 12.24 3 0 3 C0 2.01 0 1.02 0 0 Z " fill="#9C27B0" transform="translate(10,105)"/>
<path d="M0 0 C2.31 0 4.62 0 7 0 C7.99 1.32 8.98 2.64 10 4 C6.04 4 2.08 4 -2 4 C-1.34 2.68 -0.68 1.36 0 0 Z " fill="#9C27B0" transform="translate(96,133)"/>
<path d="M0 0 C0.33 0 0.66 0 1 0 C1 2.97 1 5.94 1 9 C-1.97 9 -4.94 9 -8 9 C-6.35 7.68 -4.7 6.36 -3 5 C-2.01 3.35 -1.02 1.7 0 0 Z " fill="#FFFFFF" transform="translate(199,191)"/>
<path d="M0 0 C1.32 1.65 2.64 3.3 4 5 C6.475 6.98 6.475 6.98 9 9 C6.03 9 3.06 9 0 9 C0 6.03 0 3.06 0 0 Z " fill="#FFFFFF" transform="translate(0,191)"/>
<path d="M0 0 C2.97 0 5.94 0 9 0 C9 2.97 9 5.94 9 9 C7.68 7.35 6.36 5.7 5 4 C3.35 2.68 1.7 1.36 0 0 Z " fill="#FFFFFF" transform="translate(191,0)"/>
<path d="M0 0 C2.97 0 5.94 0 9 0 C7.35 1.32 5.7 2.64 4 4 C2.68 5.65 1.36 7.3 0 9 C0 6.03 0 3.06 0 0 Z " fill="#FFFFFF" transform="translate(0,0)"/>
<path d="M0 0 C0.66 0.99 1.32 1.98 2 3 C2.66 5.31 3.32 7.62 4 10 C2.02 10 0.04 10 -2 10 C-1.34 6.7 -0.68 3.4 0 0 Z " fill="#222222" transform="translate(92,157)"/>
<path d="M0 0 C1.32 0.33 2.64 0.66 4 1 C4.66 1.99 5.32 2.98 6 4 C3.36 4 0.72 4 -2 4 C-1.34 2.68 -0.68 1.36 0 0 Z " fill="#9C27B0" transform="translate(57,133)"/>
<path d="M0 0 C1.32 0.33 2.64 0.66 4 1 C4.99 1.99 5.98 2.98 7 4 C4.03 4 1.06 4 -2 4 C-1.34 2.68 -0.68 1.36 0 0 Z " fill="#9C27B0" transform="translate(76,133)"/>
<path d="M0 0 C2.475 0.99 2.475 0.99 5 2 C5.33 2.66 5.66 3.32 6 4 C3.03 4 0.06 4 -3 4 C-2.01 2.68 -1.02 1.36 0 0 Z " fill="#9C27B0" transform="translate(18,133)"/>
<path d="M0 0 C0.99 0 1.98 0 3 0 C3.99 1.32 4.98 2.64 6 4 C3.36 4 0.72 4 -2 4 C-1.34 2.68 -0.68 1.36 0 0 Z " fill="#9C27B0" transform="translate(37,133)"/>
</svg>
