<?xml version="1.0" encoding="UTF-8"?>
<svg version="1.1" xmlns="http://www.w3.org/2000/svg" width="200" height="200">
<path d="M0 0 C66 0 132 0 200 0 C200 66 200 132 200 200 C134 200 68 200 0 200 C0 134 0 68 0 0 Z " fill="#222222" transform="translate(0,0)"/>
<path d="M0 0 C54.78 0 109.56 0 166 0 C167.98 0.99 169.96 1.98 172 3 C172.99 4.485 172.99 4.485 174 6 C174 35.04 174 64.08 174 94 C173.01 94 172.02 94 171 94 C171 94.99 171 95.98 171 97 C170.34 97 169.68 97 169 97 C169 96.01 169 95.02 169 94 C168.01 94 167.02 94 166 94 C166 94.99 166 95.98 166 97 C165.34 97 164.68 97 164 97 C164 96.01 164 95.02 164 94 C163.01 94.33 162.02 94.66 161 95 C155.06 95 149.12 95 143 95 C143 101.6 143 108.2 143 115 C138.38 115 133.76 115 129 115 C129 116.98 129 118.96 129 121 C130.32 121.33 131.64 121.66 133 122 C132.34 122.66 131.68 123.32 131 124 C131.33 125.98 131.66 127.96 132 130 C123.75 130 115.5 130 107 130 C107.495 127.03 107.495 127.03 108 124 C107.34 123.01 106.68 122.02 106 121 C107.32 121 108.64 121 110 121 C110 119.02 110 117.04 110 115 C106.37 115 102.74 115 99 115 C99 112.69 99 110.38 99 108 C99.66 108 100.32 108 101 108 C101 107.01 101 106.02 101 105 C101.66 105 102.32 105 103 105 C103 105.99 103 106.98 103 108 C103.99 108 104.98 108 106 108 C106 107.01 106 106.02 106 105 C106.66 105 107.32 105 108 105 C108 105.99 108 106.98 108 108 C108.99 108 109.98 108 111 108 C111 107.01 111 106.02 111 105 C111.66 105 112.32 105 113 105 C113 105.99 113 106.98 113 108 C113.99 108 114.98 108 116 108 C116 107.01 116 106.02 116 105 C116.66 105 117.32 105 118 105 C118 105.99 118 106.98 118 108 C118.99 108 119.98 108 121 108 C121 103.38 121 98.76 121 94 C120.01 94 119.02 94 118 94 C118 94.99 118 95.98 118 97 C117.34 97 116.68 97 116 97 C116 96.01 116 95.02 116 94 C115.01 94 114.02 94 113 94 C113 94.99 113 95.98 113 97 C112.34 97 111.68 97 111 97 C111 96.01 111 95.02 111 94 C110.01 94 109.02 94 108 94 C108 94.99 108 95.98 108 97 C107.34 97 106.68 97 106 97 C106 96.01 106 95.02 106 94 C105.01 94 104.02 94 103 94 C103 94.99 103 95.98 103 97 C102.34 97 101.68 97 101 97 C101 96.01 101 95.02 101 94 C99.515 94.495 99.515 94.495 98 95 C92.06 95 86.12 95 80 95 C80 101.6 80 108.2 80 115 C75.38 115 70.76 115 66 115 C66 116.98 66 118.96 66 121 C67.98 121.495 67.98 121.495 70 122 C69.34 122.66 68.68 123.32 68 124 C68.33 125.98 68.66 127.96 69 130 C60.75 130 52.5 130 44 130 C44.495 127.03 44.495 127.03 45 124 C44.34 123.01 43.68 122.02 43 121 C44.32 121 45.64 121 47 121 C47 119.02 47 117.04 47 115 C43.37 115 39.74 115 36 115 C36 112.69 36 110.38 36 108 C36.66 108 37.32 108 38 108 C38 107.01 38 106.02 38 105 C38.66 105 39.32 105 40 105 C40 105.99 40 106.98 40 108 C40.99 108 41.98 108 43 108 C43 107.01 43 106.02 43 105 C43.66 105 44.32 105 45 105 C45 105.99 45 106.98 45 108 C45.99 108 46.98 108 48 108 C48 107.01 48 106.02 48 105 C48.66 105 49.32 105 50 105 C50 105.99 50 106.98 50 108 C50.99 108 51.98 108 53 108 C53 107.01 53 106.02 53 105 C53.66 105 54.32 105 55 105 C55 105.99 55 106.98 55 108 C55.99 108 56.98 108 58 108 C58 103.38 58 98.76 58 94 C57.01 94 56.02 94 55 94 C55 94.99 55 95.98 55 97 C54.34 97 53.68 97 53 97 C53 96.01 53 95.02 53 94 C52.01 94 51.02 94 50 94 C50 94.99 50 95.98 50 97 C49.34 97 48.68 97 48 97 C48 96.01 48 95.02 48 94 C47.01 94 46.02 94 45 94 C45 94.99 45 95.98 45 97 C44.34 97 43.68 97 43 97 C43 96.01 43 95.02 43 94 C42.01 94 41.02 94 40 94 C40 94.99 40 95.98 40 97 C39.34 97 38.68 97 38 97 C38 96.01 38 95.02 38 94 C37.01 94.33 36.02 94.66 35 95 C29.06 95 23.12 95 17 95 C17 101.6 17 108.2 17 115 C12.38 115 7.76 115 3 115 C3 116.98 3 118.96 3 121 C4.32 121.33 5.64 121.66 7 122 C6.01 122.99 6.01 122.99 5 124 C5.33 125.98 5.66 127.96 6 130 C2.04 130 -1.92 130 -6 130 C-6 89.08 -6 48.16 -6 6 C-4 4 -2 2 0 0 Z " fill="#8AC249" transform="translate(16,10)"/>
<path d="M0 0 C2.64 0 5.28 0 8 0 C10.475 1.485 10.475 1.485 13 3 C13.66 4.32 14.32 5.64 15 7 C15 9.64 15 12.28 15 15 C14.01 16.98 13.02 18.96 12 21 C13.65 21.66 15.3 22.32 17 23 C17 24.32 17 25.64 17 27 C15.35 26.67 13.7 26.34 12 26 C11.01 25.01 10.02 24.02 9 23 C6.03 23 3.06 23 0 23 C-1.65 22.01 -3.3 21.02 -5 20 C-5.66 18.68 -6.32 17.36 -7 16 C-7 13.03 -7 10.06 -7 7 C-6.01 5.35 -5.02 3.7 -4 2 C-2.68 1.34 -1.36 0.68 0 0 Z " fill="#FFFFFF" transform="translate(29,153)"/>
<path d="M0 0 C7.92 0 15.84 0 24 0 C24.99 2.31 25.98 4.62 27 7 C27.66 6.34 28.32 5.68 29 5 C29.66 3.35 30.32 1.7 31 0 C32.65 0 34.3 0 36 0 C35.67 1.65 35.34 3.3 35 5 C33.68 7.64 32.36 10.28 31 13 C30.67 16.3 30.34 19.6 30 23 C28.35 23 26.7 23 25 23 C24.505 18.05 24.505 18.05 24 13 C21.525 8.545 21.525 8.545 19 4 C16.69 4 14.38 4 12 4 C12 10.27 12 16.54 12 23 C10.35 23 8.7 23 7 23 C7 16.73 7 10.46 7 4 C4.69 4 2.38 4 0 4 C0 2.68 0 1.36 0 0 Z " fill="#FFFFFF" transform="translate(143,153)"/>
<path d="M0 0 C1.98 0 3.96 0 6 0 C8.64 6.93 11.28 13.86 14 21 C14 21.66 14 22.32 14 23 C12.35 23 10.7 23 9 23 C8.34 21.68 7.68 20.36 7 19 C4.03 18.67 1.06 18.34 -2 18 C-2.33 19.65 -2.66 21.3 -3 23 C-4.65 23 -6.3 23 -8 23 C-5.69 15.74 -3.38 8.48 -1 1 C-0.67 0.67 -0.34 0.34 0 0 Z " fill="#FFFFFF" transform="translate(77,153)"/>
<path d="M0 0 C1.98 0 3.96 0 6 0 C8.64 4.95 11.28 9.9 14 15 C14.33 10.05 14.66 5.1 15 0 C16.32 0 17.64 0 19 0 C19 7.59 19 15.18 19 23 C17.35 23 15.7 23 14 23 C11.525 19.04 11.525 19.04 9 15 C7.68 12.36 6.36 9.72 5 7 C4.67 12.28 4.34 17.56 4 23 C2.68 23 1.36 23 0 23 C0 15.41 0 7.82 0 0 Z " fill="#FFFFFF" transform="translate(94,153)"/>
<path d="M0 0 C1.65 0 3.3 0 5 0 C5.33 5.61 5.66 11.22 6 17 C6.33 17.33 6.66 17.66 7 18 C8.65 18 10.3 18 12 18 C12.33 17.67 12.66 17.34 13 17 C13.33 11.39 13.66 5.78 14 0 C15.65 0 17.3 0 19 0 C19 5.94 19 11.88 19 18 C17.68 19.32 16.36 20.64 15 22 C14.34 22.33 13.68 22.66 13 23 C10.69 23 8.38 23 6 23 C4.35 22.01 2.7 21.02 1 20 C0.67 19.34 0.34 18.68 0 18 C0 12.06 0 6.12 0 0 Z " fill="#FFFFFF" transform="translate(49,153)"/>
<path d="M0 0 C6.27 0 12.54 0 19 0 C19 1.32 19 2.64 19 4 C16.69 4 14.38 4 12 4 C12 10.27 12 16.54 12 23 C10.35 23 8.7 23 7 23 C7 16.73 7 10.46 7 4 C4.69 4 2.38 4 0 4 C0 2.68 0 1.36 0 0 Z " fill="#FFFFFF" transform="translate(115,153)"/>
<path d="M0 0 C1.98 0 3.96 0 6 0 C6.99 1.32 7.98 2.64 9 4 C9 6.31 9 8.62 9 11 C8.01 12.32 7.02 13.64 6 15 C4.02 15 2.04 15 0 15 C-0.99 13.68 -1.98 12.36 -3 11 C-3 8.69 -3 6.38 -3 4 C-2.01 2.68 -1.02 1.36 0 0 Z " fill="#222222" transform="translate(30,157)"/>
<path d="M0 0 C0.66 0 1.32 0 2 0 C2 0.99 2 1.98 2 3 C2.99 3 3.98 3 5 3 C5 2.01 5 1.02 5 0 C5.66 0 6.32 0 7 0 C7 0.99 7 1.98 7 3 C7.99 3 8.98 3 10 3 C10 10.26 10 17.52 10 25 C8.68 24.67 7.36 24.34 6 24 C6.33 22.35 6.66 20.7 7 19 C6.34 18.01 5.68 17.02 5 16 C6.32 16 7.64 16 9 16 C9 14.02 9 12.04 9 10 C5.37 10 1.74 10 -2 10 C-2 7.69 -2 5.38 -2 3 C-1.34 3 -0.68 3 0 3 C0 2.01 0 1.02 0 0 Z " fill="#8BC34A" transform="translate(180,115)"/>
<path d="M0 0 C1.65 0 3.3 0 5 0 C5 7.59 5 15.18 5 23 C3.35 23 1.7 23 0 23 C0 15.41 0 7.82 0 0 Z " fill="#FFFFFF" transform="translate(136,153)"/>
<path d="M0 0 C3.96 0 7.92 0 12 0 C11.01 1.485 11.01 1.485 10 3 C10.33 4.98 10.66 6.96 11 9 C7.7 9 4.4 9 1 9 C1.33 7.02 1.66 5.04 2 3 C1.34 2.01 0.68 1.02 0 0 Z " fill="#8BC34A" transform="translate(161,131)"/>
<path d="M0 0 C3.96 0 7.92 0 12 0 C11.01 1.485 11.01 1.485 10 3 C10.33 4.98 10.66 6.96 11 9 C7.7 9 4.4 9 1 9 C1.33 7.02 1.66 5.04 2 3 C1.34 2.01 0.68 1.02 0 0 Z " fill="#8BC34A" transform="translate(98,131)"/>
<path d="M0 0 C3.96 0 7.92 0 12 0 C11.01 1.485 11.01 1.485 10 3 C10.33 4.98 10.66 6.96 11 9 C7.7 9 4.4 9 1 9 C1.33 7.02 1.66 5.04 2 3 C1.34 2.01 0.68 1.02 0 0 Z " fill="#8BC34A" transform="translate(35,131)"/>
<path d="M0 0 C0.33 0 0.66 0 1 0 C1 2.97 1 5.94 1 9 C-1.97 9 -4.94 9 -8 9 C-6.35 7.68 -4.7 6.36 -3 5 C-2.01 3.35 -1.02 1.7 0 0 Z " fill="#FFFFFF" transform="translate(199,191)"/>
<path d="M0 0 C1.32 1.65 2.64 3.3 4 5 C6.475 6.98 6.475 6.98 9 9 C6.03 9 3.06 9 0 9 C0 6.03 0 3.06 0 0 Z " fill="#FFFFFF" transform="translate(0,191)"/>
<path d="M0 0 C2.64 0 5.28 0 8 0 C7.01 1.485 7.01 1.485 6 3 C6.33 4.98 6.66 6.96 7 9 C5.02 9 3.04 9 1 9 C1.33 7.02 1.66 5.04 2 3 C1.34 2.01 0.68 1.02 0 0 Z " fill="#8BC34A" transform="translate(175,131)"/>
<path d="M0 0 C2.64 0 5.28 0 8 0 C7.01 1.485 7.01 1.485 6 3 C6.33 4.98 6.66 6.96 7 9 C5.02 9 3.04 9 1 9 C1.33 7.02 1.66 5.04 2 3 C1.34 2.01 0.68 1.02 0 0 Z " fill="#8BC34A" transform="translate(151,131)"/>
<path d="M0 0 C2.64 0 5.28 0 8 0 C7.01 1.485 7.01 1.485 6 3 C6.33 4.98 6.66 6.96 7 9 C5.02 9 3.04 9 1 9 C1.33 7.02 1.66 5.04 2 3 C1.34 2.01 0.68 1.02 0 0 Z " fill="#8BC34A" transform="translate(112,131)"/>
<path d="M0 0 C2.64 0 5.28 0 8 0 C7.01 1.485 7.01 1.485 6 3 C6.33 4.98 6.66 6.96 7 9 C5.02 9 3.04 9 1 9 C1.33 7.02 1.66 5.04 2 3 C1.34 2.01 0.68 1.02 0 0 Z " fill="#8BC34A" transform="translate(88,131)"/>
<path d="M0 0 C2.64 0 5.28 0 8 0 C7.01 1.485 7.01 1.485 6 3 C6.33 4.98 6.66 6.96 7 9 C5.02 9 3.04 9 1 9 C1.33 7.02 1.66 5.04 2 3 C1.34 2.01 0.68 1.02 0 0 Z " fill="#8BC34A" transform="translate(49,131)"/>
<path d="M0 0 C2.64 0 5.28 0 8 0 C7.01 1.485 7.01 1.485 6 3 C6.33 4.98 6.66 6.96 7 9 C5.02 9 3.04 9 1 9 C1.33 7.02 1.66 5.04 2 3 C1.34 2.01 0.68 1.02 0 0 Z " fill="#8BC34A" transform="translate(25,131)"/>
<path d="M0 0 C2.97 0 5.94 0 9 0 C9 2.97 9 5.94 9 9 C7.68 7.35 6.36 5.7 5 4 C3.35 2.68 1.7 1.36 0 0 Z " fill="#FFFFFF" transform="translate(191,0)"/>
<path d="M0 0 C2.97 0 5.94 0 9 0 C7.35 1.32 5.7 2.64 4 4 C2.68 5.65 1.36 7.3 0 9 C0 6.03 0 3.06 0 0 Z " fill="#FFFFFF" transform="translate(0,0)"/>
<path d="M0 0 C0.66 0.99 1.32 1.98 2 3 C2.66 5.31 3.32 7.62 4 10 C2.02 10 0.04 10 -2 10 C-1.34 6.7 -0.68 3.4 0 0 Z " fill="#222222" transform="translate(79,157)"/>
</svg>
