<?xml version="1.0" encoding="UTF-8"?>
<svg version="1.1" xmlns="http://www.w3.org/2000/svg" width="200" height="200">
<path d="M0 0 C66 0 132 0 200 0 C200 66 200 132 200 200 C134 200 68 200 0 200 C0 134 0 68 0 0 Z " fill="#212222" transform="translate(0,0)"/>
<path d="M0 0 C54.78 0 109.56 0 166 0 C167.98 0.99 169.96 1.98 172 3 C172.99 4.485 172.99 4.485 174 6 C174 46.92 174 87.84 174 130 C163.11 130 152.22 130 141 130 C141 120.1 141 110.2 141 100 C141.99 100 142.98 100 144 100 C144 97.03 144 94.06 144 91 C143.01 91 142.02 91 141 91 C140.67 91.99 140.34 92.98 140 94 C140 85.75 140 77.5 140 69 C138.35 65.37 136.7 61.74 135 58 C135 57.34 135 56.68 135 56 C134.34 56 133.68 56 133 56 C132.01 58.97 131.02 61.94 130 65 C129.67 65.66 129.34 66.32 129 67 C128.67 75.91 128.34 84.82 128 94 C127.67 93.01 127.34 92.02 127 91 C126.01 91 125.02 91 124 91 C124 93.97 124 96.94 124 100 C124.99 100 125.98 100 127 100 C127 102.31 127 104.62 127 107 C124.69 107 122.38 107 120 107 C120 108.32 120 109.64 120 111 C117.36 111 114.72 111 112 111 C112 110.01 112 109.02 112 108 C111.01 108 110.02 108 109 108 C109 100.41 109 92.82 109 85 C106.69 85 104.38 85 102 85 C102 86.32 102 87.64 102 89 C99.69 89 97.38 89 95 89 C94.67 87.68 94.34 86.36 94 85 C94 74.77 94 64.54 94 54 C91.03 47.07 88.06 40.14 85 33 C85 29.37 85 25.74 85 22 C86.32 21.34 87.64 20.68 89 20 C92.96 20 96.92 20 101 20 C102.32 19.67 103.64 19.34 105 19 C108.3 19 111.6 19 115 19 C115 18.01 115 17.02 115 16 C105.1 16.495 105.1 16.495 95 17 C95 16.34 95 15.68 95 15 C91.7 15 88.4 15 85 15 C84.67 20.94 84.34 26.88 84 33 C81.03 39.93 78.06 46.86 75 54 C75 64.23 75 74.46 75 85 C74.34 85 73.68 85 73 85 C73 86.32 73 87.64 73 89 C70.69 89 68.38 89 66 89 C66 87.68 66 86.36 66 85 C63.36 85 60.72 85 58 85 C58 92.26 58 99.52 58 107 C57.01 107 56.02 107 55 107 C55 108.32 55 109.64 55 111 C52.36 111 49.72 111 47 111 C47 109.68 47 108.36 47 107 C44.69 107 42.38 107 40 107 C40 104.69 40 102.38 40 100 C40.99 100 41.98 100 43 100 C43 97.03 43 94.06 43 91 C42.01 91 41.02 91 40 91 C39.505 92.485 39.505 92.485 39 94 C39 85.75 39 77.5 39 69 C37.02 64.71 35.04 60.42 33 56 C31.35 59.63 29.7 63.26 28 67 C27.67 75.91 27.34 84.82 27 94 C26.67 93.01 26.34 92.02 26 91 C25.01 91 24.02 91 23 91 C23 93.97 23 96.94 23 100 C23.99 100 24.98 100 26 100 C26 109.9 26 119.8 26 130 C15.44 130 4.88 130 -6 130 C-6 89.08 -6 48.16 -6 6 C-4 4 -2 2 0 0 Z " fill="#00887A" transform="translate(16,10)"/>
<path d="M0 0 C2.64 0 5.28 0 8 0 C10.475 1.485 10.475 1.485 13 3 C13.66 4.32 14.32 5.64 15 7 C15 9.64 15 12.28 15 15 C14.01 16.65 13.02 18.3 12 20 C10.68 20.99 9.36 21.98 8 23 C5.36 23 2.72 23 0 23 C-1.65 22.01 -3.3 21.02 -5 20 C-5.66 18.68 -6.32 17.36 -7 16 C-7 13.36 -7 10.72 -7 8 C-6.01 6.35 -5.02 4.7 -4 3 C-2.68 2.01 -1.36 1.02 0 0 Z " fill="#FFFFFF" transform="translate(103,154)"/>
<path d="M0 0 C3.96 0 7.92 0 12 0 C13.32 1.32 14.64 2.64 16 4 C15.67 6.31 15.34 8.62 15 11 C14.34 11.66 13.68 12.32 13 13 C14.32 15.64 15.64 18.28 17 21 C17 21.66 17 22.32 17 23 C15.35 23 13.7 23 12 23 C10.68 20.36 9.36 17.72 8 15 C7.01 14.67 6.02 14.34 5 14 C5 16.97 5 19.94 5 23 C3.35 23 1.7 23 0 23 C0 15.41 0 7.82 0 0 Z " fill="#FFFFFF" transform="translate(123,154)"/>
<path d="M0 0 C1.65 0 3.3 0 5 0 C5 2.97 5 5.94 5 9 C7.64 9 10.28 9 13 9 C13 6.03 13 3.06 13 0 C14.65 0 16.3 0 18 0 C18 7.59 18 15.18 18 23 C16.35 23 14.7 23 13 23 C13 19.7 13 16.4 13 13 C10.36 13 7.72 13 5 13 C5 16.3 5 19.6 5 23 C3.35 23 1.7 23 0 23 C0 15.41 0 7.82 0 0 Z " fill="#FFFFFF" transform="translate(31,154)"/>
<path d="M0 0 C2.31 0 4.62 0 7 0 C7.66 0.33 8.32 0.66 9 1 C9 2.32 9 3.64 9 5 C6.36 5 3.72 5 1 5 C1.33 5.99 1.66 6.98 2 8 C3.98 8.99 5.96 9.98 8 11 C8.66 11.66 9.32 12.32 10 13 C10 14.98 10 16.96 10 19 C8.35 20.32 6.7 21.64 5 23 C2.69 23 0.38 23 -2 23 C-2.99 22.34 -3.98 21.68 -5 21 C-5 19.68 -5 18.36 -5 17 C-2.03 17.33 0.94 17.66 4 18 C4 17.01 4 16.02 4 15 C1.36 13.35 -1.28 11.7 -4 10 C-4.33 9.67 -4.66 9.34 -5 9 C-4.67 6.69 -4.34 4.38 -4 2 C-2.68 1.34 -1.36 0.68 0 0 Z " fill="#FFFFFF" transform="translate(67,154)"/>
<path d="M0 0 C2.31 0 4.62 0 7 0 C7.99 0.66 8.98 1.32 10 2 C10 3.32 10 4.64 10 6 C7.03 5.67 4.06 5.34 1 5 C0.01 6.485 0.01 6.485 -1 8 C-1 10.31 -1 12.62 -1 15 C-0.01 16.485 -0.01 16.485 1 18 C2.98 18 4.96 18 7 18 C7.99 17.67 8.98 17.34 10 17 C9.67 18.65 9.34 20.3 9 22 C8.34 22.33 7.68 22.66 7 23 C4.69 23 2.38 23 0 23 C-1.65 22.01 -3.3 21.02 -5 20 C-5.66 18.68 -6.32 17.36 -7 16 C-7 13.36 -7 10.72 -7 8 C-6.01 6.35 -5.02 4.7 -4 3 C-2.68 2.01 -1.36 1.02 0 0 Z " fill="#FFFFFF" transform="translate(159,154)"/>
<path d="M0 0 C6.27 0 12.54 0 19 0 C19 1.32 19 2.64 19 4 C16.69 4 14.38 4 12 4 C12 10.27 12 16.54 12 23 C10.35 23 8.7 23 7 23 C7 16.73 7 10.46 7 4 C4.69 4 2.38 4 0 4 C0 2.68 0 1.36 0 0 Z " fill="#FFFFFF" transform="translate(78,154)"/>
<path d="M0 0 C1.98 0 3.96 0 6 0 C6.99 1.32 7.98 2.64 9 4 C9 6.31 9 8.62 9 11 C8.01 12.32 7.02 13.64 6 15 C4.02 15 2.04 15 0 15 C-0.99 13.68 -1.98 12.36 -3 11 C-3 8.69 -3 6.38 -3 4 C-2.01 2.68 -1.02 1.36 0 0 Z " fill="#222222" transform="translate(104,158)"/>
<path d="M0 0 C1.65 0 3.3 0 5 0 C5 7.59 5 15.18 5 23 C3.35 23 1.7 23 0 23 C0 15.41 0 7.82 0 0 Z " fill="#FFFFFF" transform="translate(144,154)"/>
<path d="M0 0 C1.65 0 3.3 0 5 0 C5 7.59 5 15.18 5 23 C3.35 23 1.7 23 0 23 C0 15.41 0 7.82 0 0 Z " fill="#FFFFFF" transform="translate(54,154)"/>
<path d="M0 0 C0.33 0.66 0.66 1.32 1 2 C2.98 1.67 4.96 1.34 7 1 C11.62 1 16.24 1 21 1 C21 1.99 21 2.98 21 4 C16.38 4.66 11.76 5.32 7 6 C5.02 6 3.04 6 1 6 C0.67 5.67 0.34 5.34 0 5 C0 3.35 0 1.7 0 0 Z " fill="#1C201C" transform="translate(110,25)"/>
<path d="M0 0 C2.97 0 5.94 0 9 0 C9 1.65 9 3.3 9 5 C4.545 5.495 4.545 5.495 0 6 C0 4.02 0 2.04 0 0 Z " fill="#1E1A17" transform="translate(101,25)"/>
<path d="M0 0 C5.61 0.33 11.22 0.66 17 1 C16.01 1.66 15.02 2.32 14 3 C12.68 3.33 11.36 3.66 10 4 C6.7 4 3.4 4 0 4 C0 2.68 0 1.36 0 0 Z " fill="#192C28" transform="translate(49,54)"/>
<path d="M0 0 C5.61 0.33 11.22 0.66 17 1 C16.01 1.66 15.02 2.32 14 3 C11.69 3.33 9.38 3.66 7 4 C4.69 4 2.38 4 0 4 C0 2.68 0 1.36 0 0 Z " fill="#1C201D" transform="translate(150,54)"/>
<path d="M0 0 C0.33 0 0.66 0 1 0 C1 2.97 1 5.94 1 9 C-1.97 9 -4.94 9 -8 9 C-6.35 7.68 -4.7 6.36 -3 5 C-2.01 3.35 -1.02 1.7 0 0 Z " fill="#FFFFFF" transform="translate(199,191)"/>
<path d="M0 0 C1.32 1.65 2.64 3.3 4 5 C6.475 6.98 6.475 6.98 9 9 C6.03 9 3.06 9 0 9 C0 6.03 0 3.06 0 0 Z " fill="#FFFFFF" transform="translate(0,191)"/>
<path d="M0 0 C2.97 0 5.94 0 9 0 C9 2.97 9 5.94 9 9 C7.68 7.35 6.36 5.7 5 4 C3.35 2.68 1.7 1.36 0 0 Z " fill="#FFFFFF" transform="translate(191,0)"/>
<path d="M0 0 C2.97 0 5.94 0 9 0 C7.35 1.32 5.7 2.64 4 4 C2.68 5.65 1.36 7.3 0 9 C0 6.03 0 3.06 0 0 Z " fill="#FFFFFF" transform="translate(0,0)"/>
<path d="M0 0 C1.65 0 3.3 0 5 0 C5.33 1.65 5.66 3.3 6 5 C5.67 5.33 5.34 5.66 5 6 C3.35 6 1.7 6 0 6 C0 4.02 0 2.04 0 0 Z " fill="#222222" transform="translate(128,158)"/>
<path d="M0 0 C4.62 0 9.24 0 14 0 C14 0.99 14 1.98 14 3 C12.68 3 11.36 3 10 3 C10 2.34 10 1.68 10 1 C6.7 1 3.4 1 0 1 C0 0.67 0 0.34 0 0 Z " fill="#0F4F47" transform="translate(117,26)"/>
<path d="M0 0 C1.98 0 3.96 0 6 0 C6 0.99 6 1.98 6 3 C4.02 3.33 2.04 3.66 0 4 C0 2.68 0 1.36 0 0 Z " fill="#1D1E1A" transform="translate(49,54)"/>
<path d="M0 0 C2.64 0 5.28 0 8 0 C8 0.99 8 1.98 8 3 C5.69 3 3.38 3 1 3 C0.67 2.01 0.34 1.02 0 0 Z " fill="#076A5F" transform="translate(163,54)"/>
</svg>
